<svg xmlns="http://www.w3.org/2000/svg" width="120" height="120" viewBox="0 0 120 120">
  <g id="Сгруппировать_843" data-name="Сгруппировать 843" transform="translate(-41 -115)">
    <circle id="Эллипс_20" data-name="Эллипс 20" cx="60" cy="60" r="60" transform="translate(41 115)" fill="#565555"/>
    <g id="Сгруппировать_789" data-name="Сгруппировать 789" transform="translate(48.272 122.273)">
      <g id="Сгруппировать_789-2" data-name="Сгруппировать 789">
        <path id="Контур_607" data-name="Контур 607" d="M-788.461-172.589a52.274,52.274,0,0,1,52.489-52.273,52.283,52.283,0,0,1,52.049,52.123,52.294,52.294,0,0,1-52.514,52.419A52.28,52.28,0,0,1-788.461-172.589Zm43.485,16.38c-.644,0-1.29.035-1.93-.01a7.138,7.138,0,0,1-1.66-.274,3.808,3.808,0,0,1-2.762-3.768c0-5.865-.015-11.729.015-17.594a7.981,7.981,0,0,1,.356-2.322c.947-3.01,3.227-4.628,6.113-5.4a29.65,29.65,0,0,1,5.55-.943,58.942,58.942,0,0,1,6.727,0,35.352,35.352,0,0,1,3.658.593,10.918,10.918,0,0,1,5.681,2.295,6.957,6.957,0,0,1,2.611,5.3c.076,6.15.028,12.3.025,18.454a2.458,2.458,0,0,1-.086.776,4.325,4.325,0,0,1-4.355,2.908c-.659-.022-1.317,0-1.953,0v31.638a47.322,47.322,0,0,0,19.238-8.228,48.776,48.776,0,0,0,15.674-18.65,46.758,46.758,0,0,0,4.739-18.521,48,48,0,0,0-13.024-35.872,47.237,47.237,0,0,0-31.337-15.47,47.394,47.394,0,0,0-34.7,10.262A47.84,47.84,0,0,0-784.812-178a46.959,46.959,0,0,0,6.418,30.153c7.592,12.706,18.846,20.412,33.418,23.445Zm.107-2.558v-.942q0-6.677,0-13.356c0-1.549-.154-1.355,1.395-1.371,1.008-.01,1.034.02,1.028,1.073-.022,3.828-.065,7.657-.069,11.486q-.02,18.49-.014,36.98a6.7,6.7,0,0,0,.1.823l5.328.42v-1.073q0-15.834,0-31.668c0-1.341-.2-1.209,1.232-1.219,1.064-.007,1.064,0,1.064,1.1q0,15.87,0,31.739v1.043c.341,0,.577.019.808,0,.853-.083,1.7-.226,2.556-.263,2.057-.09,2.058-.071,2.06-2.117q0-23.3.01-46.6c0-1.725,0-1.68,1.432-1.73.765-.027.9.259.9.955-.027,4.619-.014,9.238-.012,13.858v.9c.915,0,1.724.009,2.534,0,1.175-.018,1.619-.484,1.62-1.684q0-8.294,0-16.588a13.247,13.247,0,0,0-.132-1.853,5.194,5.194,0,0,0-4.255-4.216,24.886,24.886,0,0,1-2.491-.639c-.723-.178-1.451-.35-2.185-.476a10.3,10.3,0,0,0-1.427-.1,33.017,33.017,0,0,0-4.775-.082,19.7,19.7,0,0,0-4.315.687c-1.414.488-2.948.638-4.237,1.494a4.441,4.441,0,0,0-2.152,3.586c-.121,3.129-.125,6.263-.153,9.4-.022,2.682-.017,5.362,0,8.043a4.2,4.2,0,0,0,.181,1.549,1.464,1.464,0,0,0,.93.823A27.15,27.15,0,0,0-744.87-158.767Z" transform="translate(788.461 224.863)" fill="#fff"/>
        <path id="Контур_608" data-name="Контур 608" d="M-746.056-197.773a8.491,8.491,0,0,1,1.137-5.124,8.669,8.669,0,0,1,2.35-2.514,7.88,7.88,0,0,1,6.139-1.381,7.625,7.625,0,0,1,3.763,1.78,7.816,7.816,0,0,1,2.89,5.086c.263,2.408.331,4.848-1.089,6.994A7.933,7.933,0,0,1-734.094-190a9.126,9.126,0,0,1-3.428,1.077,8.381,8.381,0,0,1-4.012-1.02,8.719,8.719,0,0,1-2.548-1.948,7.359,7.359,0,0,1-1.966-4.584A11.164,11.164,0,0,1-746.056-197.773Zm14.049-.1a5.928,5.928,0,0,0-.568-3.377,5.969,5.969,0,0,0-5.1-3.324,5.635,5.635,0,0,0-3.4,1.018,5.347,5.347,0,0,0-2.64,4.07,7.888,7.888,0,0,0,.518,4.769,5.2,5.2,0,0,0,3.315,2.96,13.906,13.906,0,0,0,2.88.27,4.257,4.257,0,0,0,3.031-1.333A5.768,5.768,0,0,0-732.008-197.876Z" transform="translate(790.387 225.678)" fill="#fff"/>
        <path id="Контур_609" data-name="Контур 609" d="M-701.462-173.635c-.639-.582-1.285-1.157-1.913-1.751-.528-.5-1.054-1-1.538-1.541a.6.6,0,0,1-.009-.589c.414-.447.887-.841,1.4-1.309.988,1.009,1.941,2,2.916,2.973.859.857,1.743,1.692,2.615,2.535a6.923,6.923,0,0,1,.843.847.621.621,0,0,1-.087.588q-2.993,3.069-6.036,6.09a.691.691,0,0,1-.635-.013,2.661,2.661,0,0,1-.581-.616c-.734-.872-.7-.841.206-1.695s1.771-1.809,2.711-2.777c-.248-.023-.491-.063-.735-.063q-6.212,0-12.422,0c-.908,0-.948-.041-.947-.924,0-.215.024-.432,0-.645-.061-.624.206-.834.83-.83,4.093.022,8.186.014,12.279.016h.918Z" transform="translate(791.768 226.954)" fill="#fff"/>
        <path id="Контур_610" data-name="Контур 610" d="M-762.937-145.472c1.37,0,2.7.012,4.022,0,1.634-.017,1.291.017,1.31,1.3.017,1.094,0,1.1-1.1,1.1-2.513,0-5.028-.013-7.541.007-.52,0-.738-.163-.736-.694.014-2.8.009-5.6.014-8.4a3.051,3.051,0,0,1,.041-.323h2.257v5.126c.532-.435.972-.741,1.348-1.111,1.177-1.164,2.332-2.349,3.492-3.529q1.491-1.518,2.975-3.043c.557-.57,1.127-1.129,1.673-1.71a.691.691,0,0,1,1.153,0,6.007,6.007,0,0,1,.747.8.618.618,0,0,1-.067.583q-2.423,2.512-4.889,4.985c-1.536,1.547-3.086,3.081-4.625,4.624C-762.9-145.729-762.895-145.645-762.937-145.472Z" transform="translate(789.437 227.943)" fill="#fff"/>
        <path id="Контур_611" data-name="Контур 611" d="M-711.214-147.3v-5.2h2.165c.016.249.045.5.046.752.007,2.585-.006,5.171.023,7.756.008.667-.18.931-.9.92-2.585-.04-5.171-.033-7.756-.01-.663.005-.872-.253-.866-.892.015-1.521-.006-1.517,1.536-1.509,1.232.006,2.464,0,3.7,0l.108-.208-10.037-9.69a11.916,11.916,0,0,0,1.03-1.147c.5-.755.863-.577,1.453.026.845.863,1.716,1.7,2.565,2.558,1.3,1.312,2.582,2.638,3.881,3.95.634.64,1.288,1.259,1.931,1.889.315.307.624.621.936.932Z" transform="translate(791.427 227.945)" fill="#fff"/>
        <path id="Контур_612" data-name="Контур 612" d="M-711.253-191.742v-5.1l-.183-.122c-3.306,3.3-6.611,6.606-10.09,10.083-.436-.527-.8-1.034-1.238-1.476-.246-.25-.262-.33,0-.592,2.241-2.212,4.459-4.448,6.682-6.677q1.384-1.388,2.763-2.783a3.471,3.471,0,0,0,.321-.519h-1.9c-.982,0-1.964-.013-2.944.008-.49.011-.672-.165-.663-.672.032-1.9-.187-1.618,1.576-1.626,2.394-.012,4.787.013,7.18-.015.55-.006.755.13.748.715q-.042,4.019,0,8.04c.006.617-.213.8-.792.744C-710.235-191.776-710.688-191.742-711.253-191.742Z" transform="translate(791.438 225.936)" fill="#fff"/>
        <path id="Контур_613" data-name="Контур 613" d="M-752.834-188.7l-1.553,1.692-10.258-10.235v5.451h-2.264v-9.391h9.314a16.983,16.983,0,0,1-.028,1.866c-.016.149-.378.364-.588.369-1.267.035-2.535.018-3.8.018h-.68l-.119.219Z" transform="translate(789.44 225.938)" fill="#fff"/>
        <path id="Контур_614" data-name="Контур 614" d="M-774.1-173.387h13.939c0,.651.009,1.243,0,1.836-.01.5-.406.376-.689.377q-3.914.013-7.827.008c-1.652,0-3.3,0-4.955,0a1.266,1.266,0,0,0-.718.2l3.883,3.652c-.575.617-1,1.117-1.48,1.552a.659.659,0,0,1-.621-.094c-1.336-1.3-2.646-2.616-3.96-3.934-.675-.676-1.361-1.343-1.995-2.056a.713.713,0,0,1,.007-.7c1.73-1.768,3.487-3.509,5.246-5.248.331-.328.7-.856,1.054-.861s.7.544,1.052.849c.178.156.354.313.6.529l-3.624,3.71Z" transform="translate(788.909 226.962)" fill="#fff"/>
      </g>
    </g>
  </g>
</svg>
