<svg xmlns="http://www.w3.org/2000/svg" width="186.561" height="186.561" viewBox="0 0 186.561 186.561">
  <g id="Сгруппировать_2098" data-name="Сгруппировать 2098" transform="translate(0)">
    <g id="Сгруппировать_801" data-name="Сгруппировать 801" transform="translate(0 0)">
      <path id="Контур_649" data-name="Контур 649" d="M-1774.371-310.241c52.19,0,93.746,42.718,93.284,94.329-.453,50.57-42.53,92.754-94.217,92.227-51.173-.522-93.033-42.833-92.331-94.367A93.306,93.306,0,0,1-1774.371-310.241Zm28.916,175.147a14.964,14.964,0,0,0,2.121-.5c1.566-.647,3.043-1.655,4.666-1.995,2.823-.593,3.02-2.391,3-4.746-.072-12.367-.037-24.734-.035-37.1,0-.789.007-1.581.082-2.365.033-.336.218-.922.383-.941a10.876,10.876,0,0,1,3.26-.053c.323.066.606,1.211.608,1.862q.054,18.078.024,36.154v3.115a6.972,6.972,0,0,0,1.431-.453c2.414-1.539,4.8-3.125,7.214-4.667a2.586,2.586,0,0,0,1.139-2.518q-.051-26.6-.025-53.2c0-3.157-.009-6.315.013-9.472,0-.451.1-1.27.246-1.29a14.033,14.033,0,0,1,3.542-.161c.272.032.6,1.111.6,1.709.042,7.579.028,15.156.032,22.735,0,4.174.006,4.174,4.153,4.113a3.042,3.042,0,0,0,3.342-3.283c.023-10.472.105-20.946-.047-31.417-.05-3.4-1.171-6.765-4.51-8.29a35.139,35.139,0,0,0-9.941-3.149c-9.115-1.15-18.24-1.2-27.023,2.223a8.524,8.524,0,0,0-5.687,6.67,38.148,38.148,0,0,0-.311,5.971c-.061,3.057-.032,3.02-3.093,2.938-1.017-.028-1.431-.4-1.412-1.4.043-2.262-.142-4.546.107-6.783.739-6.682,5-10.505,10.376-12.283a55.553,55.553,0,0,1,15.164-2.422c2.972-.124,5.964.341,8.949.393a35.268,35.268,0,0,1,13.118,2.867c5.293,2.226,8.395,6.394,8.494,12.163.192,11.2.074,22.416.037,33.627a5.831,5.831,0,0,1-3.788,5.77,17.756,17.756,0,0,1-6.009.58c-1.495,0-1.962.415-1.949,1.951.07,8.314.026,16.629.03,24.943,0,.658.061,1.314.1,2.1,22.221-18.253,39.494-56.553,23.728-97.081-8.256-21.224-23.044-36.889-43.6-46.781-19.533-9.4-39.982-11-60.8-5.346a84.435,84.435,0,0,0-43.683,28.375,85.051,85.051,0,0,0-19.976,54.3,85.784,85.784,0,0,0,18.76,55.334,75.032,75.032,0,0,0,14.675,14.436v-2.78q0-13.657,0-27.313a3.535,3.535,0,0,1,0-.473c.165-1.232-.348-1.718-1.6-1.629-1.1.079-2.225-.121-3.308.025-3.71.5-6.845-3.194-6.839-6.965.013-10.84-.021-21.681.062-32.522a13.975,13.975,0,0,1,.906-4.749c1.89-4.976,5.7-7.692,10.751-9.122a73.089,73.089,0,0,1,16.8-2.223c2.129-.095,4.278.44,6.425.523a36.641,36.641,0,0,1,12.949,2.921,13.664,13.664,0,0,1,7.6,8.083c1.082,2.829.769,5.7.783,8.568.015,3.154.688,2.845-2.935,2.907-1.228.021-1.532-.531-1.513-1.622a58.094,58.094,0,0,0-.051-6.153,8.57,8.57,0,0,0-5.3-7.558,37.128,37.128,0,0,0-12.5-2.94c-7.726-.279-15.387-.289-22.854,2.414-3.712,1.344-6.6,5.131-6.611,8.551q-.035,16.5.03,33a2.7,2.7,0,0,0,.753,1.749c1.72,1.656,3.887.85,5.837.655.306-.03.572-2.087.581-3.208.056-6.261.026-12.525.028-18.786,0-1.685-.035-3.37.034-5.052a1.745,1.745,0,0,1,.572-1.3,2.528,2.528,0,0,1,3.941,2.361c0,.42,0,.842,0,1.262q-.006,31.1-.034,62.2c0,1.675.2,2.974,1.888,3.864,2.52,1.328,4.914,2.894,7.776,4.6v-5.563q0-18.076.011-36.154c0-.6.121-1.673.342-1.717a10.9,10.9,0,0,1,3.531-.144c.278.04.565,1.206.567,1.854q.049,20.762.026,41.522a7.726,7.726,0,0,0,.042,1.573,1.372,1.372,0,0,0,.616.909c2.881,1.133,5.786,2.206,9.071,3.44v-4.627q-.006-22.341-.011-44.68c0-2.1,0-2.109,2.162-2.117,2.1-.008,4.208.005,6.312,0,2.255,0,3.234-.975,3.239-3.219.006-3.526.059-7.053-.023-10.576-.03-1.349.456-1.779,1.731-1.659.864.08,1.741.014,2.717.014,0,4.878.151,9.506-.059,14.118-.116,2.536-3.045,5.884-6.172,5.554-1.3-.137-2.632.055-3.94-.019-1.134-.063-1.517.459-1.5,1.484.01.526-.024,1.053-.024,1.579q-.006,20.76-.006,41.522a10.743,10.743,0,0,0,.088,2.514,2.253,2.253,0,0,0,1.107,1.449,22.683,22.683,0,0,0,4.7,1.206c3.49.428,7,.839,10.507.955,9.213.3,18.343-.321,27.251-2.969a1.786,1.786,0,0,0,1.561-2.033c-.05-14.629-.033-29.26-.04-43.889,0-.556-.072-1.112-.122-1.814a40.968,40.968,0,0,0-4.859.032c-3.481.432-6.655-3.172-6.708-6.3-.066-4.05-.012-8.1-.044-12.155-.008-.979.428-1.314,1.346-1.236a6.445,6.445,0,0,0,1.417,0c1.308-.176,1.765.389,1.75,1.671-.042,3.525.022,7.052-.01,10.576a2.765,2.765,0,0,0,1.328,2.776,4.447,4.447,0,0,0,1.942.411c2.765.042,5.528.017,8.458.017Z" transform="translate(1867.645 310.241)" fill="#fff"/>
      <path id="Контур_650" data-name="Контур 650" d="M-1746.6-264.4c-.1,4.373-1.253,8.221-4.254,11.43a14.449,14.449,0,0,1-13.317,4.716,14.44,14.44,0,0,1-10.626-6.79c-2.709-4.212-2.839-9-1.924-13.671,1.158-5.924,4.877-9.621,10.728-11.566,7.153-2.377,15.929,2.341,18.238,9.435A45.713,45.713,0,0,1-1746.6-264.4Zm-26,1.619c-.164,2.974,1.323,5.808,4,8.024a9.919,9.919,0,0,0,9.429,1.915,10.331,10.331,0,0,0,7.748-9.006c.872-5.842-1.014-12.816-8.66-14.3a11.45,11.45,0,0,0-10.374,3.862C-1772.549-269.62-1772.736-266.541-1772.6-262.778Z" transform="translate(1896.126 319.56)" fill="#fff"/>
      <path id="Контур_651" data-name="Контур 651" d="M-1806.175-264.438a15.6,15.6,0,0,1-3.975,11.491,15.246,15.246,0,0,1-8.387,4.655,13.841,13.841,0,0,1-6.984-.258,14.769,14.769,0,0,1-8.8-6.778c-1.966-3.324-2.224-6.921-2.132-10.63a14.379,14.379,0,0,1,5.428-11.346c3.75-2.987,8.043-4.475,12.987-3.136a15.372,15.372,0,0,1,8.492,5.28A15.728,15.728,0,0,1-1806.175-264.438Zm-4.47.248c0-6.837-2.663-10.476-9.02-11.92-3.927-.892-7.242.581-9.893,3.585-4.167,4.724-3.674,16.634,4.4,19.37,3.26,1.1,7.915.6,10.456-1.565A10.922,10.922,0,0,0-1810.645-264.191Z" transform="translate(1877.467 319.548)" fill="#fff"/>
      <path id="Контур_652" data-name="Контур 652" d="M-1819.387-226.645c1.156,1.241,2.26,2.535,3.479,3.712,2.581,2.5,2.6,2.468-.363,4.738-.139.107-.142.394-.267.781-2.461-2.4-4.594-4.46-6.706-6.542-1.3-1.279-2.51-2.65-3.861-3.865-.926-.83-.925-1.567-.131-2.37q4.911-4.965,9.848-9.9c.074-.072.135-.212.211-.22,1.651-.171,1.881,1.539,2.873,2.256.185.133.081,1.057-.183,1.356-1.14,1.289-2.4,2.47-3.594,3.712a18.351,18.351,0,0,0-1.1,1.474h23.162v4.368h-23.2Z" transform="translate(1880.191 332.448)" fill="#fff"/>
      <path id="Контур_653" data-name="Контур 653" d="M-1763.941-231.973l-5.317-5.5c.855-.953,1.646-1.9,2.532-2.758a1.111,1.111,0,0,1,1.052.12c3.759,3.5,7.484,7.044,11.386,10.737l-11.787,11.886-3.237-3.071,6.06-6.383c-1.378-.083-2.349-.188-3.317-.192-6.255-.026-12.51-.016-18.765-.065-.554-.005-1.548-.3-1.58-.549a13.748,13.748,0,0,1,.1-3.4c.017-.136.842-.238,1.293-.238,6.254-.017,12.51-.008,18.764-.018.831,0,1.663-.083,2.494-.127Z" transform="translate(1893.056 332.448)" fill="#fff"/>
      <path id="Контур_654" data-name="Контур 654" d="M-1793.957-233.482h4.881c-.192,1.408.032,3.03-.675,3.854a3.321,3.321,0,0,1-3.326.058C-1793.82-230.343-1793.674-231.976-1793.957-233.482Z" transform="translate(1890.859 334.62)" fill="#fff"/>
      <path id="Контур_655" data-name="Контур 655" d="M-1798-233.548c2.3,0,2.3,0,2.29,2-.013,2.189-.056,2.231-2.309,2.227s-2.239,0-2.231-2.389C-1800.24-233.551-1800.24-233.551-1798-233.548Z" transform="translate(1888.877 334.599)" fill="#fff"/>
    </g>
  </g>
</svg>
