<svg xmlns="http://www.w3.org/2000/svg" width="186.889" height="186.889" viewBox="0 0 186.889 186.889">
  <g id="Сгруппировать_2099" data-name="Сгруппировать 2099" transform="translate(11664.562 11250.479)">
    <g id="Сгруппировать_836" data-name="Сгруппировать 836" transform="translate(-11664.562 -11250.479)">
      <g id="Сгруппировать_836-2" data-name="Сгруппировать 836" transform="translate(0 0)">
        <g id="Сгруппировать_791" data-name="Сгруппировать 791">
          <path id="Контур_615" data-name="Контур 615" d="M-1978.211,319.412c-51.669.479-93.745-42.462-93.32-93.963a93.52,93.52,0,0,1,93.247-92.917c52.1-.125,94,42.458,93.637,94.373C-1885,277.493-1926.839,320.079-1978.211,319.412ZM-2065.323,226a87.3,87.3,0,0,0,87.55,87.337,87.148,87.148,0,0,0,86.942-87.613,87.294,87.294,0,0,0-87.583-86.938C-2026.574,138.943-2065.23,178.283-2065.323,226Z" transform="translate(2071.534 -132.531)" fill="#fff"/>
          <path id="Контур_616" data-name="Контур 616" d="M-1993.515,233.552c6.012-.24,11.772,1.153,17.364,2.93,6.59,2.093,10.533,9.2,8.533,15.294-1.368,4.172-4.665,5.933-8.682,6.678-2.254.419-4.524.767-6.79,1.117a67.8,67.8,0,0,1-20.869-.009c-2.677-.416-5.358-.836-8-1.436a9.635,9.635,0,0,1-7.377-12.523c1.685-5.484,5.326-8.516,10.8-9.665,2.1-.441,4.145-1.175,6.257-1.494C-1999.382,234.006-1996.44,233.836-1993.515,233.552Zm-1.461,4.333c-2.406.305-6.272.71-10.105,1.321a17.918,17.918,0,0,0-5.4,1.539,10.091,10.091,0,0,0-5.03,6.341c-.651,2.179.563,5.514,2.537,6.194a35.376,35.376,0,0,0,6.917,1.926,95.351,95.351,0,0,0,13.195.979c6.22-.088,12.474-.395,18.4-2.752a4.612,4.612,0,0,0,2.752-2.723c1.628-4.093-1.673-8.9-5.074-10.1C-1982.146,238.728-1987.8,238.026-1994.976,237.885Z" transform="translate(2088.046 -100.139)" fill="#fff"/>
          <path id="Контур_617" data-name="Контур 617" d="M-1958.092,218.128c-4.351-.626-8.712-1.194-13.05-1.9a57.493,57.493,0,0,1-7-1.553c-3.123-.923-5.9-4.707-6.047-7.946-.272-5.966,3.423-11.308,8.649-12.806a106.354,106.354,0,0,1,12.862-2.771c6.553-1.022,12.959.209,19.341,1.726a15.923,15.923,0,0,1,8.17,4.286c3.515,3.676,5.222,9.727,1.776,14.343a9.325,9.325,0,0,1-5.244,3.582,77.242,77.242,0,0,1-19.4,2.644Zm.792-22.859a51.538,51.538,0,0,0-14.95,1.812c-3.676.993-6.236,2.929-7.464,6.514-1.135,3.32.685,6.906,3.677,7.489,1.786.346,3.545.849,5.338,1.146,3.1.512,6.2,1.12,9.324,1.331a67.061,67.061,0,0,0,21.749-2.573,4.714,4.714,0,0,0,3.7-3.81c.8-4.818-2.48-8.681-6.633-9.875C-1947.553,195.867-1952.677,194.867-1957.3,195.269Z" transform="translate(2099.417 -113.849)" fill="#fff"/>
          <path id="Контур_618" data-name="Контур 618" d="M-2029,217.818c-3.524-.243-7.023-.251-10.44-.786a57.221,57.221,0,0,1-10.314-2.527,9.132,9.132,0,0,1-5.587-7.96c-.214-7.014,4.84-12.111,11.291-13.594,5.1-1.173,10.213-2.376,15.417-2.095,4.689.252,9.336,1.29,14,2a14.675,14.675,0,0,1,7.921,3.838c3.569,3.323,5.713,9.858,2.372,14.565a9.7,9.7,0,0,1-5.944,3.923c-2.378.556-4.763,1.083-7.146,1.622a8.6,8.6,0,0,1-1.234.268C-2022.123,217.335-2025.585,217.575-2029,217.818Zm-.387-3.867c3.218-.419,6.086-.72,8.929-1.181,2.931-.475,5.831-1.142,8.758-1.66,4.521-.8,5.63-4.44,4.386-7.777-1.3-3.5-3.862-5.42-7.5-6.289a51.382,51.382,0,0,0-10.851-1.772c-5.9-.129-11.73.067-17.495,1.738-3.389.981-6.088,2.512-7.367,5.807-1.244,3.213-1.219,6.064,2.608,7.911a21.505,21.505,0,0,0,5.908,1.4C-2037.725,212.816-2033.421,213.377-2029.386,213.951Z" transform="translate(2076.703 -113.837)" fill="#fff"/>
          <path id="Контур_619" data-name="Контур 619" d="M-1974.982,181.13a13.769,13.769,0,0,1,3.625-10.363c2.941-3.384,9.729-5.888,14.448-4.072,4.068,1.566,7.28,3.833,9.008,7.876,2.63,6.155,1.743,15.941-5.914,20.226a13.611,13.611,0,0,1-10.426,1.529c-6.393-1.776-10.954-6.9-10.742-14.35C-1974.978,181.818-1974.982,181.66-1974.982,181.13Zm24.088.269a10.049,10.049,0,0,0-4.809-9.623c-4.483-2.754-8.894-1.829-12.192,1.508-3.778,3.825-3.789,8.589-1.985,13.324,2.223,5.838,9.568,7.285,14.339,4.349C-1952,188.777-1950.67,185.4-1950.894,181.4Z" transform="translate(2102.345 -121.768)" fill="#fff"/>
          <path id="Контур_620" data-name="Контур 620" d="M-2031.933,196.939c-7.837.1-14.37-7.2-14.228-14.449.063-3.246.216-6.411,1.909-9.269a12.35,12.35,0,0,1,5.31-5.144,32.015,32.015,0,0,1,3.725-1.539c3.357-1.088,6.441-.2,9.552,1.207,7.809,3.534,9.394,13.073,6.982,19.688a12.913,12.913,0,0,1-8.322,8.239C-2028.613,196.2-2030.288,196.523-2031.933,196.939Zm-9.848-16.015c0,1.146-.029,1.938.006,2.726a8.656,8.656,0,0,0,5.1,7.684c5.371,2.619,12.125.615,14.154-5.694,1.381-4.294.756-10.955-4.43-13.989-4.586-2.681-9.353-1.317-12.513,2.1A8.457,8.457,0,0,0-2041.781,180.923Z" transform="translate(2079.635 -121.779)" fill="#fff"/>
          <path id="Контур_621" data-name="Контур 621" d="M-1982.255,224.185a15.085,15.085,0,0,1-2.946,9.776,14.661,14.661,0,0,1-14.2,5.123c-4.866-1.174-8.378-3.909-10.06-8.426a23.125,23.125,0,0,1-1.012-8.516,12.672,12.672,0,0,1,4.658-9.59,14,14,0,0,1,10.472-3.546,14.085,14.085,0,0,1,12.524,10.18A29.566,29.566,0,0,1-1982.255,224.185Zm-4.275-.016a9.887,9.887,0,0,0-4.158-9.223,9.652,9.652,0,0,0-13.822,2.319,12.038,12.038,0,0,0,2.262,16.081,9.156,9.156,0,0,0,10.439.758C-1987.912,231.939-1986.291,228.592-1986.529,224.169Z" transform="translate(2091.023 -108.016)" fill="#fff"/>
          <path id="Контур_622" data-name="Контур 622" d="M-1955.946,167.189c-.261.489-.438.851-.642,1.2-1.379,2.343-1.471,2.391-3.739.935a56.424,56.424,0,0,0-11.993-5.714,55.825,55.825,0,0,0-23.659-3.253,74.74,74.74,0,0,0-10.94,2.227,43.227,43.227,0,0,0-13.864,6.005c-.9.6-1.844,1.146-2.784,1.688-1.025.59-1.906.128-2.8-1.634-.347-.687-.49-1.443.531-1.976,3.987-2.079,7.768-4.672,11.937-6.251a83.672,83.672,0,0,1,13.967-3.582,51.56,51.56,0,0,1,21.619.81,59.711,59.711,0,0,1,9.49,2.688c3.693,1.552,7.145,3.678,10.695,5.571C-1957.4,166.285-1956.713,166.732-1955.946,167.189Z" transform="translate(2085.875 -124.991)" fill="#fff"/>
          <path id="Контур_623" data-name="Контур 623" d="M-2044.9,214.771c.217-.193.448-.553.759-.647a8.658,8.658,0,0,1,2.452-.469,1.491,1.491,0,0,1,1.052.913,53.648,53.648,0,0,0,5.914,13.411,55.516,55.516,0,0,0,13.9,15.628q2.711,2.07,5.573,3.937c.863.564.64,1.009.184,1.64-1.808,2.509-1.712,2.383-4.341.61A64.113,64.113,0,0,1-2030.871,240a51.079,51.079,0,0,1-8.752-12.292c-1.737-3.612-3.214-7.351-4.781-11.045A14.612,14.612,0,0,1-2044.9,214.771Z" transform="translate(2080.04 -106.512)" fill="#fff"/>
          <path id="Контур_624" data-name="Контур 624" d="M-1975.294,251.723c-.971-1.54-1.631-2.585-2.42-3.835,13.081-8.013,21.918-19.23,26.254-34.095a14.56,14.56,0,0,1,3.042.571,1.774,1.774,0,0,1,.687,1.589c-3.243,10.436-8.551,19.639-16.726,26.988C-1967.839,245.981-1971.522,248.685-1975.294,251.723Z" transform="translate(2101.489 -106.468)" fill="#fff"/>
        </g>
      </g>
    </g>
  </g>
</svg>
