<svg id="Сгруппировать_838" data-name="Сгруппировать 838" xmlns="http://www.w3.org/2000/svg" width="181.982" height="181.982" viewBox="0 0 181.982 181.982">
  <g id="Сгруппировать_793" data-name="Сгруппировать 793" transform="translate(0)">
    <path id="Контур_625" data-name="Контур 625" d="M-1776.669-90.218c50.823-.018,91.447,41.574,91.007,92-.428,49.219-41.374,90.477-91.892,89.977-49.886-.493-90.748-41.753-90.08-92.035A91.014,91.014,0,0,1-1776.669-90.218Zm-25.083,93.926.618-.316c.068-.855.19-1.71.2-2.566.027-3.44-.058-6.881.037-10.318.184-6.584,3.9-10.452,9.27-12.183a56.247,56.247,0,0,1,8.83-1.7,43.682,43.682,0,0,1,22.415,2.449,11.994,11.994,0,0,1,7.545,10.666c.029,4,.011,8.009.022,12.014,0,.537.059,1.073.111,1.946a11.251,11.251,0,0,0,1.672-1.128c3.522-3.587,7.155-7.081,10.488-10.841,4.453-5.025,10.133-5.482,16.094-4.547a13.4,13.4,0,0,1,5.686,2.758c3.213,2.462,4.359,6.052,4.365,10.011.017,10.934.037,21.87-.019,32.8a41.221,41.221,0,0,1-.57,6.719,15.717,15.717,0,0,1-5.195,8.945c-3.37,3.1-7.476,4.106-11.939,4.071-4.053-.031-8.106-.019-12.16,0-1.968.01-2.939.63-3.539,2.276q-1.281,3.512-2.475,7.055-2.911,8.606-5.782,17.227c-.442,1.325-.8,2.679-1.292,4.369A78.274,78.274,0,0,0-1731.791,72.9a73.985,73.985,0,0,0,20.229-17.941c-1.407.925-2.722,1.95-4.068,2.933a21.668,21.668,0,0,1-12.248,4.157c-4.766.164-9.543-.009-14.314.051-1.335.017-1.842-.433-1.821-1.764.033-1.882.092-1.945,1.964-2.041,6.014-.308,12.061.652,18.059-.816a19.1,19.1,0,0,0,9.576-5.837c4.064-4.361,5.46-9.674,5.412-15.588-.119-14.99-.047-29.98-.045-44.972,0-2.066.123-2.178,2.01-2.169s1.9.033,1.9,2.2c0,15.76.052,31.522-.061,47.281a22.911,22.911,0,0,1-1.319,7.041,75.336,75.336,0,0,1-3.3,7.385c26.622-31.9,25.736-86.594-13.966-118.5-18.379-14.769-39.7-20.644-63.042-17.89-22.232,2.622-40.588,12.951-55.122,30.016-24.657,28.952-26.08,73.668-3.945,102.868a29.356,29.356,0,0,1-2.6-13.043c.05-14.579.023-29.159.029-43.739,0-.871,0-1.747.071-2.614a1.246,1.246,0,0,1,.435-.879,2.044,2.044,0,0,1,3.166,1.844c.01.411.012.821.013,1.232,0,14.939-.015,29.879.032,44.818a22.745,22.745,0,0,0,.6,5.487c2.4,9.445,9.932,15.614,19.694,15.859,4.154.1,8.313.019,12.468.021h2.09v3.546c-.2.087-.286.167-.376.164-6.283-.144-12.574.6-18.859-.453a17.2,17.2,0,0,1-6.7-2.385c-1.553-1-3.183-1.884-5.149-3.037A84.8,84.8,0,0,0-1796.06,83.5c-.982-2.775-1.82-5.057-2.6-7.36-2.305-6.8-4.616-13.6-6.863-20.418-.78-2.371-1.831-3.254-4.334-3.251-4.105.006-8.21.032-12.314.009a15.636,15.636,0,0,1-8.255-1.857c-5.337-3.282-8.652-7.949-8.678-14.441-.052-12.474,0-24.95-.035-37.425a11.747,11.747,0,0,1,2.35-6.959c2.971-4.216,10.382-6.409,16-4.6a15.937,15.937,0,0,1,5.481,2.571c2.876,2.466,5.392,5.355,8.033,8.091C-1805.414-.2-1803.591,1.761-1801.752,3.708Zm4.6.616h6.225c.042-.6.106-1.154.113-1.7.023-1.746.069-3.492.021-5.235-.037-1.294.723-1.394,1.694-1.33.92.062,2.081-.329,2.064,1.276-.02,1.694.084,3.392-.008,5.081-.089,1.63.032,3.011,1.912,3.576.385.116.677.57.989.889a8.027,8.027,0,0,1,1.956,8.764,7.689,7.689,0,0,1-6.052,5.2,14.611,14.611,0,0,1-3.523.163c-7.622-.366-15.323.969-23.16-1.052,0,2.235-.018,4.478.005,6.722.023,2.34.569,2.887,2.922,2.9,3.643.026,7.285.006,10.929.032a9.171,9.171,0,0,1,2.75.2,14.57,14.57,0,0,1,10.346,11.76c.573,2.908,1.045,5.839,1.656,8.738,1.241,5.9,2.568,11.779,3.822,17.674,1.17,5.5,2.328,11,3.4,16.516.217,1.114.812,1.366,1.706,1.232.981-.146,2.389.673,2.718-1.124.293-1.606.624-3.206.953-4.805,1.123-5.454,2.239-10.907,3.382-16.356,1.29-6.149,2.561-12.3,3.932-18.435.6-2.667,1.016-5.49,2.229-7.881,2.526-4.981,6.688-7.736,12.511-7.551,2.717.086,5.439.013,8.159.012,4.731,0,4.751-.023,4.75-4.813,0-1.657,0-3.314,0-4.776a38.655,38.655,0,0,1-5.708.973c-6.411.112-12.825.051-19.239.039a8.184,8.184,0,0,1-8.135-6.29,8.4,8.4,0,0,1,4.1-9.2,1.665,1.665,0,0,0,1.039-1.77c0-2.156.008-4.313.018-6.468.008-1.73,1.319-1.151,2.231-1.241s1.577.08,1.536,1.284c-.067,1.948.024,3.9-.011,5.852-.018.906.265,1.3,1.23,1.26,1.583-.063,3.171-.018,4.784-.018a4.341,4.341,0,0,0,.245-.963c0-4.363.143-8.733-.062-13.087-.231-4.873-3.376-8-8.213-8.738-2.109-.32-4.179-1.055-6.291-1.169a74.769,74.769,0,0,0-11.17.01c-2.945.284-5.807,1.38-8.719,2.054a6.888,6.888,0,0,0-5.42,5.364,33.606,33.606,0,0,0-.6,6.83C-1797.221-2.114-1797.152,1.057-1797.152,4.324Zm26.353,80.984c.816,0,1.414.044,2-.009,1.531-.137,3.057-.336,4.589-.474,2.3-.207,2.375-.376,3.051-2.531,1.17-3.738,2.48-7.434,3.733-11.146,1.825-5.4,3.778-10.76,5.44-16.209,1.308-4.287,3.523-6.208,7.938-6.215,3.744-.005,7.491.039,11.235-.026a25.158,25.158,0,0,0,4.386-.459,12.619,12.619,0,0,0,10.041-12.188c.017-12.37-.046-24.742.031-37.111.026-4-3.939-8.244-8.087-8.064a29.807,29.807,0,0,1-3.846-.013,8.224,8.224,0,0,0-6.562,2.672c-3.846,3.779-7.414,7.841-11.221,11.661-1.981,1.989-4.321,3.413-7.362,3.282-2.714-.118-5.448.122-8.153-.072a4.641,4.641,0,0,0-4.562,4.3c.04,2.649,1.692,4.306,4.489,4.309,6.413.006,12.825-.023,19.239.015a6.477,6.477,0,0,0,4.917-2.075q3.594-3.685,7.237-7.325c2.333-2.341,2.341-2.333,4.455.288.056.069.049.19.1.42-1.959,2.037-3.947,4.144-5.987,6.2a3.658,3.658,0,0,0-1.272,2.8c.063,3.336-.024,6.673.024,10.009a5.973,5.973,0,0,1-6.054,6.12c-3.48-.178-6.976-.069-10.463-.014a9.729,9.729,0,0,0-3.774.436c-3.213,1.475-5.688,3.754-6.456,7.426-1.064,5.1-2.1,10.195-3.175,15.289-.684,3.249-1.415,6.488-2.1,9.738-.767,3.65-1.51,7.3-2.251,10.961C-1769.739,79.9-1770.243,82.5-1770.8,85.308Zm-12.043.094c-.313-1.313-.558-2.237-.751-3.172q-1.705-8.246-3.389-16.5c-1.271-6.2-2.493-12.421-3.821-18.613A40,40,0,0,0-1793,38.9a8.189,8.189,0,0,0-7.237-5.217c-4.146-.166-8.3-.349-12.445-.182a6.117,6.117,0,0,1-6.08-6.1c.12-3.435.071-6.878-.022-10.314a3.588,3.588,0,0,0-.887-2.119c-1.554-1.724-3.247-3.322-4.875-4.98-1.675-1.707-1.643-2.167.042-3.8a1.2,1.2,0,0,1,1.958.053c2.4,2.516,4.741,5.084,7.188,7.551,1.453,1.464,2.836,3.192,5.18,3.2,6.926.031,13.852.049,20.776,0a4.162,4.162,0,0,0,3.89-3.983A4.413,4.413,0,0,0-1790,8.454c-2.977-.014-5.951-.013-8.927-.012a7.235,7.235,0,0,1-5.211-2.069c-3.418-3.34-6.9-6.629-10.082-10.183-3.254-3.635-6.805-6.144-11.966-5.325-.954.15-2.053-.205-2.9.137-3.53,1.43-6.278,3.473-6.306,8.524q-.1,18.015,0,36.031a12.746,12.746,0,0,0,2.581,7.832,12.922,12.922,0,0,0,10.471,5.314c4.718.092,9.439.021,14.158.044a7.01,7.01,0,0,1,5.729,4.089q1.7,4.827,3.349,9.674c2.345,6.943,4.655,13.9,7.022,20.83.179.524.655,1.282,1.07,1.335C-1788.43,85-1785.836,85.155-1782.842,85.4Z" transform="translate(1867.641 90.218)" fill="#fff"/>
    <path id="Контур_626" data-name="Контур 626" d="M-1781.061-47.7a13.41,13.41,0,0,1-4.595,10.775,12.575,12.575,0,0,1-14.887,1.3,13.661,13.661,0,0,1-6.434-11.953c-.07-3.885.648-7.415,3.247-10.52A12.441,12.441,0,0,1-1788.8-61.6C-1783.253-58.871-1780.986-54.247-1781.061-47.7Zm-3.631-.685c-.373-1.722-.436-3.6-1.178-5.142a8.875,8.875,0,0,0-14.1-3.012c-3.844,3.223-3.949,11.892-1.192,15.289a9.074,9.074,0,0,0,14.473-.241A11.87,11.87,0,0,0-1784.692-48.38Z" transform="translate(1884.797 97.994)" fill="#fff"/>
    <path id="Контур_627" data-name="Контур 627" d="M-1815.412-40.4c.1,5.346-1.888,9.778-6.576,12.6a11.5,11.5,0,0,1-11.271.732c-5.131-2.41-7.753-6.513-8.024-12.165-.193-4.028.333-7.831,3.033-11.07a12.259,12.259,0,0,1,11.136-4.71C-1820.037-54.338-1815.075-48.175-1815.412-40.4Zm-22.035-.243c-.052,3.848.71,6.787,4.735,9.445a8.382,8.382,0,0,0,8.642.118c2.5-1.7,4.29-3.847,4.641-6.962.481-4.266.216-8.262-3.548-11.236-2.349-1.855-6.78-2.458-9.071-1.149C-1835.939-48.2-1837.738-44.9-1837.448-40.644Z" transform="translate(1875.086 100.177)" fill="#fff"/>
    <path id="Контур_628" data-name="Контур 628" d="M-1746.645-40.615c.15,5.445-1.832,9.915-6.525,12.739a11.539,11.539,0,0,1-8.74,1.64c-11.1-2.462-12.658-14.792-9.124-21.712,2.993-5.857,8.644-8.352,14.825-6.7a12.905,12.905,0,0,1,9.444,11.727C-1746.7-42.153-1746.683-41.383-1746.645-40.615Zm-3.608.067a29.971,29.971,0,0,0-.9-4.463,8.681,8.681,0,0,0-7.054-6.009,8.7,8.7,0,0,0-8.3,3.169c-3.423,3.831-3.56,13.25,2.532,16.707,2.538,1.44,6.191,1.712,8.559.148A10.672,10.672,0,0,0-1750.253-40.549Z" transform="translate(1894.486 100.161)" fill="#fff"/>
  </g>
</svg>
