<svg xmlns="http://www.w3.org/2000/svg" width="120" height="120" viewBox="0 0 120 120">
  <g id="Сгруппировать_842" data-name="Сгруппировать 842" transform="translate(-32 -115.478)">
    <path id="Контур_668" data-name="Контур 668" d="M60,0A60,60,0,1,1,0,60,60,60,0,0,1,60,0Z" transform="translate(32 115.478)" fill="#35ab35"/>
    <g id="Сгруппировать_838" data-name="Сгруппировать 838" transform="translate(39.728 123.205)">
      <g id="Сгруппировать_793" data-name="Сгруппировать 793" transform="translate(0)">
        <path id="Контур_625" data-name="Контур 625" d="M-1815.38-90.218A52.335,52.335,0,0,1-1763.1-37.365a52.482,52.482,0,0,1-52.79,51.69,52.4,52.4,0,0,1-51.749-52.872A52.286,52.286,0,0,1-1815.38-90.218Zm-14.41,53.958.355-.181c.039-.491.109-.982.113-1.474.016-1.976-.033-3.953.021-5.928a7.105,7.105,0,0,1,5.325-7,32.311,32.311,0,0,1,5.073-.974,25.094,25.094,0,0,1,12.877,1.407,6.89,6.89,0,0,1,4.334,6.127c.017,2.3.006,4.6.013,6.9,0,.308.034.616.064,1.118a6.469,6.469,0,0,0,.96-.648c2.023-2.061,4.111-4.068,6.025-6.228,2.558-2.887,5.821-3.149,9.246-2.612a7.7,7.7,0,0,1,3.267,1.585,6.838,6.838,0,0,1,2.508,5.751c.01,6.281.021,12.564-.011,18.845a23.677,23.677,0,0,1-.327,3.86,9.029,9.029,0,0,1-2.984,5.139,9.53,9.53,0,0,1-6.859,2.339c-2.328-.018-4.657-.011-6.986,0a1.828,1.828,0,0,0-2.033,1.307q-.736,2.017-1.422,4.053-1.672,4.944-3.322,9.9c-.254.761-.457,1.539-.742,2.51A44.966,44.966,0,0,0-1789.6,3.49a42.5,42.5,0,0,0,11.621-10.307c-.809.532-1.564,1.12-2.337,1.685a12.448,12.448,0,0,1-7.036,2.388c-2.738.094-5.482-.005-8.223.03-.767.01-1.058-.248-1.046-1.013.019-1.081.052-1.117,1.128-1.172,3.455-.177,6.929.375,10.375-.469a10.971,10.971,0,0,0,5.5-3.353,12.34,12.34,0,0,0,3.109-8.955c-.068-8.611-.027-17.223-.026-25.835,0-1.187.071-1.251,1.155-1.246s1.09.019,1.09,1.265c0,9.054.03,18.109-.035,27.162a13.167,13.167,0,0,1-.758,4.045,43.342,43.342,0,0,1-1.9,4.243c15.293-18.324,14.785-49.747-8.023-68.076A47.111,47.111,0,0,0-1821.214-86.4c-12.772,1.506-23.317,7.44-31.667,17.244-14.165,16.632-14.982,42.321-2.266,59.1a16.86,16.86,0,0,1-1.494-7.493c.029-8.376.013-16.751.017-25.127,0-.5,0-1,.041-1.5a.716.716,0,0,1,.25-.505,1.174,1.174,0,0,1,1.819,1.06c.005.236.007.472.008.708,0,8.582-.009,17.165.018,25.747a13.077,13.077,0,0,0,.342,3.152,11.661,11.661,0,0,0,11.314,9.111c2.386.06,4.775.011,7.162.012h1.2v2.037c-.112.05-.164.1-.216.094-3.61-.083-7.224.344-10.834-.26a9.882,9.882,0,0,1-3.846-1.37c-.892-.574-1.829-1.082-2.958-1.745a48.717,48.717,0,0,0,25.805,15.721c-.564-1.594-1.046-2.905-1.494-4.228-1.324-3.906-2.652-7.812-3.943-11.73a2.233,2.233,0,0,0-2.49-1.868c-2.358,0-4.717.018-7.074.005a8.983,8.983,0,0,1-4.742-1.067c-3.066-1.885-4.97-4.566-4.985-8.3-.03-7.166,0-14.333-.02-21.5a6.75,6.75,0,0,1,1.35-4c1.707-2.422,5.964-3.682,9.192-2.64a9.155,9.155,0,0,1,3.148,1.477c1.652,1.416,3.1,3.076,4.615,4.648C-1831.893-38.507-1830.846-37.378-1829.789-36.26Zm2.643.354h3.576c.024-.347.061-.663.065-.979.013-1,.04-2.006.012-3.008-.021-.743.416-.8.973-.764.528.035,1.2-.189,1.186.733-.011.973.049,1.949,0,2.919-.051.936.019,1.73,1.1,2.054.221.066.389.327.568.511a4.612,4.612,0,0,1,1.124,5.035,4.418,4.418,0,0,1-3.477,2.986,8.393,8.393,0,0,1-2.024.094c-4.378-.21-8.8.557-13.305-.6,0,1.284-.01,2.573,0,3.861.013,1.344.327,1.658,1.679,1.668,2.093.015,4.185,0,6.278.018a5.269,5.269,0,0,1,1.58.117,8.37,8.37,0,0,1,5.943,6.756c.329,1.671.6,3.354.952,5.02.713,3.388,1.475,6.767,2.2,10.153.672,3.159,1.337,6.319,1.956,9.488.125.64.466.785.98.708.564-.084,1.373.386,1.562-.646.169-.922.358-1.842.547-2.761.645-3.133,1.286-6.266,1.943-9.4.741-3.533,1.471-7.068,2.259-10.591a19.308,19.308,0,0,1,1.28-4.527,7.334,7.334,0,0,1,7.188-4.338c1.561.049,3.125.007,4.687.007,2.718,0,2.729-.013,2.729-2.765,0-.952,0-1.9,0-2.744a22.208,22.208,0,0,1-3.279.559c-3.683.064-7.368.029-11.052.022a4.7,4.7,0,0,1-4.673-3.614,4.826,4.826,0,0,1,2.358-5.285.957.957,0,0,0,.6-1.017c0-1.239,0-2.477.01-3.715,0-.994.758-.661,1.281-.713s.906.046.882.737c-.038,1.119.014,2.242-.007,3.362-.01.521.152.745.707.724.909-.036,1.822-.01,2.749-.01a2.5,2.5,0,0,0,.14-.553c0-2.506.082-5.017-.036-7.518a5.115,5.115,0,0,0-4.718-5.02c-1.211-.184-2.4-.606-3.614-.672a42.952,42.952,0,0,0-6.417.006,39.7,39.7,0,0,0-5.009,1.18,3.957,3.957,0,0,0-3.114,3.081,19.312,19.312,0,0,0-.345,3.923C-1827.186-39.6-1827.147-37.782-1827.147-35.906Zm15.139,46.524c.469,0,.812.025,1.15-.005.88-.079,1.756-.193,2.636-.272,1.319-.119,1.365-.216,1.752-1.454.672-2.147,1.425-4.271,2.145-6.4,1.049-3.1,2.17-6.181,3.125-9.312.751-2.463,2.024-3.567,4.56-3.57,2.151,0,4.3.022,6.454-.015a14.455,14.455,0,0,0,2.52-.264,7.249,7.249,0,0,0,5.768-7c.01-7.107-.027-14.214.018-21.32a4.864,4.864,0,0,0-4.646-4.633,17.123,17.123,0,0,1-2.209-.007,4.725,4.725,0,0,0-3.77,1.535c-2.209,2.171-4.259,4.5-6.446,6.7a5.508,5.508,0,0,1-4.229,1.885c-1.559-.068-3.13.07-4.684-.041a2.666,2.666,0,0,0-2.62,2.47,2.352,2.352,0,0,0,2.579,2.475c3.684,0,7.368-.013,11.052.009a3.721,3.721,0,0,0,2.824-1.192q2.065-2.117,4.157-4.208c1.34-1.345,1.345-1.34,2.559.165.032.04.028.109.059.241-1.125,1.17-2.268,2.381-3.439,3.564a2.1,2.1,0,0,0-.731,1.61c.036,1.916-.014,3.833.014,5.75a3.431,3.431,0,0,1-3.478,3.516c-2-.1-4.007-.04-6.011-.008a5.589,5.589,0,0,0-2.168.251,5.993,5.993,0,0,0-3.708,4.266c-.612,2.927-1.209,5.857-1.824,8.783-.393,1.866-.813,3.727-1.206,5.594-.441,2.1-.867,4.2-1.293,6.3C-1811.4,7.512-1811.688,9-1812.007,10.618Zm-6.918.054c-.18-.754-.321-1.285-.432-1.822q-.98-4.737-1.947-9.477c-.73-3.564-1.432-7.135-2.2-10.693a22.985,22.985,0,0,0-1.262-4.723,4.7,4.7,0,0,0-4.158-3c-2.382-.1-4.771-.2-7.149-.1a3.514,3.514,0,0,1-3.493-3.5c.069-1.973.041-3.951-.013-5.925a2.061,2.061,0,0,0-.509-1.217c-.893-.99-1.865-1.908-2.8-2.861-.962-.981-.944-1.245.024-2.184a.69.69,0,0,1,1.125.03c1.377,1.445,2.724,2.921,4.129,4.338.835.841,1.629,1.834,2.976,1.84,3.979.018,7.958.028,11.936,0a2.391,2.391,0,0,0,2.235-2.288,2.535,2.535,0,0,0-2.576-2.618c-1.71-.008-3.419-.007-5.128-.007a4.156,4.156,0,0,1-2.993-1.189c-1.963-1.919-3.964-3.808-5.792-5.85-1.869-2.088-3.909-3.53-6.874-3.059-.548.086-1.179-.118-1.664.079-2.028.821-3.607,2-3.623,4.9q-.059,10.349,0,20.7a7.322,7.322,0,0,0,1.483,4.5,7.423,7.423,0,0,0,6.015,3.053c2.71.053,5.423.012,8.134.025a4.027,4.027,0,0,1,3.291,2.349q.979,2.773,1.924,5.557c1.347,3.988,2.674,7.983,4.034,11.966.1.3.376.737.615.767C-1822.136,10.441-1820.646,10.53-1818.926,10.672Z" transform="translate(1867.641 90.218)" fill="#fff"/>
        <path id="Контур_626" data-name="Контур 626" d="M-1792.09-54.118a7.7,7.7,0,0,1-2.64,6.19,7.224,7.224,0,0,1-8.552.748,7.848,7.848,0,0,1-3.7-6.867,8.647,8.647,0,0,1,1.865-6.043,7.147,7.147,0,0,1,8.575-2.014C-1793.35-60.538-1792.047-57.882-1792.09-54.118Zm-2.086-.394a13.415,13.415,0,0,0-.677-2.954,5.1,5.1,0,0,0-8.1-1.731c-2.208,1.851-2.269,6.832-.685,8.783a5.213,5.213,0,0,0,8.314-.139A6.819,6.819,0,0,0-1794.177-54.511Z" transform="translate(1851.685 83.014)" fill="#fff"/>
        <path id="Контур_627" data-name="Контур 627" d="M-1826.436-46.652a7.722,7.722,0,0,1-3.778,7.236,6.609,6.609,0,0,1-6.475.42,7.591,7.591,0,0,1-4.61-6.989,8.739,8.739,0,0,1,1.742-6.36,7.043,7.043,0,0,1,6.4-2.706C-1829.093-54.658-1826.242-51.117-1826.436-46.652Zm-12.659-.139a5.554,5.554,0,0,0,2.72,5.426,4.815,4.815,0,0,0,4.965.068,5.5,5.5,0,0,0,2.666-4c.276-2.451.124-4.746-2.038-6.455a5.443,5.443,0,0,0-5.211-.66A5.648,5.648,0,0,0-1839.1-46.791Z" transform="translate(1860.718 80.992)" fill="#fff"/>
        <path id="Контур_628" data-name="Контур 628" d="M-1757.741-46.8a7.718,7.718,0,0,1-3.749,7.318,6.629,6.629,0,0,1-5.021.942c-6.378-1.414-7.272-8.5-5.241-12.473a7.09,7.09,0,0,1,8.516-3.847,7.414,7.414,0,0,1,5.426,6.737C-1757.773-47.682-1757.763-47.24-1757.741-46.8Zm-2.073.038a17.219,17.219,0,0,0-.519-2.564,4.987,4.987,0,0,0-4.052-3.452,5,5,0,0,0-4.767,1.821c-1.967,2.2-2.045,7.612,1.455,9.6a5,5,0,0,0,4.917.085A6.131,6.131,0,0,0-1759.814-46.76Z" transform="translate(1842.673 81.006)" fill="#fff"/>
      </g>
    </g>
  </g>
</svg>
