<svg xmlns="http://www.w3.org/2000/svg" width="186.437" height="186.437" viewBox="0 0 186.437 186.437">
  <g id="Сгруппировать_2097" data-name="Сгруппировать 2097" transform="translate(8392.665 16470.52)">
    <g id="Сгруппировать_796" data-name="Сгруппировать 796" transform="translate(-8392.665 -16470.52)">
      <g id="Сгруппировать_795" data-name="Сгруппировать 795" transform="translate(0 0)">
        <path id="Контур_629" data-name="Контур 629" d="M-1570.288-90.221c52.2.025,93.739,42.816,93.171,94.485-.554,50.291-42.528,92.732-94.69,91.941-50.635-.769-92.447-42.753-91.732-94.342A93.235,93.235,0,0,1-1570.288-90.221Zm72.279,140.751.519.191c1.572-2.7,3.281-5.321,4.694-8.1a88.128,88.128,0,0,0,9.455-35.508,84.5,84.5,0,0,0-5.974-36.006c-12.878-32.493-44.983-55.727-82.1-55.081a85.36,85.36,0,0,0-55.533,20.98,84.768,84.768,0,0,0-28.517,48.083,85.6,85.6,0,0,0,3.117,46.949,64.381,64.381,0,0,0,8.92,17.538,6.483,6.483,0,0,0,.376-2.185c.021-7.521-.037-15.042.076-22.56a18.827,18.827,0,0,1,.94-5.841,11.085,11.085,0,0,1,7.406-7.245,50.909,50.909,0,0,1,6.15-1.666,70.8,70.8,0,0,1,10.068-1.37,51.866,51.866,0,0,1,15.658,1.991c2.754.768,2.891.848,1.786,3.4a1.716,1.716,0,0,1-1.378.8c-1.345-.118-2.669-.479-4-.718a79.093,79.093,0,0,0-7.861-1.332,51.579,51.579,0,0,0-17.535,2.051,9.242,9.242,0,0,0-7.073,9.117c.183,7.99.048,15.987.05,23.981,0,1.841,0,3.68.016,5.521a1.865,1.865,0,0,0,1.688,2.076c1.55.137,3.119.034,4.871.034v-2.68c0-6.68-.045-13.359.017-20.037.032-3.395-.886-3.452,3.555-3.181.091.005.177.092.421.229V32.2c0,10.938.05,21.878-.052,32.816-.02,2.066.38,3.6,2.142,4.822,2.182,1.511,4.238,3.2,6.643,5.044.063-1.3.131-2.076.134-2.853.017-4.26.064-8.52,0-12.779-.025-1.742.987-1.717,2.252-1.754,1.337-.039,1.864.359,1.848,1.778-.062,5.311.024,10.624-.04,15.935-.017,1.46.138,2.59,1.639,3.3,2.311,1.094,4.549,2.339,7.139,3.687.089-1.354.2-2.23.2-3.106q.018-23.113.011-46.227c0-3.584-.008-3.584,3.6-3.122.094.012.176.1.52.308v3.124c0,16.2.024,32.4-.031,48.594-.005,1.666.4,2.563,2.126,2.989,2.153.531,4.205,1.466,6.344,2.068,2.648.744,5.342,1.327,8.308,2.051V86.567q0-15.7,0-31.4c0-3.48,0-3.6-3.532-3.465a7.156,7.156,0,0,1-7.513-7.538c.142-8.413,0-16.829.067-25.243a33.394,33.394,0,0,1,.63-6.853,11.376,11.376,0,0,1,6.464-8.05c3.576-1.726,7.421-2.355,11.321-2.961A47.814,47.814,0,0,1-1551.933,4a10.5,10.5,0,0,1,6.9,9.75c.238,10.565.16,21.138.116,31.708a6.258,6.258,0,0,1-6.352,6.207c-1.341.042-2.684.008-4.05.008V88.936c2.34-.6,4.512-1.148,6.678-1.713s4.342-1.07,6.472-1.734c3.282-1.022,3.268-1.07,3.268-4.6q0-24.06-.007-48.122a11.776,11.776,0,0,1,.082-2.2,1.272,1.272,0,0,1,.807-.86,32.588,32.588,0,0,1,3.318-.041V82.541c2.811-1.49,5.216-2.765,7.622-4.037a2.088,2.088,0,0,0,1.062-2.154c-.04-5.68.029-11.36-.041-17.039-.023-1.883,1.127-1.733,2.386-1.815,1.414-.091,1.791.475,1.77,1.828-.069,4.469-.033,8.941-.016,13.41,0,.692.12,1.383.225,2.519,2.4-1.813,4.413-3.412,6.507-4.9a5,5,0,0,0,2.166-4.643c-.112-10.306-.051-20.614-.048-30.923a35.711,35.711,0,0,1,.071-3.938,1.641,1.641,0,0,1,1.048-1.129,18.012,18.012,0,0,1,3.072-.054V55.649c1.428,0,2.677.007,3.926,0,2.065-.012,2.83-.76,2.831-2.826.006-9.781.06-19.564-.034-29.345a8.194,8.194,0,0,0-4.906-7.588c-3.365-1.644-7.065-2.064-10.736-2.655-6.725-1.081-13.26-.2-19.735,1.482-1.547.4-2.344.222-2.872-1.374-.521-1.577-.279-2.223,1.4-2.543a27.589,27.589,0,0,0,3.839-.736c3.486-1.206,7.135-1.227,10.708-1.341a51.792,51.792,0,0,1,16.1,2.193,13.878,13.878,0,0,1,7.495,4.755A14.549,14.549,0,0,1-1498,24.892c-.04,7.888-.009,15.777-.008,23.666Zm-70.371,39.579c2-.168,3.71-.277,5.416-.464,3.5-.385,3.307.35,3.313-3.515q.043-31.083.03-62.166V21.347h4.156V23.81c0,6.837-.027,13.675.026,20.511.027,3.557-.7,3.171,3.312,3.224,2.467.033,3.217-.711,3.224-3.181.026-9.625.078-19.25,0-28.873-.028-3.5-1.522-6.377-4.877-7.8a27.207,27.207,0,0,0-6.65-2,72.114,72.114,0,0,0-12.812-1.1c-3.862.15-7.69,1.332-11.521,2.116-4.834.989-7.55,4.749-7.531,9.543.035,8.836.116,17.673-.032,26.506-.084,5.025,1.485,4.845,5.038,4.826,1.389-.009,1.922-.4,1.906-1.9-.074-7.52-.036-15.041-.037-22.562V21.281c.552-.029.862-.058,1.174-.059,3.341-.011,2.887-.26,2.89,2.82q.019,30.768.006,61.534a13.807,13.807,0,0,0,.073,2.672,1.69,1.69,0,0,0,1.044,1.133c1.864.3,3.75.479,5.637.6,1.944.129,2.085-.041,2.086-1.953q.008-9.7,0-19.407c0-5.891-.014-11.781.013-17.671,0-.519.11-1.3.451-1.513a2.351,2.351,0,0,1,3.653,1.982q.007,17.749,0,35.5Zm59.871-26.412c1.315-1.282,2.562-2.5,3.9-3.8C-1509.12,59.445-1509.9,60.239-1508.509,63.7Zm-123.682-3.784h-3.586l-.293.444,3.719,3.173Z" transform="translate(1663.549 90.221)" fill="#fff"/>
        <path id="Контур_630" data-name="Контур 630" d="M-1557.924-52.424a13.809,13.809,0,0,1-6.776,12.961A12.944,12.944,0,0,1-1575.064-38a12.849,12.849,0,0,1-9.567-8.48c-2.43-6.964-1.369-15.2,6.3-19.526a13.073,13.073,0,0,1,10.74-.955A14.1,14.1,0,0,1-1557.924-52.424Zm-4.113-.358a9.29,9.29,0,0,0-2.693-7.75,9.468,9.468,0,0,0-12.559-1.383c-5.942,3.949-5.649,14.525-.368,18.29,2.566,1.828,5.508,2.651,8.428,1.671C-1564.624-43.5-1561.726-46.9-1562.037-52.782Z" transform="translate(1688.126 97.319)" fill="#fff"/>
        <path id="Контур_631" data-name="Контур 631" d="M-1540.182-24.386a13.864,13.864,0,0,1-4.972,11.677,9.012,9.012,0,0,1-5.215,2.572c-1.693.124-3.416.777-5.05.579-5.832-.709-10.234-3.841-11.75-9.514s-1.406-11.441,3.131-16.157a13.326,13.326,0,0,1,10.958-4.2A13.841,13.841,0,0,1-1540.182-24.386Zm-3.893.054a26.924,26.924,0,0,0-.877-4.744,9.614,9.614,0,0,0-15.75-3.657,11.335,11.335,0,0,0,3.969,18.662c3.036,1.206,5.815.394,8.266-1.307A10.072,10.072,0,0,0-1544.075-24.332Z" transform="translate(1693.736 106.201)" fill="#fff"/>
        <path id="Контур_632" data-name="Контур 632" d="M-1575.477-30.808c-.124,4.116-1.133,7.771-4.112,10.846a13.282,13.282,0,0,1-10.339,4.152,12.922,12.922,0,0,1-11.475-6.743c-3.462-5.959-3.025-15.579,3.5-20.486a13.491,13.491,0,0,1,11.411-2.288c5.584,1.193,8.65,4.648,10.312,9.705A27.061,27.061,0,0,1-1575.477-30.808Zm-23.8-.195a9.873,9.873,0,0,0,8.194,10.969,9.624,9.624,0,0,0,9.792-4.3,11.4,11.4,0,0,0-5.839-17,8.336,8.336,0,0,0-7.737,1.27A9.6,9.6,0,0,0-1599.281-31Z" transform="translate(1682.515 104.238)" fill="#fff"/>
        <path id="Контур_633" data-name="Контур 633" d="M-1610.765-24.548c-.248,4.365-1.442,8.135-4.62,11.126a13.237,13.237,0,0,1-12.773,3.454c-5.368-1.193-8.476-4.547-10.1-9.482a19.258,19.258,0,0,1-.583-5.12,13.855,13.855,0,0,1,6.327-12.8,13.053,13.053,0,0,1,8.5-2.077,13.2,13.2,0,0,1,11.565,7.988C-1611.475-29.344-1611.3-26.861-1610.765-24.548Zm-4.367.047a19.341,19.341,0,0,0-.667-4.471c-2.377-5.95-9.031-8.4-14.611-4.791-4.619,2.985-5.229,8.36-3.693,13.768.878,3.093,3.191,5.02,6.446,5.958a9.292,9.292,0,0,0,8.415-1.452C-1616.2-17.66-1615.053-20.8-1615.133-24.5Z" transform="translate(1671.353 106.193)" fill="#fff"/>
        <path id="Контур_634" data-name="Контур 634" d="M-1593.417-53.636c0,3.452-.172,6.808-2.227,9.8a13.907,13.907,0,0,1-14.912,5.8c-6.972-1.683-10.813-8.32-10.642-14.416.113-4.027.981-7.641,3.674-10.678,3.3-3.724,9.719-5.6,14.569-3.77a13.952,13.952,0,0,1,8.916,9.086A23.49,23.49,0,0,1-1593.417-53.636Zm-4.082,1.1a9.96,9.96,0,0,0-6.635-10.531,9.213,9.213,0,0,0-9.035,1.5c-3.227,2.481-3.941,5.972-3.907,9.908.064,7.482,8.023,12.586,14.76,8.6C-1598.728-45.176-1597.361-48.485-1597.5-52.532Z" transform="translate(1676.933 97.341)" fill="#fff"/>
      </g>
    </g>
  </g>
</svg>
