<svg xmlns="http://www.w3.org/2000/svg" width="187.889" height="187.889" viewBox="0 0 187.889 187.889">
  <g id="Сгруппировать_2086" data-name="Сгруппировать 2086" transform="translate(8862.56 15605.886)">
    <g id="Сгруппировать_835" data-name="Сгруппировать 835" transform="translate(-8862.56 -15605.886)">
      <g id="Сгруппировать_798" data-name="Сгруппировать 798" transform="translate(0 0)">
        <g id="Сгруппировать_797" data-name="Сгруппировать 797" transform="translate(0)">
          <path id="Контур_635" data-name="Контур 635" d="M-1977.6-90.226c52.649,0,94.588,43.175,93.943,95.329-.627,50.737-42.923,93.16-95.042,92.553-51.464-.6-93.62-43.258-92.829-95.193A93.976,93.976,0,0,1-1977.6-90.226Zm59.861,157.731c21.118-18.6,37.241-56.234,21.78-95.813-13.074-33.468-47.492-60.467-93.233-54.943-33.539,4.052-68.28,29.657-75.183,74.608-3.068,19.978.918,38.979,11.013,56.552A68.854,68.854,0,0,0-2042.1,62.877V45.321c-1.5,0-2.874.1-4.23-.019-3.33-.29-6.131-2.657-6.157-5.989-.073-9.8-.179-19.611.044-29.409a11.14,11.14,0,0,1,6.619-10.056c5.1-2.482,10.723-3.038,16.276-3.445,2.97-.217,5.992.348,8.993.506A43.767,43.767,0,0,1-2009.513-.67c4.54,1.454,7.919,6.945,7.9,10.979-.043,9.591,0,19.184-.032,28.776a5.671,5.671,0,0,1-.438,2.124c-1.215,2.885-3.512,4.118-6.559,4.117-1.139,0-2.277,0-3.576,0v2.825c0,11.394.05,22.788-.047,34.182a2.757,2.757,0,0,0,2.106,2.948c2.957,1.04,5.922,2.1,8.956,2.87,3.716.942,7.482,1.729,11.267,2.347a83.91,83.91,0,0,0,23.417.261,30.142,30.142,0,0,0,4.407-.457c4.9-1.342,9.827-2.669,14.625-4.337,3.72-1.293,7.285-3.048,10.868-4.711a2.238,2.238,0,0,0,1.02-1.688q.091-15.817.008-31.637a2.149,2.149,0,0,0-.836-1.508c-5.094-3.476-10.254-6.857-15.339-10.347-1.257-.863-2.692-1.7-2.859-3.531a4.029,4.029,0,0,1,1.778-3.825,4.241,4.241,0,0,1,4.53-.136c3.27,1.758,6.472,3.648,9.692,5.5,2.778,1.6,5.5,3.082,8.968,2.707,2.826-.306,5.714-.024,8.573-.089a5.773,5.773,0,0,0,2.378-.553c2.331-1.166,4.621-2.418,6.895-3.692,2.242-1.255,4.421-2.624,6.678-3.851a4.432,4.432,0,0,1,5.773,1.253c1.278,2.147.9,3.784-1.373,5.479-1.211.9-2.505,1.7-3.751,2.557-4.006,2.771-7.968,5.612-12.042,8.278a2.326,2.326,0,0,0-1.224,2.279c.029,5.617.013,11.235.013,16.852Zm-94.481-26.319c1.393,0,2.494,0,3.593,0,2.4-.009,2.869-.464,2.872-2.854.006-9.061-.155-18.124.067-27.178.121-5.039-4.039-8.372-7.856-9.038-2.065-.362-4.131-.735-6.172-1.21a32.112,32.112,0,0,0-11.661-.473c-3.221.437-6.416,1.109-9.6,1.8-4.576.992-7.659,4.524-7.463,9.356.166,4.125.027,8.263.027,12.4,0,4.875.021,9.748-.007,14.623-.006,1.174.362,2.295,1.476,2.477a31.768,31.768,0,0,0,4.968.065V38.221c0-6.253-.009-12.5.01-18.756.006-1.888.925-3.24,2.12-3.27,1.281-.032,2,1.091,2,3.209q.008,22.966-.016,45.935a3.794,3.794,0,0,0,1.7,3.616c1.287.864,2.3,2.129,3.516,3.111.988.794,2.1,1.428,3.427,2.311.064-1.126.146-1.9.148-2.674q.014-11.921.008-23.842a7.612,7.612,0,0,1,.1-2.675c.325-.81,1.082-1.817,1.812-1.972.541-.115,1.52.881,1.971,1.594a4.362,4.362,0,0,1,.249,2.17c.015,8.8.113,17.591-.045,26.384-.053,2.934.218,5.295,3.5,6.154.127.034.193.265.324.334,1.475.77,2.956,1.526,4.823,2.486V79.03q0-18.439,0-36.876,0-11.6.014-23.206c0-1.655.854-2.74,2.026-2.723,1.062.016,1.944,1.129,2.055,2.612.024.315,0,.635,0,.953q.006,9.3.012,18.6C-2012.216,39.229-2012.218,40.069-2012.218,41.186Zm86.894,32.852c1.2-.86,2.017-1.481,2.872-2.049a4.895,4.895,0,0,0,2.188-4.688c-.14-6.513.031-13.031-.109-19.543a3.866,3.866,0,0,1,2.119-3.674c.7-.445,1.412-.868,2.1-1.328q6.94-4.631,13.871-9.278c.756-.506,1.472-1.242.735-2.046-.428-.469-1.435-.472-2.193-.545-.309-.03-.661.3-.982.478-3.367,1.912-6.741,3.812-10.1,5.747-2.528,1.458-5.094,2.506-8.154,2.178-2.3-.245-4.653-.038-6.983-.052-2.439-.015-4.78.131-7.061-1.428a105.285,105.285,0,0,0-9.309-5.149,17.647,17.647,0,0,0-3.191-1.7,2.677,2.677,0,0,0-2.322.494c-.646.739-.024,1.544.808,2.033.987.578,1.972,1.165,2.92,1.8,4.45,2.995,8.869,6.033,13.339,9a3.656,3.656,0,0,1,1.834,3.47c-.091,9.744-.045,19.491-.04,29.237,0,.606.052,1.212.095,2.184,1.472-.935,2.624-1.729,3.836-2.414a1.971,1.971,0,0,0,1.158-1.988c-.065-4.342-.03-8.686-.03-13.029,0-2.124.339-2.361,2.6-1.626Z" transform="translate(2071.536 90.226)" fill="#fff"/>
          <path id="Контур_636" data-name="Контур 636" d="M-1992.635-65.693c7.255,0,14.511-.024,21.766.008,4.529.021,8.55,2.221,9.879,6.929a7.649,7.649,0,0,1,.3,2.018c.02,8.425-.053,16.851.049,25.274.039,3.144-3.167,8.018-7.106,8.474a43.134,43.134,0,0,1-4.683.482q-13.823.068-27.643,0a3.343,3.343,0,0,0-2.881,1.216c-2.968,3.575-5.948,7.141-9.015,10.631a4.194,4.194,0,0,1-2.32,1.246c-1.228.2-1.768-.641-1.764-1.858.01-3.232-.077-6.466.025-9.7a1.726,1.726,0,0,0-1.562-1.981c-4.34-.909-7.159-5.62-7.068-9.216.2-7.942.145-15.894.033-23.84-.078-5.565,4.119-9.516,9.588-9.632,7.465-.158,14.934-.04,22.4-.04Zm-19.426,48.154.521.2c2.028-2.381,4.068-4.752,6.077-7.147a5.049,5.049,0,0,1,4.236-2.144c10.434.113,20.87.058,31.306.048a5.168,5.168,0,0,0,5.111-5.044c.014-8.214-.112-16.431.071-24.642a5.676,5.676,0,0,0-5.379-5.422c-14.99.038-29.981.013-44.97.007a5.4,5.4,0,0,0-5.439,5.354c.049,8.162-.017,16.323.025,24.484a5.2,5.2,0,0,0,5.438,5.271c2.345.019,2.977.641,3,3.021C-2012.046-21.55-2012.061-19.544-2012.061-17.539Z" transform="translate(2086.832 98.191)" fill="#fff"/>
          <path id="Контур_637" data-name="Контур 637" d="M-1950.647-4.305q0-3.162,0-6.326c0-2.14.734-2.96,2.914-2.968,2.635-.009,4.448-1.109,5.289-3.64a6.077,6.077,0,0,0,.312-1.844c.023-7.84-.065-15.682.065-23.52a6.184,6.184,0,0,0-6.373-6.286c-4.606-.037-9.214-.012-13.82-.02-.416,0-.831-.049-1.365-.082v-3.378a10.988,10.988,0,0,1,1.255-.142c4.977-.011,9.955-.056,14.931.007a8.912,8.912,0,0,1,8.355,5.148,9.692,9.692,0,0,1,1,4.094c.094,8.1.057,16.209.052,24.315a9.391,9.391,0,0,1-7.281,9.09c-1.028.2-1.262.639-1.249,1.583.044,3.126,0,6.252.024,9.376.012,1.167-.245,2.308-1.494,2.41a3.5,3.5,0,0,1-2.565-.942q-4.906-5.48-9.552-11.19c-.918-1.128-2-1-3.13-1-9.637-.008-19.274-.033-28.909.019-4.149.021-7.491-1.585-8.924-5.438-.9-2.412-.782-5.272-.744-7.926.02-1.363,1.53-.595,2.366-.738.77-.133,1.359.16,1.371,1.092.01,1.006.02,2.011.057,3.017.154,4.252,1.94,5.968,6.213,5.968,10.059,0,20.12.028,30.18-.028a4.95,4.95,0,0,1,4.291,2.116c2,2.548,4.215,4.925,6.338,7.375Z" transform="translate(2094.263 102.477)" fill="#fff"/>
          <path id="Контур_638" data-name="Контур 638" d="M-2048.127-33.973a11.674,11.674,0,0,1,2.735-9.184,13.2,13.2,0,0,1,9.881-4.87c5.034-.2,9.115,1.414,11.984,5.475a14.252,14.252,0,0,1,2.322,5.759c.863,5.294-.064,10.224-4.319,13.982a9.414,9.414,0,0,1-5.237,2.658c-1.707.18-3.46.983-5.081.745C-2043.429-20.528-2048.792-25.785-2048.127-33.973Zm13.489,10.57c5.289-.029,9.692-4.051,9.679-10.374-.013-6.515-4.385-10.573-9.715-10.539-5.362.032-10.093,3.9-9.7,11.529A9.569,9.569,0,0,0-2034.638-23.4Z" transform="translate(2079.148 103.937)" fill="#fff"/>
          <path id="Контур_639" data-name="Контур 639" d="M-1960.262,8.687c-5.537.55-8.531-4.435-8.32-8.985a8.5,8.5,0,0,1,8.65-8.178c4.2.264,8.344,3.454,8.011,9.463A7.758,7.758,0,0,1-1960.262,8.687Zm5.709-8.35a5.8,5.8,0,0,0-5.682-6.264A5.88,5.88,0,0,0-1965.959.33c.131,3.59,2.462,6.281,5.71,6.294C-1957.031,6.637-1954.549,3.9-1954.553.336Z" transform="translate(2105.125 116.794)" fill="#fff"/>
          <path id="Контур_640" data-name="Контур 640" d="M-1976.145-48.9c-5.4,0-10.532-.046-15.66.023a5.652,5.652,0,0,0-5.027,2.418,8.331,8.331,0,0,0-1.14,3.637,64.071,64.071,0,0,0-.065,7.143c.056,1.6-.885,1.634-2.032,1.639-1.1.005-1.962-.076-1.918-1.566.083-2.751.054-5.506.051-8.258a8.915,8.915,0,0,1,8.6-8.6c5.288-.164,10.584-.029,15.877-.068.994-.008,1.313.458,1.318,1.329C-1976.142-50.52-1976.145-49.84-1976.145-48.9Z" transform="translate(2094.229 102.475)" fill="#fff"/>
        </g>
      </g>
    </g>
  </g>
</svg>
