<svg xmlns="http://www.w3.org/2000/svg" width="184.246" height="184.256" viewBox="0 0 184.246 184.256">
  <g id="Сгруппировать_789" data-name="Сгруппировать 789" transform="translate(0 0)">
    <path id="Контур_607" data-name="Контур 607" d="M-788.461-132.732a92.131,92.131,0,0,1,92.511-92.13A92.148,92.148,0,0,1-604.215-133,92.167,92.167,0,0,1-696.77-40.608C-747.616-40.835-788.582-82.322-788.461-132.732Zm76.641,28.869c-1.135,0-2.274.061-3.4-.018a12.58,12.58,0,0,1-2.926-.483A6.712,6.712,0,0,1-723.016-111c-.005-10.337-.026-20.672.026-31.008a14.07,14.07,0,0,1,.627-4.092c1.669-5.3,5.688-8.157,10.773-9.522a52.259,52.259,0,0,1,9.782-1.662,103.877,103.877,0,0,1,11.856-.007,62.3,62.3,0,0,1,6.447,1.045c3.663.556,7.127,1.579,10.012,4.044a12.261,12.261,0,0,1,4.6,9.333c.134,10.84.05,21.683.044,32.525a4.332,4.332,0,0,1-.151,1.367,7.623,7.623,0,0,1-7.676,5.126c-1.161-.039-2.321-.007-3.442-.007V-48.1a83.4,83.4,0,0,0,33.907-14.5,85.967,85.967,0,0,0,27.625-32.869,82.41,82.41,0,0,0,8.352-32.643c1.026-24.139-6.5-45.417-22.955-63.224-14.877-16.1-33.472-25.335-55.231-27.266-22.59-2-43.256,3.89-61.15,18.087-18.783,14.9-29.693,34.432-32.464,58.249a82.765,82.765,0,0,0,11.311,53.145c13.381,22.394,33.215,35.976,58.9,41.321Zm.188-4.509v-1.66q0-11.768,0-23.54c0-2.731-.271-2.388,2.458-2.416,1.776-.018,1.822.035,1.811,1.89-.038,6.747-.114,13.495-.122,20.244q-.036,32.588-.025,65.177a11.791,11.791,0,0,0,.173,1.45l9.389.741v-1.891q0-27.906.006-55.814c0-2.364-.344-2.13,2.171-2.149,1.876-.013,1.876,0,1.876,1.937q0,27.97,0,55.94v1.839c.6,0,1.017.033,1.424-.007,1.5-.146,3-.4,4.505-.464,3.626-.158,3.628-.125,3.63-3.731q.008-41.07.018-82.139c0-3.04.006-2.961,2.524-3.049,1.349-.048,1.594.457,1.586,1.682-.048,8.14-.024,16.283-.022,24.425v1.583c1.612,0,3.038.017,4.466-.005,2.071-.031,2.854-.853,2.856-2.968q0-14.618-.007-29.236a23.335,23.335,0,0,0-.232-3.265,9.154,9.154,0,0,0-7.5-7.431,43.867,43.867,0,0,1-4.391-1.126c-1.275-.313-2.557-.617-3.851-.838a18.153,18.153,0,0,0-2.515-.179,58.193,58.193,0,0,0-8.415-.144,34.726,34.726,0,0,0-7.6,1.211c-2.493.861-5.2,1.124-7.468,2.633a7.828,7.828,0,0,0-3.792,6.32c-.214,5.515-.221,11.039-.269,16.559-.039,4.726-.029,9.451-.005,14.175a7.391,7.391,0,0,0,.319,2.731,2.581,2.581,0,0,0,1.64,1.45A47.857,47.857,0,0,0-711.632-108.372Z" transform="translate(788.461 224.863)" fill="#fff"/>
    <path id="Контур_608" data-name="Контур 608" d="M-746.039-190.8a14.966,14.966,0,0,1,2-9.03,15.281,15.281,0,0,1,4.142-4.431,13.888,13.888,0,0,1,10.819-2.434,13.439,13.439,0,0,1,6.632,3.138,13.776,13.776,0,0,1,5.093,8.964c.464,4.243.584,8.544-1.92,12.327a13.98,13.98,0,0,1-5.688,5.172,16.083,16.083,0,0,1-6.042,1.9,14.771,14.771,0,0,1-7.072-1.8,15.367,15.367,0,0,1-4.49-3.433,12.971,12.971,0,0,1-3.464-8.08A19.69,19.69,0,0,1-746.039-190.8Zm24.76-.181a10.446,10.446,0,0,0-1-5.951,10.52,10.52,0,0,0-8.986-5.859,9.932,9.932,0,0,0-5.994,1.795,9.424,9.424,0,0,0-4.653,7.173c-.354,2.8-.488,5.723.912,8.406,1.294,2.48,3.044,4.531,5.843,5.216a24.51,24.51,0,0,0,5.076.475,7.5,7.5,0,0,0,5.341-2.349A10.166,10.166,0,0,0-721.279-190.976Z" transform="translate(824.171 239.976)" fill="#fff"/>
    <path id="Контур_609" data-name="Контур 609" d="M-690.619-169.679c-1.126-1.026-2.264-2.04-3.372-3.086-.93-.877-1.857-1.765-2.71-2.716a1.066,1.066,0,0,1-.016-1.037c.729-.789,1.564-1.481,2.464-2.307,1.741,1.778,3.421,3.528,5.139,5.24,1.514,1.511,3.072,2.981,4.608,4.468a12.192,12.192,0,0,1,1.485,1.493,1.094,1.094,0,0,1-.153,1.036q-5.276,5.409-10.639,10.733a1.218,1.218,0,0,1-1.118-.022,4.691,4.691,0,0,1-1.024-1.085c-1.294-1.537-1.237-1.481.363-2.987,1.622-1.529,3.122-3.188,4.778-4.894-.437-.041-.866-.111-1.3-.111q-10.948-.008-21.893,0c-1.6,0-1.672-.072-1.67-1.629,0-.38.043-.761.006-1.137-.107-1.1.363-1.47,1.463-1.463,7.214.039,14.427.024,21.641.028h1.618Z" transform="translate(849.781 263.652)" fill="#fff"/>
    <path id="Контур_610" data-name="Контур 610" d="M-759.856-136.627c2.415,0,4.752.02,7.088-.005,2.88-.03,2.276.029,2.309,2.286.03,1.927.006,1.931-1.933,1.931-4.429,0-8.861-.022-13.29.013-.916.006-1.3-.287-1.3-1.223.024-4.936.016-9.872.024-14.809a5.378,5.378,0,0,1,.072-.569h3.978v9.034c.938-.767,1.714-1.306,2.375-1.959,2.074-2.051,4.111-4.14,6.154-6.22q2.628-2.675,5.244-5.364c.982-1,1.986-1.99,2.948-3.014a1.219,1.219,0,0,1,2.032,0,10.6,10.6,0,0,1,1.317,1.415,1.09,1.09,0,0,1-.118,1.028q-4.27,4.428-8.616,8.785c-2.707,2.727-5.439,5.43-8.151,8.15C-759.79-137.08-759.78-136.933-759.856-136.627Z" transform="translate(806.561 281.98)" fill="#fff"/>
    <path id="Контур_611" data-name="Контур 611" d="M-702.078-139.878v-9.169h3.816c.027.439.079.881.081,1.325.013,4.557-.011,9.113.041,13.67.015,1.176-.317,1.642-1.581,1.621-4.557-.07-9.113-.059-13.67-.018-1.168.009-1.537-.446-1.526-1.572.026-2.681-.011-2.674,2.706-2.659,2.171.011,4.343,0,6.513,0l.19-.367-17.69-17.079a20.992,20.992,0,0,0,1.815-2.021c.89-1.33,1.52-1.017,2.561.046,1.489,1.52,3.024,2.994,4.52,4.509,2.288,2.312,4.551,4.649,6.841,6.961,1.117,1.128,2.27,2.218,3.4,3.33.555.542,1.1,1.094,1.649,1.642Z" transform="translate(843.45 282.021)" fill="#fff"/>
    <path id="Контур_612" data-name="Контур 612" d="M-702.331-184.505V-193.5l-.323-.216c-5.826,5.822-11.652,11.643-17.783,17.771-.768-.929-1.417-1.822-2.181-2.6-.433-.44-.462-.582.006-1.043,3.951-3.9,7.858-7.84,11.778-11.768q2.44-2.446,4.87-4.9a6.108,6.108,0,0,0,.566-.914h-3.353c-1.73,0-3.461-.022-5.189.015-.864.019-1.185-.291-1.168-1.185.057-3.348-.33-2.852,2.778-2.865,4.22-.02,8.437.022,12.655-.026.969-.011,1.33.228,1.319,1.26q-.074,7.084,0,14.171c.011,1.087-.376,1.406-1.395,1.312C-700.539-184.564-701.336-184.505-702.331-184.505Z" transform="translate(843.655 244.771)" fill="#fff"/>
    <path id="Контур_613" data-name="Контур 613" d="M-742.1-179.184l-2.738,2.981-18.079-18.039v9.607h-3.991v-16.552h16.415a29.9,29.9,0,0,1-.05,3.289c-.027.262-.667.641-1.036.65-2.233.061-4.468.031-6.7.031h-1.2l-.21.385Z" transform="translate(806.619 244.812)" fill="#fff"/>
    <path id="Контур_614" data-name="Контур 614" d="M-770.657-169.375h24.566c0,1.148.016,2.191,0,3.236-.019.888-.715.663-1.214.665q-6.9.022-13.8.015c-2.911,0-5.822-.007-8.734,0a2.231,2.231,0,0,0-1.266.359l6.843,6.436c-1.013,1.087-1.759,1.968-2.609,2.736a1.162,1.162,0,0,1-1.095-.166c-2.355-2.283-4.664-4.61-6.979-6.933-1.189-1.192-2.4-2.368-3.516-3.624a1.258,1.258,0,0,1,.013-1.227c3.049-3.116,6.145-6.184,9.246-9.25.584-.579,1.229-1.509,1.857-1.518.61-.007,1.236.958,1.854,1.5.313.274.624.551,1.056.932l-6.386,6.539Z" transform="translate(796.759 263.799)" fill="#fff"/>
  </g>
</svg>
