<svg xmlns="http://www.w3.org/2000/svg" width="120" height="120" viewBox="0 0 120 120">
  <g id="Сгруппировать_2055" data-name="Сгруппировать 2055" transform="translate(-41 -115.477)">
    <circle id="Эллипс_49" data-name="Эллипс 49" cx="60" cy="60" r="60" transform="translate(41 115.477)" fill="#a43561"/>
    <g id="Сгруппировать_796" data-name="Сгруппировать 796" transform="translate(1708.832 209.955)">
      <g id="Сгруппировать_795" data-name="Сгруппировать 795" transform="translate(-1660.23 -86.902)">
        <path id="Контур_629" data-name="Контур 629" d="M-1610.844-90.221a52.75,52.75,0,0,1,52.654,53.4A52.89,52.89,0,0,1-1611.7,15.136a52.806,52.806,0,0,1-51.842-53.316A52.691,52.691,0,0,1-1610.844-90.221ZM-1570-10.677l.293.108c.889-1.523,1.854-3.007,2.653-4.577a49.8,49.8,0,0,0,5.343-20.067,47.755,47.755,0,0,0-3.376-20.349,49.225,49.225,0,0,0-46.4-31.129,48.24,48.24,0,0,0-31.384,11.857,47.906,47.906,0,0,0-16.116,27.174,48.379,48.379,0,0,0,1.761,26.533,36.384,36.384,0,0,0,5.041,9.911,3.663,3.663,0,0,0,.212-1.235c.012-4.25-.021-8.5.043-12.75a10.639,10.639,0,0,1,.532-3.3,6.265,6.265,0,0,1,4.185-4.094,28.766,28.766,0,0,1,3.476-.941,40.015,40.015,0,0,1,5.69-.774,29.311,29.311,0,0,1,8.849,1.125c1.556.434,1.634.479,1.009,1.921a.97.97,0,0,1-.779.451c-.76-.067-1.508-.27-2.263-.406a44.706,44.706,0,0,0-4.443-.753,29.15,29.15,0,0,0-9.91,1.159,5.223,5.223,0,0,0-4,5.153c.1,4.516.027,9.035.028,13.552,0,1.04,0,2.08.009,3.12a1.054,1.054,0,0,0,.954,1.173c.876.077,1.762.019,2.753.019V-9.311c0-3.775-.025-7.55.01-11.324.018-1.919-.5-1.951,2.009-1.8.051,0,.1.052.238.129v1.267c0,6.182.028,12.364-.029,18.546a2.869,2.869,0,0,0,1.21,2.725c1.233.854,2.395,1.811,3.755,2.85.035-.735.074-1.173.076-1.612.01-2.408.036-4.815,0-7.222-.014-.985.558-.97,1.273-.991.756-.022,1.053.2,1.044,1-.035,3,.014,6-.022,9.005-.01.825.078,1.464.926,1.865,1.306.618,2.571,1.322,4.035,2.084.05-.765.111-1.26.111-1.755q.01-13.062.006-26.125c0-2.026,0-2.026,2.037-1.764.053.007.1.057.294.174v1.766c0,9.154.014,18.308-.017,27.462,0,.941.228,1.448,1.2,1.689,1.217.3,2.376.829,3.585,1.169,1.5.421,3.019.75,4.7,1.159v-1.3q0-8.871,0-17.743c0-1.967,0-2.035-2-1.958a4.044,4.044,0,0,1-4.246-4.26c.08-4.754,0-9.511.038-14.266a18.871,18.871,0,0,1,.356-3.873,6.429,6.429,0,0,1,3.653-4.549,22.249,22.249,0,0,1,6.4-1.673,27.021,27.021,0,0,1,14.718,1.66,5.936,5.936,0,0,1,3.9,5.51c.135,5.971.09,11.946.066,17.919a3.537,3.537,0,0,1-3.589,3.508c-.758.024-1.517,0-2.289,0v21.06c1.322-.339,2.55-.649,3.774-.968s2.454-.6,3.658-.98c1.855-.577,1.847-.6,1.847-2.6q0-13.6,0-27.2a6.665,6.665,0,0,1,.046-1.243.719.719,0,0,1,.456-.486,18.417,18.417,0,0,1,1.875-.023V7.414c1.589-.842,2.948-1.563,4.307-2.281a1.18,1.18,0,0,0,.6-1.217c-.022-3.21.016-6.42-.023-9.63-.013-1.064.637-.979,1.348-1.025.8-.051,1.012.268,1,1.033-.039,2.526-.019,5.053-.009,7.579,0,.391.068.782.127,1.424,1.354-1.025,2.494-1.928,3.677-2.769A2.829,2.829,0,0,0-1578.48-2.1c-.063-5.824-.029-11.65-.027-17.476a20.2,20.2,0,0,1,.04-2.226.928.928,0,0,1,.592-.638,10.179,10.179,0,0,1,1.736-.03V-7.784c.807,0,1.513,0,2.219,0,1.167-.007,1.6-.429,1.6-1.6,0-5.528.034-11.056-.019-16.584a4.631,4.631,0,0,0-2.772-4.288,21.142,21.142,0,0,0-6.068-1.5,26.924,26.924,0,0,0-11.153.837c-.874.227-1.324.126-1.623-.777s-.157-1.257.79-1.437a15.585,15.585,0,0,0,2.17-.416,20.176,20.176,0,0,1,6.052-.758,29.269,29.269,0,0,1,9.1,1.239,7.843,7.843,0,0,1,4.236,2.687,8.222,8.222,0,0,1,1.619,5.212c-.022,4.458-.005,8.916,0,13.375Zm-39.77,22.368c1.129-.1,2.1-.157,3.061-.262,1.978-.218,1.869.2,1.872-1.986q.024-17.567.017-35.132V-27.17h2.349v1.392c0,3.864-.015,7.728.015,11.591.016,2.01-.394,1.792,1.872,1.822,1.394.019,1.818-.4,1.822-1.8.015-5.439.044-10.879,0-16.317a4.475,4.475,0,0,0-2.756-4.406,15.376,15.376,0,0,0-3.758-1.132,40.755,40.755,0,0,0-7.241-.619,41.164,41.164,0,0,0-6.511,1.2,5.167,5.167,0,0,0-4.256,5.393c.02,4.994.065,9.988-.018,14.98-.048,2.84.839,2.738,2.847,2.727.785-.005,1.086-.227,1.077-1.074-.042-4.25-.02-8.5-.021-12.751v-1.041c.312-.016.487-.033.664-.033,1.888-.006,1.632-.147,1.633,1.594q.011,17.388,0,34.776a7.8,7.8,0,0,0,.042,1.51.955.955,0,0,0,.59.641c1.053.169,2.12.27,3.185.34,1.1.073,1.178-.023,1.179-1.1q0-5.484,0-10.968c0-3.329-.008-6.658.007-9.986,0-.294.062-.733.255-.855a1.329,1.329,0,0,1,2.065,1.12q0,10.031,0,20.063Zm33.836-14.926,2.2-2.149C-1576.275-5.639-1576.717-5.19-1575.93-3.236Zm-69.9-2.139h-2.027l-.165.251,2.1,1.793Z" transform="translate(1663.549 90.221)" fill="#fff"/>
        <path id="Контур_630" data-name="Контур 630" d="M-1570.043-59.058a7.8,7.8,0,0,1-3.829,7.325,7.315,7.315,0,0,1-5.858.829,7.261,7.261,0,0,1-5.407-4.792c-1.374-3.935-.774-8.592,3.562-11.035a7.388,7.388,0,0,1,6.069-.539A7.97,7.97,0,0,1-1570.043-59.058Zm-2.324-.2a5.25,5.25,0,0,0-1.522-4.38,5.35,5.35,0,0,0-7.1-.782c-3.358,2.231-3.193,8.209-.208,10.336a5.225,5.225,0,0,0,4.763.944A5.578,5.578,0,0,0-1572.367-59.26Z" transform="translate(1643.625 84.429)" fill="#fff"/>
        <path id="Контур_631" data-name="Контур 631" d="M-1552.3-30.945a7.835,7.835,0,0,1-2.81,6.6,5.093,5.093,0,0,1-2.948,1.453,15.56,15.56,0,0,1-2.854.327c-3.3-.4-5.783-2.171-6.641-5.377s-.795-6.466,1.769-9.131a7.531,7.531,0,0,1,6.193-2.376A7.822,7.822,0,0,1-1552.3-30.945Zm-2.2.03a15.209,15.209,0,0,0-.5-2.681,5.433,5.433,0,0,0-8.9-2.067,6.406,6.406,0,0,0,2.243,10.547,4.767,4.767,0,0,0,4.672-.739A5.692,5.692,0,0,0-1554.5-30.915Z" transform="translate(1639.078 77.182)" fill="#fff"/>
        <path id="Контур_632" data-name="Контур 632" d="M-1587.683-37.286a8.665,8.665,0,0,1-2.324,6.13,7.507,7.507,0,0,1-5.843,2.347,7.3,7.3,0,0,1-6.485-3.811c-1.956-3.368-1.71-8.8,1.98-11.577a7.624,7.624,0,0,1,6.448-1.293,7.448,7.448,0,0,1,5.828,5.485A15.289,15.289,0,0,1-1587.683-37.286Zm-13.453-.11a5.579,5.579,0,0,0,4.631,6.2,5.439,5.439,0,0,0,5.534-2.429,6.444,6.444,0,0,0-3.3-9.608,4.711,4.711,0,0,0-4.373.718A5.426,5.426,0,0,0-1601.135-37.4Z" transform="translate(1648.174 78.784)" fill="#fff"/>
        <path id="Контур_633" data-name="Контур 633" d="M-1622.982-31.049a8.8,8.8,0,0,1-2.611,6.288,7.48,7.48,0,0,1-7.218,1.952,7.389,7.389,0,0,1-5.707-5.358,10.882,10.882,0,0,1-.329-2.894,7.831,7.831,0,0,1,3.575-7.232,7.377,7.377,0,0,1,4.8-1.174,7.456,7.456,0,0,1,6.536,4.514A20.248,20.248,0,0,1-1622.982-31.049Zm-2.468.027a10.923,10.923,0,0,0-.377-2.526,5.487,5.487,0,0,0-8.257-2.708c-2.61,1.687-2.955,4.725-2.087,7.781a4.878,4.878,0,0,0,3.643,3.367,5.252,5.252,0,0,0,4.756-.82A5.687,5.687,0,0,0-1625.45-31.022Z" transform="translate(1657.222 77.189)" fill="#fff"/>
        <path id="Контур_634" data-name="Контур 634" d="M-1605.5-59.712a9.255,9.255,0,0,1-1.258,5.537,7.86,7.86,0,0,1-8.428,3.278,8.11,8.11,0,0,1-6.014-8.147,8.991,8.991,0,0,1,2.076-6.035,8.009,8.009,0,0,1,8.234-2.13,7.885,7.885,0,0,1,5.039,5.135A13.281,13.281,0,0,1-1605.5-59.712Zm-2.307.623a5.629,5.629,0,0,0-3.75-5.951,5.207,5.207,0,0,0-5.106.847c-1.824,1.4-2.227,3.375-2.208,5.6a5.55,5.55,0,0,0,8.342,4.861A5.521,5.521,0,0,0-1607.807-59.089Z" transform="translate(1652.698 84.412)" fill="#fff"/>
      </g>
    </g>
  </g>
</svg>
