<svg xmlns="http://www.w3.org/2000/svg" width="276" height="68.878" viewBox="0 0 276 68.878">
  <g id="Сгруппировать_675" data-name="Сгруппировать 675" transform="translate(-604.926 -415.288)">
    <path id="Контур_487" data-name="Контур 487" d="M639.365,415.288A34.439,34.439,0,1,0,673.8,449.727,34.438,34.438,0,0,0,639.365,415.288Zm-21.119,50.67a4.8,4.8,0,1,1,4.8-4.8A4.8,4.8,0,0,1,618.246,465.958Zm7.033-10.843a4.8,4.8,0,1,1,4.8-4.8A4.795,4.795,0,0,1,625.279,455.115Zm7.054-10.745a4.8,4.8,0,1,1,4.8-4.8A4.8,4.8,0,0,1,632.332,444.37Zm2.237-15.691a4.8,4.8,0,1,1,4.8,4.8A4.795,4.795,0,0,1,634.57,428.679Zm7.033,10.9a4.8,4.8,0,1,1,4.8,4.8A4.795,4.795,0,0,1,641.6,439.575Zm7.054,10.745a4.8,4.8,0,1,1,4.8,4.8A4.795,4.795,0,0,1,648.656,450.32Zm11.828,15.658a4.8,4.8,0,1,1,4.8-4.8A4.795,4.795,0,0,1,660.484,465.978Z" fill="#35ab35"/>
    <g id="Сгруппировать_680" data-name="Сгруппировать 680" transform="translate(684.19 453.2)">
      <g id="Сгруппировать_679" data-name="Сгруппировать 679">
        <path id="Контур_488" data-name="Контур 488" d="M645.986,435.4h1.7l2.89,5.229.961,1.987h.058c-.079-.961-.211-2.141-.211-3.176V435.4h1.571v9.3h-1.7l-2.89-5.239-.961-1.979h-.06c.081.986.212,2.106.212,3.143v4.075h-1.571Z" transform="translate(-645.986 -434.485)" fill="#565555"/>
        <path id="Контур_489" data-name="Контур 489" d="M650.553,441.795c0-1.5,1.24-2.276,4.11-2.583-.023-.753-.324-1.378-1.27-1.378a3.848,3.848,0,0,0-1.963.689l-.6-1.093a5.448,5.448,0,0,1,2.871-.917c1.745,0,2.6,1.075,2.6,3.023v4.137h-1.342l-.126-.774h-.046a3.374,3.374,0,0,1-2.168.944A1.957,1.957,0,0,1,650.553,441.795Zm4.11.006v-1.571c-1.9.239-2.529.734-2.529,1.44,0,.618.423.888,1.01.888A2.206,2.206,0,0,0,654.663,441.8Z" transform="translate(-641.737 -433.451)" fill="#565555"/>
        <path id="Контур_490" data-name="Контур 490" d="M655.039,442.152v-3.328h-1v-1.23l1.083-.073.191-1.907h1.361v1.907h1.782v1.3h-1.782v3.326c0,.822.319,1.226.99,1.226a2.151,2.151,0,0,0,.728-.16l.278,1.207a4.511,4.511,0,0,1-1.427.257C655.635,444.679,655.039,443.66,655.039,442.152Z" transform="translate(-638.489 -434.288)" fill="#565555"/>
        <path id="Контур_491" data-name="Контур 491" d="M657,435.934a1.016,1.016,0,1,1,1.014.929A.936.936,0,0,1,657,435.934Zm.187,2.152h1.639v6.988h-1.639Z" transform="translate(-635.742 -434.853)" fill="#565555"/>
        <path id="Контур_492" data-name="Контур 492" d="M658.785,440.185a3.339,3.339,0,1,1,3.324,3.658A3.386,3.386,0,0,1,658.785,440.185Zm4.961,0c0-1.4-.614-2.334-1.637-2.334s-1.641.932-1.641,2.334.616,2.32,1.641,2.32S663.746,441.584,663.746,440.185Z" transform="translate(-634.077 -433.451)" fill="#565555"/>
        <path id="Контур_493" data-name="Контур 493" d="M663.069,436.685h1.346l.124.944h.046a3.258,3.258,0,0,1,2.293-1.116c1.5,0,2.151,1.013,2.151,2.778v4.382h-1.637V439.5c0-1.151-.33-1.583-1.089-1.583a2.2,2.2,0,0,0-1.593.871v4.884h-1.641Z" transform="translate(-630.091 -433.451)" fill="#565555"/>
        <path id="Контур_494" data-name="Контур 494" d="M667,441.795c0-1.5,1.241-2.276,4.11-2.583-.023-.753-.324-1.378-1.268-1.378a3.848,3.848,0,0,0-1.965.689l-.6-1.093a5.441,5.441,0,0,1,2.869-.917c1.745,0,2.6,1.075,2.6,3.023v4.137h-1.342l-.126-.774h-.046a3.374,3.374,0,0,1-2.168.944A1.957,1.957,0,0,1,667,441.795Zm4.11.006v-1.571c-1.9.239-2.529.734-2.529,1.44,0,.618.423.888,1.01.888A2.2,2.2,0,0,0,671.112,441.8Z" transform="translate(-626.432 -433.451)" fill="#565555"/>
        <path id="Контур_495" data-name="Контур 495" d="M671,443.267v-8.251h1.641v8.336c0,.4.18.546.351.546a1.016,1.016,0,0,0,.257-.027l.207,1.222a2.283,2.283,0,0,1-.867.143C671.427,445.236,671,444.485,671,443.267Z" transform="translate(-622.713 -434.844)" fill="#565555"/>
        <path id="Контур_496" data-name="Контур 496" d="M676.95,435.4h1.934l3.035,9.3h-1.747l-1.417-4.952c-.3-.984-.569-2.046-.843-3.067h-.056c-.257,1.031-.529,2.083-.826,3.067l-1.428,4.952h-1.683Zm-1.239,5.488h4.38v1.3h-4.38Z" transform="translate(-619.998 -434.485)" fill="#565555"/>
        <path id="Контур_497" data-name="Контур 497" d="M678.345,440.185a3.454,3.454,0,0,1,3.5-3.672,2.99,2.99,0,0,1,2.044.786l-.8,1.064a1.72,1.72,0,0,0-1.162-.512c-1.128,0-1.907.932-1.907,2.334s.768,2.32,1.857,2.32a2.3,2.3,0,0,0,1.444-.6l.666,1.081a3.445,3.445,0,0,1-2.282.859A3.326,3.326,0,0,1,678.345,440.185Z" transform="translate(-615.878 -433.451)" fill="#565555"/>
        <path id="Контур_498" data-name="Контур 498" d="M681.72,441.795c0-1.5,1.239-2.276,4.11-2.583-.023-.753-.324-1.378-1.27-1.378a3.849,3.849,0,0,0-1.963.689l-.6-1.093a5.448,5.448,0,0,1,2.871-.917c1.745,0,2.6,1.075,2.6,3.023v4.137h-1.342L686,442.9h-.046a3.374,3.374,0,0,1-2.168.944A1.957,1.957,0,0,1,681.72,441.795Zm4.11.006v-1.571c-1.9.239-2.529.734-2.529,1.44,0,.618.423.888,1.01.888A2.206,2.206,0,0,0,685.83,441.8Z" transform="translate(-612.737 -433.451)" fill="#565555"/>
        <path id="Контур_499" data-name="Контур 499" d="M685.5,441.578c0-2.278,1.429-3.672,2.959-3.672a2.586,2.586,0,0,1,1.834.768l-.064-1.127v-2.531h1.639v10.05h-1.342l-.127-.757h-.044a2.932,2.932,0,0,1-1.988.927C686.623,445.236,685.5,443.881,685.5,441.578Zm4.73,1.519v-3.255a2.06,2.06,0,0,0-1.423-.581c-.888,0-1.622.842-1.622,2.3,0,1.519.579,2.32,1.587,2.32A1.843,1.843,0,0,0,690.225,443.1Z" transform="translate(-609.224 -434.844)" fill="#565555"/>
        <path id="Контур_500" data-name="Контур 500" d="M689.636,440.185a3.4,3.4,0,0,1,3.222-3.672c1.888,0,2.884,1.367,2.884,3.318a4.285,4.285,0,0,1-.072.8h-4.436a1.988,1.988,0,0,0,2.06,1.946,2.962,2.962,0,0,0,1.621-.508l.558,1.019a4.334,4.334,0,0,1-2.4.757A3.373,3.373,0,0,1,689.636,440.185Zm4.687-.672c0-1.077-.477-1.732-1.432-1.732a1.755,1.755,0,0,0-1.674,1.732Z" transform="translate(-605.372 -433.451)" fill="#565555"/>
        <path id="Контур_501" data-name="Контур 501" d="M693.61,436.685h1.346l.123.952h.047a3,3,0,0,1,2.145-1.124,1.886,1.886,0,0,1,1.93,1.253,3.16,3.16,0,0,1,2.247-1.253c1.475,0,2.156,1.013,2.156,2.778v4.382h-1.639V439.5c0-1.151-.34-1.583-1.075-1.583a2.154,2.154,0,0,0-1.461.871v4.884h-1.641V439.5c0-1.151-.34-1.583-1.073-1.583a2.18,2.18,0,0,0-1.463.871v4.884H693.61Z" transform="translate(-601.674 -433.451)" fill="#565555"/>
        <path id="Контур_502" data-name="Контур 502" d="M699.794,446.316l.3-1.268a1.979,1.979,0,0,0,.5.095,1.477,1.477,0,0,0,1.394-1.2l.131-.438-2.749-6.9h1.66l1.207,3.425c.212.622.409,1.309.616,1.975h.056c.178-.649.353-1.336.535-1.975l1.04-3.425h1.585l-2.529,7.307c-.581,1.573-1.313,2.55-2.838,2.55A2.74,2.74,0,0,1,699.794,446.316Z" transform="translate(-596.312 -433.368)" fill="#565555"/>
        <path id="Контур_503" data-name="Контур 503" d="M704.6,438.234l1.025-.074h2.917v1.3H704.6Zm.938-.8c0-1.448.668-2.509,2.316-2.509a3.537,3.537,0,0,1,1.28.245l-.313,1.224a1.966,1.966,0,0,0-.757-.166c-.579,0-.888.367-.888,1.178v7.741h-1.639Z" transform="translate(-591.445 -434.927)" fill="#565555"/>
        <path id="Контур_504" data-name="Контур 504" d="M706.97,440.185a3.339,3.339,0,1,1,3.322,3.658A3.385,3.385,0,0,1,706.97,440.185Zm4.961,0c0-1.4-.614-2.334-1.639-2.334s-1.639.932-1.639,2.334.614,2.32,1.639,2.32S711.931,441.584,711.931,440.185Z" transform="translate(-589.244 -433.451)" fill="#565555"/>
        <path id="Контур_505" data-name="Контур 505" d="M711.254,436.685H712.6l.126,1.245h.044a2.388,2.388,0,0,1,1.986-1.417,1.8,1.8,0,0,1,.794.143l-.286,1.423a2.406,2.406,0,0,0-.718-.114c-.558,0-1.23.38-1.649,1.446v4.262h-1.641Z" transform="translate(-585.258 -433.451)" fill="#565555"/>
        <path id="Контур_506" data-name="Контур 506" d="M645.986,443.246h5.6v1.388h-3.95v2.386h3.345v1.388h-3.345v2.755h4.092v1.388h-5.743Z" transform="translate(-645.986 -427.187)" fill="#565555"/>
        <path id="Контур_507" data-name="Контур 507" d="M649.583,449.422c0-2.276,1.428-3.672,2.959-3.672a2.578,2.578,0,0,1,1.832.768l-.062-1.128V442.86h1.639v10.05H654.61l-.127-.757h-.044a2.933,2.933,0,0,1-1.988.927C650.71,453.08,649.583,451.727,649.583,449.422Zm4.73,1.519v-3.255a2.07,2.07,0,0,0-1.423-.581c-.888,0-1.622.842-1.622,2.3,0,1.519.579,2.322,1.587,2.322A1.846,1.846,0,0,0,654.313,450.941Z" transform="translate(-642.639 -427.546)" fill="#565555"/>
        <path id="Контур_508" data-name="Контур 508" d="M653.919,448.828v-4.382h1.641v4.17c0,1.151.328,1.583,1.085,1.583.614,0,1.019-.284,1.548-.967v-4.785h1.639v6.988h-1.344l-.124-1.031h-.046a2.843,2.843,0,0,1-2.249,1.2C654.573,451.6,653.919,450.591,653.919,448.828Z" transform="translate(-638.605 -426.07)" fill="#565555"/>
        <path id="Контур_509" data-name="Контур 509" d="M657.819,448.029a3.456,3.456,0,0,1,3.506-3.672,2.981,2.981,0,0,1,2.042.786l-.8,1.064a1.717,1.717,0,0,0-1.16-.512c-1.127,0-1.909.934-1.909,2.334s.77,2.32,1.857,2.32a2.291,2.291,0,0,0,1.444-.6l.668,1.081a3.451,3.451,0,0,1-2.284.859A3.326,3.326,0,0,1,657.819,448.029Z" transform="translate(-634.976 -426.153)" fill="#565555"/>
        <path id="Контур_510" data-name="Контур 510" d="M661.194,449.639c0-1.5,1.241-2.276,4.11-2.583-.021-.751-.324-1.376-1.268-1.376a3.876,3.876,0,0,0-1.965.687l-.6-1.093a5.459,5.459,0,0,1,2.869-.917c1.747,0,2.606,1.077,2.606,3.023v4.137H665.6l-.127-.774h-.044a3.382,3.382,0,0,1-2.168.944A1.959,1.959,0,0,1,661.194,449.639Zm4.11.006v-1.571c-1.9.239-2.527.736-2.527,1.44,0,.618.421.888,1.008.888A2.2,2.2,0,0,0,665.3,449.644Z" transform="translate(-631.836 -426.153)" fill="#565555"/>
        <path id="Контур_511" data-name="Контур 511" d="M665.68,450v-3.328h-.994v-1.23l1.081-.073.193-1.907h1.361v1.907H669.1v1.3h-1.782v3.326c0,.822.318,1.226.988,1.226a2.13,2.13,0,0,0,.728-.16l.28,1.207a4.509,4.509,0,0,1-1.427.257C666.279,452.523,665.68,451.5,665.68,450Z" transform="translate(-628.587 -426.989)" fill="#565555"/>
        <path id="Контур_512" data-name="Контур 512" d="M667.638,443.779a1.017,1.017,0,1,1,1.011.927A.934.934,0,0,1,667.638,443.779Zm.185,2.151h1.641v6.988h-1.641Z" transform="translate(-625.84 -427.554)" fill="#565555"/>
        <path id="Контур_513" data-name="Контур 513" d="M669.428,448.029a3.339,3.339,0,1,1,3.322,3.658A3.386,3.386,0,0,1,669.428,448.029Zm4.961,0c0-1.4-.614-2.334-1.639-2.334s-1.639.934-1.639,2.334.614,2.32,1.639,2.32S674.389,449.428,674.389,448.029Z" transform="translate(-624.174 -426.153)" fill="#565555"/>
        <path id="Контур_514" data-name="Контур 514" d="M673.712,444.529h1.344l.126.944h.044a3.267,3.267,0,0,1,2.3-1.116c1.5,0,2.151,1.014,2.151,2.778v4.382h-1.639v-4.172c0-1.149-.33-1.583-1.087-1.583a2.194,2.194,0,0,0-1.593.873v4.882h-1.641Z" transform="translate(-620.189 -426.153)" fill="#565555"/>
        <path id="Контур_515" data-name="Контур 515" d="M677.645,449.639c0-1.5,1.239-2.276,4.108-2.583-.021-.751-.324-1.376-1.268-1.376a3.863,3.863,0,0,0-1.963.687l-.6-1.093a5.465,5.465,0,0,1,2.869-.917c1.747,0,2.606,1.077,2.606,3.023v4.137H682.05l-.127-.774h-.044a3.374,3.374,0,0,1-2.168.944A1.957,1.957,0,0,1,677.645,449.639Zm4.108.006v-1.571c-1.9.239-2.527.736-2.527,1.44,0,.618.423.888,1.008.888A2.2,2.2,0,0,0,681.753,449.644Z" transform="translate(-616.529 -426.153)" fill="#565555"/>
        <path id="Контур_516" data-name="Контур 516" d="M681.642,451.111V442.86h1.639V451.2c0,.4.182.544.353.544a1.023,1.023,0,0,0,.257-.027l.2,1.224a2.307,2.307,0,0,1-.865.141C682.068,453.08,681.642,452.329,681.642,451.111Z" transform="translate(-612.81 -427.546)" fill="#565555"/>
        <path id="Контур_517" data-name="Контур 517" d="M685.188,443.246h1.649v7.917H690.7v1.388h-5.513Z" transform="translate(-609.511 -427.187)" fill="#565555"/>
        <path id="Контур_518" data-name="Контур 518" d="M688.479,448.029a3.4,3.4,0,0,1,3.22-3.672c1.89,0,2.886,1.367,2.886,3.318a4.087,4.087,0,0,1-.074.8h-4.434a1.988,1.988,0,0,0,2.06,1.946,2.963,2.963,0,0,0,1.622-.508l.558,1.019a4.335,4.335,0,0,1-2.4.757A3.372,3.372,0,0,1,688.479,448.029Zm4.687-.672c0-1.075-.477-1.73-1.432-1.73a1.754,1.754,0,0,0-1.674,1.73Z" transform="translate(-606.448 -426.153)" fill="#565555"/>
        <path id="Контур_519" data-name="Контур 519" d="M692.171,449.639c0-1.5,1.239-2.276,4.11-2.583-.023-.751-.324-1.376-1.268-1.376a3.863,3.863,0,0,0-1.965.687l-.6-1.093a5.459,5.459,0,0,1,2.869-.917c1.745,0,2.6,1.077,2.6,3.023v4.137h-1.342l-.125-.774H696.4a3.375,3.375,0,0,1-2.168.944A1.957,1.957,0,0,1,692.171,449.639Zm4.11.006v-1.571c-1.9.239-2.529.736-2.529,1.44,0,.618.423.888,1.01.888A2.2,2.2,0,0,0,696.281,449.644Z" transform="translate(-603.013 -426.153)" fill="#565555"/>
        <path id="Контур_520" data-name="Контур 520" d="M695.947,449.422c0-2.276,1.43-3.672,2.959-3.672a2.582,2.582,0,0,1,1.834.768l-.064-1.128V442.86h1.639v10.05h-1.342l-.127-.757H700.8a2.932,2.932,0,0,1-1.986.927C697.074,453.08,695.947,451.727,695.947,449.422Zm4.729,1.519v-3.255a2.069,2.069,0,0,0-1.423-.581c-.888,0-1.622.842-1.622,2.3,0,1.519.579,2.322,1.589,2.322A1.845,1.845,0,0,0,700.676,450.941Z" transform="translate(-599.5 -427.546)" fill="#565555"/>
        <path id="Контур_521" data-name="Контур 521" d="M700.086,448.029a3.4,3.4,0,0,1,3.222-3.672c1.888,0,2.884,1.367,2.884,3.318a4.281,4.281,0,0,1-.071.8h-4.436a1.988,1.988,0,0,0,2.06,1.946,2.958,2.958,0,0,0,1.622-.508l.558,1.019a4.33,4.33,0,0,1-2.4.757A3.372,3.372,0,0,1,700.086,448.029Zm4.689-.672c0-1.075-.477-1.73-1.434-1.73a1.755,1.755,0,0,0-1.674,1.73Z" transform="translate(-595.649 -426.153)" fill="#565555"/>
        <path id="Контур_522" data-name="Контур 522" d="M704.062,444.529h1.344l.124,1.245h.046a2.387,2.387,0,0,1,1.987-1.417,1.778,1.778,0,0,1,.791.143l-.284,1.423a2.4,2.4,0,0,0-.718-.114c-.558,0-1.23.382-1.651,1.446v4.262h-1.639Z" transform="translate(-591.949 -426.153)" fill="#565555"/>
        <path id="Контур_523" data-name="Контур 523" d="M706.406,450.714l.764-1.04a3.088,3.088,0,0,0,1.929.78c.763,0,1.122-.359,1.122-.838,0-.585-.759-.847-1.5-1.131-.917-.345-1.965-.873-1.965-2.039,0-1.21.981-2.089,2.544-2.089a3.753,3.753,0,0,1,2.32.838l-.749,1.008a2.615,2.615,0,0,0-1.531-.61c-.7,0-1.037.336-1.037.774,0,.552.707.763,1.463,1.042.944.351,2,.807,2,2.11,0,1.2-.952,2.168-2.716,2.168A4.37,4.37,0,0,1,706.406,450.714Z" transform="translate(-589.768 -426.153)" fill="#565555"/>
        <path id="Контур_524" data-name="Контур 524" d="M709.942,442.86h1.641v2.6l-.068,1.349a3.227,3.227,0,0,1,2.235-1.06c1.5,0,2.151,1.014,2.151,2.778v4.382h-1.637v-4.172c0-1.149-.33-1.583-1.089-1.583a2.2,2.2,0,0,0-1.593.873v4.882h-1.641Z" transform="translate(-586.478 -427.546)" fill="#565555"/>
        <path id="Контур_525" data-name="Контур 525" d="M713.958,443.779a1.017,1.017,0,1,1,1.012.927A.935.935,0,0,1,713.958,443.779Zm.187,2.151h1.639v6.988h-1.639Z" transform="translate(-582.742 -427.554)" fill="#565555"/>
        <path id="Контур_526" data-name="Контур 526" d="M715.985,444.529h1.345l.124.745h.046a3.385,3.385,0,0,1,2.1-.917c1.749,0,2.749,1.4,2.749,3.558,0,2.39-1.427,3.772-2.981,3.772a2.786,2.786,0,0,1-1.8-.768l.05,1.162v2.2h-1.641Zm4.685,3.4c0-1.394-.456-2.218-1.519-2.218a2.2,2.2,0,0,0-1.525.786v3.255a2.18,2.18,0,0,0,1.4.581C719.96,450.334,720.67,449.513,720.67,447.93Z" transform="translate(-580.856 -426.153)" fill="#565555"/>
        <path id="Контур_527" data-name="Контур 527" d="M721.166,443.246h1.695l.809,4.7c.151.99.311,1.981.461,2.971h.056c.193-.99.4-1.99.6-2.971l1.145-4.7h1.432l1.145,4.7c.2.965.409,1.973.614,2.971h.056c.151-1,.3-2,.452-2.971l.807-4.7h1.583l-1.788,9.3h-2.042l-1.156-4.9c-.152-.724-.29-1.434-.409-2.141h-.056c-.129.707-.268,1.417-.423,2.141l-1.126,4.9h-2.01Z" transform="translate(-576.035 -427.187)" fill="#565555"/>
        <path id="Контур_528" data-name="Контур 528" d="M727.171,449.639c0-1.5,1.239-2.276,4.11-2.583-.023-.751-.324-1.376-1.268-1.376a3.864,3.864,0,0,0-1.965.687l-.6-1.093a5.459,5.459,0,0,1,2.869-.917c1.745,0,2.6,1.077,2.6,3.023v4.137h-1.342l-.125-.774H731.4a3.374,3.374,0,0,1-2.168.944A1.957,1.957,0,0,1,727.171,449.639Zm4.11.006v-1.571c-1.9.239-2.529.736-2.529,1.44,0,.618.423.888,1.01.888A2.2,2.2,0,0,0,731.281,449.644Z" transform="translate(-570.448 -426.153)" fill="#565555"/>
        <path id="Контур_529" data-name="Контур 529" d="M731.168,451.111V442.86h1.641V451.2c0,.4.18.544.351.544a1.014,1.014,0,0,0,.257-.027l.2,1.224a2.31,2.31,0,0,1-.865.141C731.6,453.08,731.168,452.329,731.168,451.111Z" transform="translate(-566.729 -427.546)" fill="#565555"/>
        <path id="Контур_530" data-name="Контур 530" d="M732.927,448.029a3.4,3.4,0,0,1,3.222-3.672c1.888,0,2.884,1.367,2.884,3.318a4.275,4.275,0,0,1-.071.8h-4.436a1.988,1.988,0,0,0,2.06,1.946,2.963,2.963,0,0,0,1.622-.508l.558,1.019a4.335,4.335,0,0,1-2.4.757A3.372,3.372,0,0,1,732.927,448.029Zm4.687-.672c0-1.075-.477-1.73-1.433-1.73a1.754,1.754,0,0,0-1.674,1.73Z" transform="translate(-565.092 -426.153)" fill="#565555"/>
        <path id="Контур_531" data-name="Контур 531" d="M736.542,450.714l.764-1.04a3.083,3.083,0,0,0,1.929.78c.762,0,1.122-.359,1.122-.838,0-.585-.759-.847-1.5-1.131-.915-.345-1.963-.873-1.963-2.039,0-1.21.979-2.089,2.544-2.089a3.757,3.757,0,0,1,2.32.838l-.749,1.008a2.614,2.614,0,0,0-1.531-.61c-.7,0-1.039.336-1.039.774,0,.552.708.763,1.463,1.042.946.351,2,.807,2,2.11,0,1.2-.95,2.168-2.714,2.168A4.37,4.37,0,0,1,736.542,450.714Z" transform="translate(-561.728 -426.153)" fill="#565555"/>
      </g>
    </g>
    <g id="Сгруппировать_681" data-name="Сгруппировать 681" transform="translate(683.007 418.381)">
      <path id="Контур_532" data-name="Контур 532" d="M648.406,417.364h1.934l3.035,9.3h-1.747l-1.417-4.952c-.3-.984-.57-2.044-.844-3.067h-.056c-.257,1.031-.529,2.083-.826,3.067l-1.428,4.952h-1.683Zm-1.239,5.49h4.38v1.293h-4.38Z" transform="translate(-645.373 -416.449)" fill="#565555"/>
      <path id="Контур_533" data-name="Контур 533" d="M649.8,422.146a3.452,3.452,0,0,1,3.5-3.67,2.989,2.989,0,0,1,2.044.784l-.8,1.066a1.722,1.722,0,0,0-1.162-.513c-1.127,0-1.907.934-1.907,2.334s.768,2.322,1.857,2.322a2.3,2.3,0,0,0,1.444-.6l.668,1.081a3.454,3.454,0,0,1-2.284.859A3.325,3.325,0,0,1,649.8,422.146Z" transform="translate(-641.253 -415.414)" fill="#565555"/>
      <path id="Контур_534" data-name="Контур 534" d="M653.176,423.756c0-1.5,1.239-2.276,4.11-2.583-.023-.751-.324-1.376-1.27-1.376a3.864,3.864,0,0,0-1.963.687l-.6-1.093a5.47,5.47,0,0,1,2.871-.915c1.745,0,2.6,1.075,2.6,3.021v4.137h-1.341l-.126-.774h-.046a3.374,3.374,0,0,1-2.168.944A1.957,1.957,0,0,1,653.176,423.756Zm4.11.006V422.19c-1.9.239-2.529.736-2.529,1.44,0,.618.423.888,1.01.888A2.2,2.2,0,0,0,657.286,423.761Z" transform="translate(-638.113 -415.414)" fill="#565555"/>
      <path id="Контур_535" data-name="Контур 535" d="M656.952,423.54c0-2.276,1.428-3.67,2.959-3.67a2.574,2.574,0,0,1,1.834.768l-.064-1.127v-2.533h1.639v10.05h-1.342l-.128-.757h-.044a2.931,2.931,0,0,1-1.986.927C658.079,427.2,656.952,425.845,656.952,423.54Zm4.729,1.519V421.8a2.069,2.069,0,0,0-1.423-.581c-.888,0-1.621.842-1.621,2.3,0,1.519.579,2.322,1.587,2.322A1.845,1.845,0,0,0,661.681,425.059Z" transform="translate(-634.599 -416.808)" fill="#565555"/>
      <path id="Контур_536" data-name="Контур 536" d="M661.092,422.146a3.4,3.4,0,0,1,3.222-3.67c1.888,0,2.884,1.365,2.884,3.317a4.263,4.263,0,0,1-.072.8H662.69a1.987,1.987,0,0,0,2.06,1.946,2.972,2.972,0,0,0,1.622-.506l.558,1.017a4.335,4.335,0,0,1-2.4.757A3.372,3.372,0,0,1,661.092,422.146Zm4.689-.672c0-1.075-.479-1.73-1.434-1.73a1.754,1.754,0,0,0-1.674,1.73Z" transform="translate(-630.747 -415.414)" fill="#565555"/>
      <path id="Контур_537" data-name="Контур 537" d="M665.066,418.646h1.346l.124.954h.046a3,3,0,0,1,2.145-1.124,1.885,1.885,0,0,1,1.93,1.251,3.158,3.158,0,0,1,2.247-1.251c1.475,0,2.156,1.012,2.156,2.776v4.382h-1.637v-4.172c0-1.149-.342-1.581-1.077-1.581a2.147,2.147,0,0,0-1.461.871v4.882h-1.641v-4.172c0-1.149-.34-1.581-1.073-1.581a2.172,2.172,0,0,0-1.463.871v4.882h-1.641Z" transform="translate(-627.05 -415.414)" fill="#565555"/>
      <path id="Контур_538" data-name="Контур 538" d="M671.183,417.9a1.016,1.016,0,1,1,1.012.927A.935.935,0,0,1,671.183,417.9Zm.186,2.151h1.641v6.988h-1.641Z" transform="translate(-621.358 -416.816)" fill="#565555"/>
      <path id="Контур_539" data-name="Контур 539" d="M674.5,422.131c0-3.046,1.93-4.855,4.405-4.855a3.821,3.821,0,0,1,2.811,1.177l-.882,1.064a2.512,2.512,0,0,0-1.878-.807c-1.649,0-2.759,1.28-2.759,3.369,0,2.121.985,3.409,2.849,3.409a2.08,2.08,0,0,0,1.328-.411v-2.008h-1.753v-1.355h3.231v4.1a4.231,4.231,0,0,1-2.971,1.1C676.377,426.921,674.5,425.208,674.5,422.131Z" transform="translate(-618.267 -416.531)" fill="#565555"/>
      <path id="Контур_540" data-name="Контур 540" d="M679.074,422.146a3.4,3.4,0,0,1,3.222-3.67c1.89,0,2.884,1.365,2.884,3.317a4.119,4.119,0,0,1-.071.8h-4.436a1.989,1.989,0,0,0,2.062,1.946,2.982,2.982,0,0,0,1.622-.506l.558,1.017a4.341,4.341,0,0,1-2.4.757A3.372,3.372,0,0,1,679.074,422.146Zm4.689-.672c0-1.075-.477-1.73-1.432-1.73a1.753,1.753,0,0,0-1.674,1.73Z" transform="translate(-614.016 -415.414)" fill="#565555"/>
      <path id="Контур_541" data-name="Контур 541" d="M683.049,418.646h1.344l.125.944h.044a3.265,3.265,0,0,1,2.293-1.114c1.5,0,2.152,1.012,2.152,2.776v4.382h-1.639v-4.172c0-1.149-.33-1.581-1.087-1.581a2.2,2.2,0,0,0-1.595.871v4.882h-1.639Z" transform="translate(-610.317 -415.414)" fill="#565555"/>
      <path id="Контур_542" data-name="Контур 542" d="M686.938,422.146a3.4,3.4,0,0,1,3.22-3.67c1.89,0,2.886,1.365,2.886,3.317a4.07,4.07,0,0,1-.073.8h-4.434a1.987,1.987,0,0,0,2.06,1.946,2.976,2.976,0,0,0,1.621-.506l.558,1.017a4.334,4.334,0,0,1-2.4.757A3.372,3.372,0,0,1,686.938,422.146Zm4.687-.672c0-1.075-.477-1.73-1.432-1.73a1.754,1.754,0,0,0-1.674,1.73Z" transform="translate(-606.699 -415.414)" fill="#565555"/>
      <path id="Контур_543" data-name="Контур 543" d="M690.692,423.54c0-2.276,1.431-3.67,2.961-3.67a2.569,2.569,0,0,1,1.832.768l-.062-1.127v-2.533h1.637v10.05h-1.342l-.127-.757h-.044a2.932,2.932,0,0,1-1.986.927C691.819,427.2,690.692,425.845,690.692,423.54Zm4.732,1.519V421.8a2.073,2.073,0,0,0-1.425-.581c-.888,0-1.622.842-1.622,2.3,0,1.519.579,2.322,1.589,2.322A1.851,1.851,0,0,0,695.423,425.059Z" transform="translate(-603.206 -416.808)" fill="#565555"/>
      <path id="Контур_544" data-name="Контур 544" d="M695.069,425.229v-8.251h1.641v8.338c0,.4.181.546.353.546a.938.938,0,0,0,.255-.029l.207,1.224a2.32,2.32,0,0,1-.865.141C695.5,427.2,695.069,426.447,695.069,425.229Z" transform="translate(-599.133 -416.808)" fill="#565555"/>
      <path id="Контур_545" data-name="Контур 545" d="M696.872,423.756c0-1.5,1.241-2.276,4.11-2.583-.023-.751-.324-1.376-1.268-1.376a3.869,3.869,0,0,0-1.965.687l-.6-1.093a5.457,5.457,0,0,1,2.869-.915c1.745,0,2.606,1.075,2.606,3.021v4.137h-1.344l-.125-.774h-.046a3.373,3.373,0,0,1-2.168.944A1.958,1.958,0,0,1,696.872,423.756Zm4.11.006V422.19c-1.9.239-2.529.736-2.529,1.44,0,.618.423.888,1.01.888A2.2,2.2,0,0,0,700.982,423.761Z" transform="translate(-597.456 -415.414)" fill="#565555"/>
      <path id="Контур_546" data-name="Контур 546" d="M700.631,422.146a3.4,3.4,0,0,1,3.222-3.67c1.888,0,2.884,1.365,2.884,3.317a4.282,4.282,0,0,1-.071.8h-4.436a1.987,1.987,0,0,0,2.06,1.946,2.972,2.972,0,0,0,1.622-.506l.558,1.017a4.33,4.33,0,0,1-2.4.757A3.372,3.372,0,0,1,700.631,422.146Zm4.689-.672c0-1.075-.477-1.73-1.434-1.73a1.755,1.755,0,0,0-1.674,1.73Z" transform="translate(-593.958 -415.414)" fill="#565555"/>
      <path id="Контур_547" data-name="Контур 547" d="M705.138,424.114v-3.328h-.994v-1.23l1.081-.073.193-1.907h1.361v1.907h1.782v1.3h-1.782v3.326c0,.822.319,1.228.988,1.228a2.179,2.179,0,0,0,.728-.16l.28,1.207a4.517,4.517,0,0,1-1.427.255C705.737,426.641,705.138,425.624,705.138,424.114Z" transform="translate(-590.69 -416.252)" fill="#565555"/>
      <path id="Контур_548" data-name="Контур 548" d="M707.193,416.978h1.641v2.6l-.068,1.349A3.225,3.225,0,0,1,711,419.87c1.5,0,2.151,1.012,2.151,2.776v4.382h-1.637v-4.172c0-1.149-.33-1.581-1.089-1.581a2.2,2.2,0,0,0-1.593.871v4.882h-1.641Z" transform="translate(-587.853 -416.808)" fill="#565555"/>
      <path id="Контур_549" data-name="Контур 549" d="M711.067,422.146a3.339,3.339,0,1,1,3.324,3.658A3.385,3.385,0,0,1,711.067,422.146Zm4.963,0c0-1.4-.616-2.334-1.639-2.334s-1.641.934-1.641,2.334.616,2.322,1.641,2.322S716.03,423.545,716.03,422.146Z" transform="translate(-584.248 -415.414)" fill="#565555"/>
      <path id="Контур_550" data-name="Контур 550" d="M715.308,425.229v-8.251h1.639v8.338c0,.4.181.546.353.546a.958.958,0,0,0,.257-.029l.2,1.224a2.311,2.311,0,0,1-.865.141C715.735,427.2,715.308,426.447,715.308,425.229Z" transform="translate(-580.302 -416.808)" fill="#565555"/>
      <path id="Контур_551" data-name="Контур 551" d="M718.584,423.756c0-1.5,1.241-2.276,4.11-2.583-.023-.751-.324-1.376-1.268-1.376a3.864,3.864,0,0,0-1.965.687l-.6-1.093a5.458,5.458,0,0,1,2.869-.915c1.745,0,2.606,1.075,2.606,3.021v4.137h-1.344l-.125-.774h-.046a3.374,3.374,0,0,1-2.168.944A1.958,1.958,0,0,1,718.584,423.756Zm4.11.006V422.19c-1.9.239-2.529.736-2.529,1.44,0,.618.423.888,1.01.888A2.2,2.2,0,0,0,722.694,423.761Z" transform="translate(-577.254 -415.414)" fill="#565555"/>
      <path id="Контур_552" data-name="Контур 552" d="M722.581,418.646h1.344l.125,1.245h.044a2.39,2.39,0,0,1,1.988-1.415,1.79,1.79,0,0,1,.791.141l-.286,1.423a2.4,2.4,0,0,0-.718-.114c-.558,0-1.23.382-1.649,1.446v4.262h-1.641Z" transform="translate(-573.535 -415.414)" fill="#565555"/>
      <path id="Контур_553" data-name="Контур 553" d="M726.558,426.9a1.782,1.782,0,0,1,1.006-1.49v-.056a1.33,1.33,0,0,1-.631-1.168,1.689,1.689,0,0,1,.774-1.3v-.058a2.318,2.318,0,0,1-.921-1.844,2.542,2.542,0,0,1,2.758-2.508,3.14,3.14,0,0,1,1.037.17h2.5v1.218H731.8a1.826,1.826,0,0,1,.4,1.172,2.381,2.381,0,0,1-2.656,2.384,2.636,2.636,0,0,1-.944-.185.808.808,0,0,0-.344.67c0,.392.286.631,1.133.631h1.245c1.67,0,2.558.517,2.558,1.724,0,1.378-1.446,2.465-3.729,2.465C727.8,428.725,726.558,428.126,726.558,426.9Zm5.052-.374c0-.541-.432-.7-1.232-.7h-.96a3.734,3.734,0,0,1-.944-.1,1.16,1.16,0,0,0-.541.923c0,.637.683,1.006,1.78,1.006C730.842,427.659,731.61,427.13,731.61,426.528Zm-.853-5.544a1.221,1.221,0,1,0-2.423,0,1.225,1.225,0,1,0,2.423,0Z" transform="translate(-569.835 -415.414)" fill="#565555"/>
      <path id="Контур_554" data-name="Контур 554" d="M730.681,428.278l.3-1.268a1.979,1.979,0,0,0,.5.1,1.477,1.477,0,0,0,1.392-1.2l.133-.438-2.749-6.9h1.66l1.207,3.427c.21.62.409,1.309.614,1.975h.058c.177-.651.351-1.338.535-1.975l1.041-3.427h1.583l-2.527,7.307c-.581,1.573-1.315,2.55-2.84,2.55A2.682,2.682,0,0,1,730.681,428.278Z" transform="translate(-566.39 -415.332)" fill="#565555"/>
      <path id="Контур_555" data-name="Контур 555" d="M734.017,420.195l1.025-.073h2.919v1.3h-3.944Zm.938-.8c0-1.448.668-2.508,2.317-2.508a3.541,3.541,0,0,1,1.28.243l-.313,1.224a1.957,1.957,0,0,0-.755-.166c-.581,0-.888.369-.888,1.18v7.739h-1.641Z" transform="translate(-562.894 -416.89)" fill="#565555"/>
      <path id="Контур_556" data-name="Контур 556" d="M736.383,422.146a3.4,3.4,0,0,1,3.222-3.67c1.888,0,2.884,1.365,2.884,3.317a4.251,4.251,0,0,1-.072.8h-4.436a1.987,1.987,0,0,0,2.06,1.946,2.971,2.971,0,0,0,1.621-.506l.558,1.017a4.33,4.33,0,0,1-2.4.757A3.372,3.372,0,0,1,736.383,422.146Zm4.689-.672c0-1.075-.479-1.73-1.435-1.73a1.754,1.754,0,0,0-1.674,1.73Z" transform="translate(-560.693 -415.414)" fill="#565555"/>
      <path id="Контур_557" data-name="Контур 557" d="M740.357,418.646H741.7l.123,1.245h.047a2.385,2.385,0,0,1,1.986-1.415,1.787,1.787,0,0,1,.792.141l-.284,1.423a2.406,2.406,0,0,0-.718-.114c-.56,0-1.23.382-1.651,1.446v4.262h-1.641Z" transform="translate(-556.995 -415.414)" fill="#565555"/>
      <path id="Контур_558" data-name="Контур 558" d="M648.406,425.208h1.934l3.035,9.3h-1.747l-1.417-4.952c-.3-.983-.57-2.044-.844-3.066h-.056c-.257,1.029-.529,2.083-.826,3.066l-1.428,4.952h-1.683Zm-1.239,5.49h4.38v1.293h-4.38Z" transform="translate(-645.373 -409.15)" fill="#565555"/>
      <path id="Контур_559" data-name="Контур 559" d="M650.039,426.49h1.344l.126,1.247h.044a2.389,2.389,0,0,1,1.989-1.417,1.764,1.764,0,0,1,.791.143l-.286,1.421a2.393,2.393,0,0,0-.718-.114c-.558,0-1.23.382-1.649,1.446v4.262h-1.641Z" transform="translate(-641.031 -408.116)" fill="#565555"/>
      <path id="Контур_560" data-name="Контур 560" d="M652.515,426.408h1.645l.847,3.625c.137.678.239,1.332.365,2.015h.056c.137-.683.274-1.355.444-2.015l.917-3.625h1.485l.932,3.625c.172.678.309,1.332.463,2.015h.056c.135-.683.239-1.338.374-2.015l.838-3.625h1.531L660.7,433.4h-1.946l-.82-3.261c-.149-.654-.272-1.3-.419-2.029h-.06c-.135.732-.255,1.386-.415,2.04l-.791,3.249h-1.888Z" transform="translate(-638.728 -408.034)" fill="#565555"/>
      <path id="Контур_561" data-name="Контур 561" d="M658.106,429.99a3.4,3.4,0,0,1,3.222-3.67c1.89,0,2.886,1.365,2.886,3.319a4.061,4.061,0,0,1-.073.8h-4.434a1.987,1.987,0,0,0,2.06,1.946,2.977,2.977,0,0,0,1.621-.506l.558,1.019a4.334,4.334,0,0,1-2.4.757A3.375,3.375,0,0,1,658.106,429.99Zm4.689-.67c0-1.077-.477-1.732-1.432-1.732a1.754,1.754,0,0,0-1.674,1.732Z" transform="translate(-633.526 -408.116)" fill="#565555"/>
      <path id="Контур_562" data-name="Контур 562" d="M661.984,425.742a1.017,1.017,0,1,1,1.013.927A.937.937,0,0,1,661.984,425.742Zm.187,2.15h1.641v6.988h-1.641Z" transform="translate(-629.917 -409.518)" fill="#565555"/>
      <path id="Контур_563" data-name="Контур 563" d="M664.013,426.49h1.344l.124.944h.046a3.264,3.264,0,0,1,2.293-1.114c1.5,0,2.152,1.014,2.152,2.776v4.382h-1.639v-4.172c0-1.149-.33-1.581-1.087-1.581a2.2,2.2,0,0,0-1.594.871v4.882h-1.639Z" transform="translate(-628.029 -408.116)" fill="#565555"/>
      <path id="Контур_564" data-name="Контур 564" d="M668.11,436.122l.3-1.268a1.912,1.912,0,0,0,.5.1,1.475,1.475,0,0,0,1.394-1.2l.131-.438-2.749-6.9h1.662l1.207,3.427c.21.62.409,1.309.614,1.975h.056c.178-.649.353-1.338.537-1.975l1.041-3.427h1.583l-2.527,7.307c-.581,1.573-1.315,2.55-2.84,2.55A2.7,2.7,0,0,1,668.11,436.122Z" transform="translate(-624.609 -408.034)" fill="#565555"/>
      <path id="Контур_565" data-name="Контур 565" d="M671.522,431.384c0-2.276,1.431-3.67,2.961-3.67a2.57,2.57,0,0,1,1.832.768l-.062-1.127v-2.533h1.637v10.05h-1.342l-.126-.757h-.046a2.93,2.93,0,0,1-1.986.929C672.649,435.044,671.522,433.689,671.522,431.384Zm4.732,1.519v-3.255a2.074,2.074,0,0,0-1.425-.581c-.888,0-1.62.844-1.62,2.3,0,1.521.577,2.322,1.587,2.322A1.846,1.846,0,0,0,676.254,432.9Z" transform="translate(-621.043 -409.51)" fill="#565555"/>
      <path id="Контур_566" data-name="Контур 566" d="M675.68,431.384c0-2.276,1.428-3.67,2.959-3.67a2.569,2.569,0,0,1,1.832.768l-.062-1.127v-2.533h1.639v10.05H680.7l-.126-.757h-.046a2.926,2.926,0,0,1-1.986.929C676.807,435.044,675.68,433.689,675.68,431.384Zm4.73,1.519v-3.255a2.069,2.069,0,0,0-1.423-.581c-.888,0-1.622.844-1.622,2.3,0,1.521.579,2.322,1.587,2.322A1.843,1.843,0,0,0,680.409,432.9Z" transform="translate(-617.174 -409.51)" fill="#565555"/>
      <path id="Контур_567" data-name="Контур 567" d="M679.96,425.742a1.017,1.017,0,1,1,1.012.927A.937.937,0,0,1,679.96,425.742Zm.187,2.15h1.639v6.988h-1.639Z" transform="translate(-613.191 -409.518)" fill="#565555"/>
      <path id="Контур_568" data-name="Контур 568" d="M681.793,431.6c0-1.5,1.241-2.278,4.11-2.585-.023-.751-.324-1.376-1.268-1.376a3.862,3.862,0,0,0-1.965.687l-.6-1.093a5.458,5.458,0,0,1,2.869-.915c1.745,0,2.606,1.075,2.606,3.021v4.137H686.2l-.125-.774h-.046a3.376,3.376,0,0,1-2.168.946A1.957,1.957,0,0,1,681.793,431.6Zm4.11.006v-1.571c-1.9.239-2.529.734-2.529,1.44,0,.618.423.888,1.01.888A2.211,2.211,0,0,0,685.9,431.607Z" transform="translate(-611.486 -408.116)" fill="#565555"/>
      <path id="Контур_569" data-name="Контур 569" d="M685.553,429.99a3.4,3.4,0,0,1,3.222-3.67c1.888,0,2.884,1.365,2.884,3.319a4.265,4.265,0,0,1-.071.8h-4.436a1.987,1.987,0,0,0,2.06,1.946,2.977,2.977,0,0,0,1.622-.506l.558,1.019a4.335,4.335,0,0,1-2.4.757A3.374,3.374,0,0,1,685.553,429.99Zm4.687-.67c0-1.077-.477-1.732-1.432-1.732a1.754,1.754,0,0,0-1.674,1.732Z" transform="translate(-607.988 -408.116)" fill="#565555"/>
      <path id="Контур_570" data-name="Контур 570" d="M690.06,431.96v-3.33h-1V427.4l1.083-.073.193-1.907H691.7v1.907h1.782v1.3H691.7v3.326c0,.822.318,1.228.988,1.228a2.188,2.188,0,0,0,.728-.16l.28,1.207a4.511,4.511,0,0,1-1.427.257C690.659,434.487,690.06,433.468,690.06,431.96Z" transform="translate(-604.721 -408.953)" fill="#565555"/>
      <path id="Контур_571" data-name="Контур 571" d="M692.114,424.822h1.641v2.6l-.068,1.349a3.221,3.221,0,0,1,2.235-1.058c1.5,0,2.15,1.014,2.15,2.776v4.382h-1.637V430.7c0-1.149-.33-1.581-1.089-1.581a2.2,2.2,0,0,0-1.593.871v4.882h-1.641Z" transform="translate(-601.883 -409.51)" fill="#565555"/>
      <path id="Контур_572" data-name="Контур 572" d="M700.181,425.208h1.934l3.033,9.3H703.4l-1.419-4.952c-.3-.983-.569-2.044-.842-3.066h-.056c-.257,1.029-.531,2.083-.826,3.066l-1.429,4.952h-1.685Zm-1.241,5.49h4.382v1.293h-4.382Z" transform="translate(-597.201 -409.15)" fill="#565555"/>
      <path id="Контур_573" data-name="Контур 573" d="M701.592,431.384c0-2.276,1.428-3.67,2.959-3.67a2.57,2.57,0,0,1,1.832.768l-.062-1.127v-2.533h1.639v10.05h-1.344l-.125-.757h-.046a2.927,2.927,0,0,1-1.986.929C702.719,435.044,701.592,433.689,701.592,431.384Zm4.73,1.519v-3.255a2.069,2.069,0,0,0-1.423-.581c-.888,0-1.622.844-1.622,2.3,0,1.521.579,2.322,1.587,2.322A1.843,1.843,0,0,0,706.322,432.9Z" transform="translate(-593.064 -409.51)" fill="#565555"/>
      <path id="Контур_574" data-name="Контур 574" d="M705.749,431.384c0-2.276,1.429-3.67,2.959-3.67a2.571,2.571,0,0,1,1.832.768l-.062-1.127v-2.533h1.639v10.05h-1.342l-.127-.757H710.6a2.934,2.934,0,0,1-1.988.929C706.876,435.044,705.749,433.689,705.749,431.384Zm4.729,1.519v-3.255a2.069,2.069,0,0,0-1.423-.581c-.888,0-1.622.844-1.622,2.3,0,1.521.579,2.322,1.587,2.322A1.84,1.84,0,0,0,710.478,432.9Z" transform="translate(-589.196 -409.51)" fill="#565555"/>
      <path id="Контур_575" data-name="Контур 575" d="M710.1,436.122l.3-1.268a1.9,1.9,0,0,0,.5.1,1.475,1.475,0,0,0,1.392-1.2l.133-.438-2.749-6.9h1.66l1.207,3.427c.212.62.409,1.309.614,1.975h.058c.178-.649.351-1.338.535-1.975l1.041-3.427h1.585l-2.529,7.307c-.581,1.573-1.315,2.55-2.84,2.55A2.682,2.682,0,0,1,710.1,436.122Z" transform="translate(-585.542 -408.034)" fill="#565555"/>
      <path id="Контур_576" data-name="Контур 576" d="M713.415,432.677l.764-1.042a3.073,3.073,0,0,0,1.929.78c.762,0,1.122-.357,1.122-.838,0-.585-.759-.847-1.5-1.131-.915-.344-1.963-.871-1.963-2.037,0-1.212.981-2.089,2.544-2.089a3.755,3.755,0,0,1,2.32.836l-.749,1.008a2.612,2.612,0,0,0-1.531-.61c-.7,0-1.039.336-1.039.774,0,.552.708.763,1.463,1.042.946.353,2,.807,2,2.112,0,1.2-.95,2.168-2.714,2.168A4.382,4.382,0,0,1,713.415,432.677Z" transform="translate(-582.063 -408.116)" fill="#565555"/>
      <path id="Контур_577" data-name="Контур 577" d="M716.7,434.748a1.78,1.78,0,0,1,1.008-1.49V433.2a1.328,1.328,0,0,1-.633-1.168,1.7,1.7,0,0,1,.776-1.3v-.056a2.326,2.326,0,0,1-.923-1.844,2.544,2.544,0,0,1,2.761-2.51,3.131,3.131,0,0,1,1.035.17h2.5v1.218h-1.274a1.836,1.836,0,0,1,.4,1.172,2.381,2.381,0,0,1-2.656,2.384,2.674,2.674,0,0,1-.944-.183.8.8,0,0,0-.344.668c0,.392.284.631,1.133.631h1.243c1.672,0,2.56.519,2.56,1.726,0,1.376-1.446,2.463-3.73,2.463C717.945,436.569,716.7,435.97,716.7,434.748Zm5.052-.376c0-.54-.43-.7-1.23-.7h-.96a3.853,3.853,0,0,1-.946-.095,1.159,1.159,0,0,0-.541.921c0,.637.683,1.008,1.782,1.008C720.99,435.505,721.756,434.976,721.756,434.372Zm-.851-5.542a1.222,1.222,0,1,0-2.425,0,1.226,1.226,0,1,0,2.425,0Z" transform="translate(-579.003 -408.116)" fill="#565555"/>
      <path id="Контур_578" data-name="Контур 578" d="M720.427,429.99a3.339,3.339,0,1,1,3.322,3.66A3.385,3.385,0,0,1,720.427,429.99Zm4.961,0c0-1.4-.614-2.332-1.639-2.332s-1.639.932-1.639,2.332.614,2.322,1.639,2.322S725.388,431.389,725.388,429.99Z" transform="translate(-575.539 -408.116)" fill="#565555"/>
      <path id="Контур_579" data-name="Контур 579" d="M724.667,433.075v-8.253h1.641v8.338c0,.4.18.546.351.546a.947.947,0,0,0,.257-.029l.2,1.224a2.306,2.306,0,0,1-.865.143C725.1,435.044,724.667,434.293,724.667,433.075Z" transform="translate(-571.594 -409.51)" fill="#565555"/>
      <path id="Контур_580" data-name="Контур 580" d="M727.959,429.975c0-3.044,1.907-4.855,4.262-4.855A3.706,3.706,0,0,1,734.9,426.3l-.882,1.064a2.429,2.429,0,0,0-1.764-.807c-1.515,0-2.6,1.28-2.6,3.369,0,2.124,1,3.409,2.56,3.409a2.616,2.616,0,0,0,1.986-.958l.882,1.037a3.709,3.709,0,0,1-2.93,1.355C729.814,434.766,727.959,433.052,727.959,429.975Z" transform="translate(-568.531 -409.232)" fill="#565555"/>
      <path id="Контур_581" data-name="Контур 581" d="M732.236,436.122l.3-1.268a1.911,1.911,0,0,0,.5.1,1.476,1.476,0,0,0,1.394-1.2l.131-.438-2.749-6.9h1.662l1.207,3.427c.21.62.409,1.309.614,1.975h.056c.178-.649.353-1.338.537-1.975l1.041-3.427h1.583l-2.527,7.307c-.581,1.573-1.315,2.55-2.84,2.55A2.7,2.7,0,0,1,732.236,436.122Z" transform="translate(-564.943 -408.034)" fill="#565555"/>
      <path id="Контур_582" data-name="Контур 582" d="M735.914,426.49h1.344l.126.954h.044a3.009,3.009,0,0,1,2.147-1.124,1.887,1.887,0,0,1,1.93,1.251,3.161,3.161,0,0,1,2.247-1.251c1.473,0,2.156,1.014,2.156,2.776v4.382h-1.639v-4.172c0-1.149-.342-1.581-1.075-1.581a2.147,2.147,0,0,0-1.461.871v4.882h-1.641v-4.172c0-1.149-.342-1.581-1.075-1.581a2.174,2.174,0,0,0-1.461.871v4.882h-1.641Z" transform="translate(-561.129 -408.116)" fill="#565555"/>
      <path id="Контур_583" data-name="Контур 583" d="M742.127,426.49h1.344l.125,1.247h.044a2.388,2.388,0,0,1,1.987-1.417,1.767,1.767,0,0,1,.793.143l-.286,1.421a2.4,2.4,0,0,0-.718-.114c-.558,0-1.23.382-1.649,1.446v4.262h-1.641Z" transform="translate(-555.348 -408.116)" fill="#565555"/>
      <path id="Контур_584" data-name="Контур 584" d="M744.835,430.79v-4.382h1.641v4.172c0,1.151.328,1.583,1.085,1.583.614,0,1.017-.286,1.548-.969v-4.786h1.639V433.4H749.4l-.124-1.029h-.046a2.848,2.848,0,0,1-2.249,1.2C745.489,433.568,744.835,432.555,744.835,430.79Z" transform="translate(-552.829 -408.034)" fill="#565555"/>
    </g>
  </g>
</svg>
