<svg xmlns="http://www.w3.org/2000/svg" width="222.222" height="55.458" viewBox="0 0 222.222 55.458">
  <g id="Сгруппировать_749" data-name="Сгруппировать 749" transform="translate(-604.926 -415.288)">
    <path id="Контур_487" data-name="Контур 487" d="M632.655,415.288a27.729,27.729,0,1,0,27.729,27.729A27.728,27.728,0,0,0,632.655,415.288Zm-17,40.8a3.862,3.862,0,1,1,3.861-3.861A3.861,3.861,0,0,1,615.651,456.085Zm5.662-8.731a3.861,3.861,0,1,1,3.861-3.861A3.861,3.861,0,0,1,621.313,447.355Zm5.679-8.651a3.861,3.861,0,1,1,3.861-3.861A3.862,3.862,0,0,1,626.992,438.7Zm1.8-12.633a3.861,3.861,0,1,1,3.861,3.862A3.861,3.861,0,0,1,628.794,426.07Zm5.662,8.772a3.862,3.862,0,1,1,3.861,3.861A3.861,3.861,0,0,1,634.456,434.843Zm5.679,8.651A3.861,3.861,0,1,1,644,447.355,3.861,3.861,0,0,1,640.136,443.494Zm9.523,12.607a3.861,3.861,0,1,1,3.861-3.861A3.861,3.861,0,0,1,649.659,456.1Z" fill="#fff"/>
    <g id="Сгруппировать_680" data-name="Сгруппировать 680" transform="translate(668.746 445.813)">
      <g id="Сгруппировать_679" data-name="Сгруппировать 679">
        <path id="Контур_488" data-name="Контур 488" d="M645.986,435.4h1.366l2.327,4.211.774,1.6h.047c-.064-.774-.169-1.724-.169-2.557V435.4H651.6v7.492h-1.366l-2.327-4.218-.774-1.593h-.048c.065.794.171,1.7.171,2.53v3.281h-1.265Z" transform="translate(-645.986 -434.664)" fill="#fff"/>
        <path id="Контур_489" data-name="Контур 489" d="M650.553,440.766c0-1.2,1-1.832,3.309-2.08-.019-.606-.261-1.11-1.023-1.11a3.1,3.1,0,0,0-1.581.555l-.487-.88a4.386,4.386,0,0,1,2.311-.738c1.405,0,2.1.866,2.1,2.434v3.331H654.1l-.1-.623h-.037a2.717,2.717,0,0,1-1.746.76A1.576,1.576,0,0,1,650.553,440.766Zm3.309,0v-1.265c-1.528.193-2.036.591-2.036,1.159,0,.5.34.715.813.715A1.777,1.777,0,0,0,653.862,440.77Z" transform="translate(-643.454 -434.048)" fill="#fff"/>
        <path id="Контур_490" data-name="Контур 490" d="M654.845,440.878V438.2h-.8v-.99l.872-.059.154-1.536h1.1v1.536H657.6V438.2h-1.435v2.678c0,.662.256.987.8.987a1.733,1.733,0,0,0,.586-.129l.224.971a3.632,3.632,0,0,1-1.149.207C655.325,442.913,654.845,442.092,654.845,440.878Z" transform="translate(-641.52 -434.546)" fill="#fff"/>
        <path id="Контур_491" data-name="Контур 491" d="M657,435.753a.818.818,0,1,1,.816.748A.753.753,0,0,1,657,435.753Zm.151,1.733h1.32v5.627h-1.32Z" transform="translate(-639.883 -434.883)" fill="#fff"/>
        <path id="Контур_492" data-name="Контур 492" d="M658.785,439.469a2.689,2.689,0,1,1,2.677,2.945A2.726,2.726,0,0,1,658.785,439.469Zm3.995,0c0-1.128-.494-1.879-1.318-1.879s-1.321.751-1.321,1.879.5,1.868,1.321,1.868S662.78,440.6,662.78,439.469Z" transform="translate(-638.891 -434.048)" fill="#fff"/>
        <path id="Контур_493" data-name="Контур 493" d="M663.069,436.651h1.083l.1.76h.037a2.623,2.623,0,0,1,1.846-.9c1.2,0,1.732.816,1.732,2.237v3.528h-1.318v-3.359c0-.926-.266-1.275-.877-1.275a1.769,1.769,0,0,0-1.282.7v3.932h-1.321Z" transform="translate(-636.517 -434.048)" fill="#fff"/>
        <path id="Контур_494" data-name="Контур 494" d="M667,440.766c0-1.2,1-1.832,3.309-2.08-.019-.606-.261-1.11-1.021-1.11a3.1,3.1,0,0,0-1.582.555l-.485-.88a4.381,4.381,0,0,1,2.31-.738c1.405,0,2.1.866,2.1,2.434v3.331h-1.08l-.1-.623h-.037a2.717,2.717,0,0,1-1.745.76A1.576,1.576,0,0,1,667,440.766Zm3.309,0v-1.265c-1.528.193-2.036.591-2.036,1.159,0,.5.34.715.813.715A1.774,1.774,0,0,0,670.311,440.77Z" transform="translate(-634.337 -434.048)" fill="#fff"/>
        <path id="Контур_495" data-name="Контур 495" d="M671,441.659v-6.643h1.321v6.712c0,.325.145.44.283.44a.818.818,0,0,0,.207-.022l.166.984a1.838,1.838,0,0,1-.7.115C671.344,443.244,671,442.64,671,441.659Z" transform="translate(-632.121 -434.878)" fill="#fff"/>
        <path id="Контур_496" data-name="Контур 496" d="M676.359,435.4h1.557l2.443,7.492h-1.407l-1.141-3.987c-.238-.793-.458-1.648-.679-2.47h-.045c-.207.83-.426,1.677-.665,2.47l-1.15,3.987h-1.355Zm-1,4.419h3.527v1.043h-3.527Z" transform="translate(-630.504 -434.664)" fill="#fff"/>
        <path id="Контур_497" data-name="Контур 497" d="M678.345,439.469a2.781,2.781,0,0,1,2.821-2.956,2.407,2.407,0,0,1,1.646.633l-.64.856a1.385,1.385,0,0,0-.936-.412c-.908,0-1.536.751-1.536,1.879s.619,1.868,1.5,1.868a1.848,1.848,0,0,0,1.163-.485l.536.87a2.774,2.774,0,0,1-1.837.692A2.678,2.678,0,0,1,678.345,439.469Z" transform="translate(-628.049 -434.048)" fill="#fff"/>
        <path id="Контур_498" data-name="Контур 498" d="M681.72,440.766c0-1.2,1-1.832,3.309-2.08-.019-.606-.261-1.11-1.023-1.11a3.1,3.1,0,0,0-1.581.555l-.486-.88a4.386,4.386,0,0,1,2.311-.738c1.405,0,2.1.866,2.1,2.434v3.331h-1.08l-.1-.623h-.037a2.716,2.716,0,0,1-1.745.76A1.576,1.576,0,0,1,681.72,440.766Zm3.309,0v-1.265c-1.528.193-2.036.591-2.036,1.159,0,.5.34.715.813.715A1.777,1.777,0,0,0,685.029,440.77Z" transform="translate(-626.179 -434.048)" fill="#fff"/>
        <path id="Контур_499" data-name="Контур 499" d="M685.5,440.3c0-1.834,1.15-2.956,2.383-2.956a2.082,2.082,0,0,1,1.477.619l-.051-.908v-2.038h1.32v8.092h-1.08l-.1-.609H689.4a2.361,2.361,0,0,1-1.6.746C686.4,443.244,685.5,442.153,685.5,440.3Zm3.808,1.223V438.9a1.659,1.659,0,0,0-1.145-.468c-.715,0-1.306.678-1.306,1.851,0,1.223.466,1.868,1.278,1.868A1.484,1.484,0,0,0,689.3,441.522Z" transform="translate(-624.085 -434.878)" fill="#fff"/>
        <path id="Контур_500" data-name="Контур 500" d="M689.636,439.469a2.739,2.739,0,0,1,2.594-2.956c1.52,0,2.322,1.1,2.322,2.672a3.45,3.45,0,0,1-.058.642h-3.572a1.6,1.6,0,0,0,1.658,1.567,2.385,2.385,0,0,0,1.306-.409l.449.821a3.489,3.489,0,0,1-1.929.609A2.716,2.716,0,0,1,689.636,439.469Zm3.774-.541c0-.867-.384-1.394-1.153-1.394a1.413,1.413,0,0,0-1.348,1.394Z" transform="translate(-621.791 -434.048)" fill="#fff"/>
        <path id="Контур_501" data-name="Контур 501" d="M693.61,436.651h1.083l.1.766h.037a2.419,2.419,0,0,1,1.727-.9,1.519,1.519,0,0,1,1.554,1.009,2.544,2.544,0,0,1,1.809-1.009c1.188,0,1.736.816,1.736,2.237v3.528h-1.32v-3.359c0-.926-.273-1.275-.866-1.275a1.734,1.734,0,0,0-1.177.7v3.932h-1.321v-3.359c0-.926-.273-1.275-.864-1.275a1.756,1.756,0,0,0-1.178.7v3.932H693.61Z" transform="translate(-619.588 -434.048)" fill="#fff"/>
        <path id="Контур_502" data-name="Контур 502" d="M699.712,444.423l.243-1.021a1.592,1.592,0,0,0,.4.076,1.19,1.19,0,0,0,1.122-.967l.106-.353-2.213-5.557h1.337l.971,2.757c.171.5.33,1.054.5,1.59h.045c.143-.522.284-1.076.431-1.59l.838-2.757h1.276l-2.036,5.883c-.468,1.267-1.057,2.053-2.285,2.053A2.206,2.206,0,0,1,699.712,444.423Z" transform="translate(-616.393 -433.999)" fill="#fff"/>
        <path id="Контур_503" data-name="Контур 503" d="M704.6,437.59l.825-.059h2.349v1.049H704.6Zm.755-.642c0-1.166.538-2.021,1.865-2.021a2.849,2.849,0,0,1,1.031.2l-.252.985a1.583,1.583,0,0,0-.609-.134c-.466,0-.715.3-.715.948v6.233h-1.32Z" transform="translate(-613.494 -434.927)" fill="#fff"/>
        <path id="Контур_504" data-name="Контур 504" d="M706.97,439.469a2.688,2.688,0,1,1,2.675,2.945A2.726,2.726,0,0,1,706.97,439.469Zm3.995,0c0-1.128-.494-1.879-1.32-1.879s-1.32.751-1.32,1.879.494,1.868,1.32,1.868S710.964,440.6,710.964,439.469Z" transform="translate(-612.182 -434.048)" fill="#fff"/>
        <path id="Контур_505" data-name="Контур 505" d="M711.254,436.651h1.082l.1,1h.036a1.923,1.923,0,0,1,1.6-1.141,1.445,1.445,0,0,1,.639.115l-.23,1.145a1.937,1.937,0,0,0-.578-.092c-.449,0-.99.306-1.327,1.164v3.432h-1.321Z" transform="translate(-609.808 -434.048)" fill="#fff"/>
        <path id="Контур_506" data-name="Контур 506" d="M645.986,443.246H650.5v1.118h-3.18v1.921h2.694V447.4h-2.694v2.218h3.3v1.118h-4.624Z" transform="translate(-645.986 -430.316)" fill="#fff"/>
        <path id="Контур_507" data-name="Контур 507" d="M649.583,448.143c0-1.833,1.15-2.956,2.383-2.956a2.076,2.076,0,0,1,1.475.619l-.05-.908V442.86h1.32v8.092h-1.08l-.1-.609h-.036a2.362,2.362,0,0,1-1.6.746C650.491,451.089,649.583,450,649.583,448.143Zm3.808,1.223v-2.621a1.666,1.666,0,0,0-1.146-.468c-.715,0-1.306.678-1.306,1.851,0,1.223.466,1.87,1.278,1.87A1.486,1.486,0,0,0,653.391,449.366Z" transform="translate(-643.992 -430.53)" fill="#fff"/>
        <path id="Контур_508" data-name="Контур 508" d="M653.919,447.974v-3.528h1.321V447.8c0,.926.264,1.275.874,1.275.494,0,.821-.228,1.247-.779v-3.853h1.32v5.627H657.6l-.1-.83h-.037a2.289,2.289,0,0,1-1.811.967C654.446,450.209,653.919,449.393,653.919,447.974Z" transform="translate(-641.589 -429.651)" fill="#fff"/>
        <path id="Контур_509" data-name="Контур 509" d="M657.819,447.313a2.782,2.782,0,0,1,2.823-2.956,2.4,2.4,0,0,1,1.644.633l-.64.856a1.382,1.382,0,0,0-.934-.412c-.908,0-1.537.752-1.537,1.879s.62,1.868,1.5,1.868a1.844,1.844,0,0,0,1.163-.485l.538.87a2.778,2.778,0,0,1-1.839.692A2.678,2.678,0,0,1,657.819,447.313Z" transform="translate(-639.427 -429.7)" fill="#fff"/>
        <path id="Контур_510" data-name="Контур 510" d="M661.194,448.609c0-1.2,1-1.833,3.309-2.08-.017-.6-.261-1.108-1.021-1.108a3.121,3.121,0,0,0-1.582.553l-.485-.88a4.4,4.4,0,0,1,2.31-.738c1.407,0,2.1.867,2.1,2.434v3.331h-1.08l-.1-.623H664.6a2.723,2.723,0,0,1-1.745.76A1.577,1.577,0,0,1,661.194,448.609Zm3.309,0v-1.265c-1.526.193-2.035.592-2.035,1.159,0,.5.339.715.811.715A1.771,1.771,0,0,0,664.5,448.614Z" transform="translate(-637.556 -429.7)" fill="#fff"/>
        <path id="Контур_511" data-name="Контур 511" d="M665.486,448.722v-2.68h-.8v-.99l.87-.059.155-1.536h1.1v1.536h1.435v1.049h-1.435v2.678c0,.662.256.987.8.987a1.716,1.716,0,0,0,.586-.129l.225.971a3.632,3.632,0,0,1-1.149.207C665.968,450.757,665.486,449.936,665.486,448.722Z" transform="translate(-635.621 -430.198)" fill="#fff"/>
        <path id="Контур_512" data-name="Контур 512" d="M667.638,443.6a.818.818,0,1,1,.814.746A.752.752,0,0,1,667.638,443.6Zm.149,1.732h1.321v5.627h-1.321Z" transform="translate(-633.984 -430.535)" fill="#fff"/>
        <path id="Контур_513" data-name="Контур 513" d="M669.428,447.313a2.688,2.688,0,1,1,2.675,2.945A2.726,2.726,0,0,1,669.428,447.313Zm3.995,0c0-1.127-.494-1.879-1.32-1.879s-1.32.752-1.32,1.879.494,1.868,1.32,1.868S673.422,448.44,673.422,447.313Z" transform="translate(-632.992 -429.7)" fill="#fff"/>
        <path id="Контур_514" data-name="Контур 514" d="M673.712,444.5h1.082l.1.76h.036a2.631,2.631,0,0,1,1.848-.9c1.2,0,1.732.816,1.732,2.237v3.528h-1.32v-3.359c0-.925-.266-1.275-.875-1.275a1.767,1.767,0,0,0-1.282.7v3.931h-1.321Z" transform="translate(-630.617 -429.7)" fill="#fff"/>
        <path id="Контур_515" data-name="Контур 515" d="M677.645,448.609c0-1.2,1-1.833,3.308-2.08-.017-.6-.261-1.108-1.021-1.108a3.11,3.11,0,0,0-1.581.553l-.487-.88a4.4,4.4,0,0,1,2.31-.738c1.407,0,2.1.867,2.1,2.434v3.331h-1.08l-.1-.623h-.036a2.716,2.716,0,0,1-1.745.76A1.576,1.576,0,0,1,677.645,448.609Zm3.308,0v-1.265c-1.526.193-2.035.592-2.035,1.159,0,.5.34.715.811.715A1.771,1.771,0,0,0,680.953,448.614Z" transform="translate(-628.437 -429.7)" fill="#fff"/>
        <path id="Контур_516" data-name="Контур 516" d="M681.642,449.5V442.86h1.32v6.713c0,.325.146.438.284.438a.824.824,0,0,0,.207-.022l.165.985a1.86,1.86,0,0,1-.7.113C681.985,451.089,681.642,450.484,681.642,449.5Z" transform="translate(-626.222 -430.53)" fill="#fff"/>
        <path id="Контур_517" data-name="Контур 517" d="M685.188,443.246h1.327v6.374h3.112v1.118h-4.439Z" transform="translate(-624.256 -430.316)" fill="#fff"/>
        <path id="Контур_518" data-name="Контур 518" d="M688.479,447.313a2.739,2.739,0,0,1,2.593-2.956c1.522,0,2.324,1.1,2.324,2.672a3.293,3.293,0,0,1-.059.642h-3.57a1.6,1.6,0,0,0,1.658,1.567,2.386,2.386,0,0,0,1.306-.409l.449.821a3.49,3.49,0,0,1-1.929.609A2.715,2.715,0,0,1,688.479,447.313Zm3.774-.541c0-.866-.384-1.393-1.153-1.393a1.412,1.412,0,0,0-1.348,1.393Z" transform="translate(-622.432 -429.7)" fill="#fff"/>
        <path id="Контур_519" data-name="Контур 519" d="M692.171,448.609c0-1.2,1-1.833,3.309-2.08-.019-.6-.261-1.108-1.021-1.108a3.11,3.11,0,0,0-1.582.553l-.485-.88a4.4,4.4,0,0,1,2.31-.738c1.405,0,2.1.867,2.1,2.434v3.331h-1.08l-.1-.623h-.037a2.717,2.717,0,0,1-1.746.76A1.576,1.576,0,0,1,692.171,448.609Zm3.309,0v-1.265c-1.528.193-2.036.592-2.036,1.159,0,.5.34.715.813.715A1.774,1.774,0,0,0,695.48,448.614Z" transform="translate(-620.385 -429.7)" fill="#fff"/>
        <path id="Контур_520" data-name="Контур 520" d="M695.947,448.143c0-1.833,1.152-2.956,2.383-2.956a2.079,2.079,0,0,1,1.477.619l-.051-.908V442.86h1.32v8.092h-1.08l-.1-.609h-.036a2.361,2.361,0,0,1-1.6.746C696.855,451.089,695.947,450,695.947,448.143Zm3.808,1.223v-2.621a1.666,1.666,0,0,0-1.146-.468c-.715,0-1.306.678-1.306,1.851,0,1.223.466,1.87,1.279,1.87A1.485,1.485,0,0,0,699.755,449.366Z" transform="translate(-618.292 -430.53)" fill="#fff"/>
        <path id="Контур_521" data-name="Контур 521" d="M700.086,447.313a2.74,2.74,0,0,1,2.594-2.956c1.52,0,2.322,1.1,2.322,2.672a3.44,3.44,0,0,1-.058.642h-3.572a1.6,1.6,0,0,0,1.658,1.567,2.382,2.382,0,0,0,1.306-.409l.449.821a3.486,3.486,0,0,1-1.929.609A2.715,2.715,0,0,1,700.086,447.313Zm3.775-.541c0-.866-.384-1.393-1.155-1.393a1.413,1.413,0,0,0-1.347,1.393Z" transform="translate(-615.998 -429.7)" fill="#fff"/>
        <path id="Контур_522" data-name="Контур 522" d="M704.062,444.5h1.082l.1,1h.037a1.922,1.922,0,0,1,1.6-1.141,1.432,1.432,0,0,1,.637.115l-.228,1.145a1.936,1.936,0,0,0-.578-.092c-.449,0-.99.308-1.329,1.164v3.432h-1.32Z" transform="translate(-613.794 -429.7)" fill="#fff"/>
        <path id="Контур_523" data-name="Контур 523" d="M706.406,449.475l.615-.838a2.486,2.486,0,0,0,1.553.628c.614,0,.9-.289.9-.675,0-.471-.611-.682-1.209-.911-.738-.278-1.582-.7-1.582-1.641,0-.975.79-1.682,2.049-1.682a3.021,3.021,0,0,1,1.868.675l-.6.811a2.105,2.105,0,0,0-1.233-.491c-.566,0-.835.27-.835.623,0,.444.569.614,1.178.839.76.283,1.613.65,1.613,1.7,0,.967-.766,1.745-2.187,1.745A3.518,3.518,0,0,1,706.406,449.475Z" transform="translate(-612.495 -429.7)" fill="#fff"/>
        <path id="Контур_524" data-name="Контур 524" d="M709.942,442.86h1.321v2.094l-.054,1.086a2.6,2.6,0,0,1,1.8-.853c1.2,0,1.732.816,1.732,2.237v3.528h-1.318v-3.359c0-.925-.266-1.275-.877-1.275a1.772,1.772,0,0,0-1.282.7v3.931h-1.321Z" transform="translate(-610.535 -430.53)" fill="#fff"/>
        <path id="Контур_525" data-name="Контур 525" d="M713.958,443.6a.818.818,0,1,1,.814.746A.753.753,0,0,1,713.958,443.6Zm.151,1.732h1.32v5.627h-1.32Z" transform="translate(-608.309 -430.535)" fill="#fff"/>
        <path id="Контур_526" data-name="Контур 526" d="M715.985,444.5h1.083l.1.6h.037a2.726,2.726,0,0,1,1.694-.738c1.408,0,2.213,1.128,2.213,2.865,0,1.924-1.149,3.037-2.4,3.037a2.243,2.243,0,0,1-1.447-.619l.04.936v1.773h-1.321Zm3.772,2.739c0-1.122-.367-1.786-1.223-1.786a1.775,1.775,0,0,0-1.228.633V448.7a1.755,1.755,0,0,0,1.127.468C719.185,449.169,719.757,448.508,719.757,447.234Z" transform="translate(-607.185 -429.7)" fill="#fff"/>
        <path id="Контур_527" data-name="Контур 527" d="M721.166,443.246h1.365l.651,3.785c.121.8.25,1.595.371,2.392h.045c.155-.8.322-1.6.486-2.392l.922-3.785h1.153l.922,3.785c.165.777.33,1.589.494,2.392h.045c.121-.8.242-1.609.364-2.392l.65-3.785h1.275l-1.439,7.492h-1.644l-.931-3.945c-.123-.583-.233-1.155-.33-1.724h-.045c-.1.569-.216,1.141-.34,1.724l-.906,3.945h-1.618Z" transform="translate(-604.313 -430.316)" fill="#fff"/>
        <path id="Контур_528" data-name="Контур 528" d="M727.171,448.609c0-1.2,1-1.833,3.309-2.08-.019-.6-.261-1.108-1.021-1.108a3.111,3.111,0,0,0-1.582.553l-.485-.88a4.4,4.4,0,0,1,2.31-.738c1.405,0,2.1.867,2.1,2.434v3.331h-1.08l-.1-.623h-.037a2.717,2.717,0,0,1-1.746.76A1.576,1.576,0,0,1,727.171,448.609Zm3.309,0v-1.265c-1.528.193-2.036.592-2.036,1.159,0,.5.34.715.813.715A1.774,1.774,0,0,0,730.48,448.614Z" transform="translate(-600.985 -429.7)" fill="#fff"/>
        <path id="Контур_529" data-name="Контур 529" d="M731.168,449.5V442.86h1.321v6.713c0,.325.145.438.283.438a.817.817,0,0,0,.207-.022l.165.985a1.861,1.861,0,0,1-.7.113C731.513,451.089,731.168,450.484,731.168,449.5Z" transform="translate(-598.769 -430.53)" fill="#fff"/>
        <path id="Контур_530" data-name="Контур 530" d="M732.927,447.313a2.74,2.74,0,0,1,2.594-2.956c1.52,0,2.322,1.1,2.322,2.672a3.44,3.44,0,0,1-.058.642h-3.572a1.6,1.6,0,0,0,1.658,1.567,2.386,2.386,0,0,0,1.306-.409l.449.821a3.49,3.49,0,0,1-1.929.609A2.715,2.715,0,0,1,732.927,447.313Zm3.774-.541c0-.866-.384-1.393-1.153-1.393a1.412,1.412,0,0,0-1.348,1.393Z" transform="translate(-597.794 -429.7)" fill="#fff"/>
        <path id="Контур_531" data-name="Контур 531" d="M736.542,449.475l.615-.838a2.482,2.482,0,0,0,1.553.628c.614,0,.9-.289.9-.675,0-.471-.611-.682-1.211-.911-.737-.278-1.581-.7-1.581-1.641,0-.975.788-1.682,2.049-1.682a3.025,3.025,0,0,1,1.868.675l-.6.811a2.1,2.1,0,0,0-1.233-.491c-.567,0-.836.27-.836.623,0,.444.57.614,1.178.839.762.283,1.613.65,1.613,1.7,0,.967-.765,1.745-2.185,1.745A3.519,3.519,0,0,1,736.542,449.475Z" transform="translate(-595.79 -429.7)" fill="#fff"/>
      </g>
    </g>
    <g id="Сгруппировать_681" data-name="Сгруппировать 681" transform="translate(667.793 417.778)">
      <path id="Контур_532" data-name="Контур 532" d="M647.815,417.364h1.557l2.443,7.492h-1.407l-1.141-3.987c-.238-.793-.459-1.646-.679-2.47h-.045c-.207.83-.426,1.677-.665,2.47l-1.15,3.987h-1.355Zm-1,4.42h3.527v1.041h-3.527Z" transform="translate(-645.373 -416.627)" fill="#fff"/>
      <path id="Контур_533" data-name="Контур 533" d="M649.8,421.431a2.78,2.78,0,0,1,2.821-2.955,2.406,2.406,0,0,1,1.646.631l-.64.858a1.387,1.387,0,0,0-.936-.413c-.908,0-1.536.752-1.536,1.879s.619,1.87,1.5,1.87a1.849,1.849,0,0,0,1.163-.486l.538.87a2.781,2.781,0,0,1-1.839.692A2.677,2.677,0,0,1,649.8,421.431Z" transform="translate(-642.918 -416.011)" fill="#fff"/>
      <path id="Контур_534" data-name="Контур 534" d="M653.176,422.727c0-1.2,1-1.833,3.309-2.08-.019-.6-.261-1.108-1.023-1.108a3.111,3.111,0,0,0-1.581.553l-.486-.88a4.4,4.4,0,0,1,2.311-.737c1.405,0,2.1.866,2.1,2.432v3.331h-1.08l-.1-.623h-.037a2.717,2.717,0,0,1-1.746.76A1.576,1.576,0,0,1,653.176,422.727Zm3.309,0v-1.265c-1.528.193-2.036.592-2.036,1.16,0,.5.34.715.813.715A1.773,1.773,0,0,0,656.485,422.732Z" transform="translate(-641.048 -416.011)" fill="#fff"/>
      <path id="Контур_535" data-name="Контур 535" d="M656.952,422.261c0-1.833,1.15-2.955,2.383-2.955a2.072,2.072,0,0,1,1.477.619l-.051-.908v-2.039h1.32v8.092H661l-.1-.609h-.036a2.36,2.36,0,0,1-1.6.746C657.86,425.206,656.952,424.117,656.952,422.261Zm3.808,1.223v-2.621a1.666,1.666,0,0,0-1.146-.468c-.715,0-1.305.678-1.305,1.851,0,1.223.466,1.87,1.278,1.87A1.486,1.486,0,0,0,660.76,423.484Z" transform="translate(-638.955 -416.841)" fill="#fff"/>
      <path id="Контур_536" data-name="Контур 536" d="M661.092,421.431a2.738,2.738,0,0,1,2.594-2.955c1.52,0,2.322,1.1,2.322,2.67a3.437,3.437,0,0,1-.058.642h-3.572a1.6,1.6,0,0,0,1.658,1.567,2.393,2.393,0,0,0,1.306-.407l.449.819a3.491,3.491,0,0,1-1.929.609A2.715,2.715,0,0,1,661.092,421.431Zm3.775-.541c0-.866-.385-1.393-1.155-1.393a1.412,1.412,0,0,0-1.348,1.393Z" transform="translate(-636.66 -416.011)" fill="#fff"/>
      <path id="Контур_537" data-name="Контур 537" d="M665.066,418.613h1.083l.1.768h.037a2.419,2.419,0,0,1,1.727-.9,1.518,1.518,0,0,1,1.554,1.007,2.542,2.542,0,0,1,1.809-1.007c1.188,0,1.736.814,1.736,2.235v3.528h-1.318V420.88c0-.925-.275-1.273-.867-1.273a1.728,1.728,0,0,0-1.177.7v3.931h-1.321V420.88c0-.925-.273-1.273-.864-1.273a1.749,1.749,0,0,0-1.178.7v3.931h-1.321Z" transform="translate(-634.457 -416.011)" fill="#fff"/>
      <path id="Контур_538" data-name="Контур 538" d="M671.183,417.717a.818.818,0,1,1,.814.746A.753.753,0,0,1,671.183,417.717Zm.149,1.731h1.321v5.627h-1.321Z" transform="translate(-631.066 -416.846)" fill="#fff"/>
      <path id="Контур_539" data-name="Контур 539" d="M674.5,421.185c0-2.453,1.554-3.909,3.547-3.909a3.076,3.076,0,0,1,2.263.948l-.71.857a2.022,2.022,0,0,0-1.512-.65c-1.327,0-2.221,1.031-2.221,2.712,0,1.708.793,2.745,2.294,2.745a1.675,1.675,0,0,0,1.069-.331V421.94h-1.411v-1.091h2.6v3.3a3.406,3.406,0,0,1-2.392.888C676.013,425.041,674.5,423.663,674.5,421.185Z" transform="translate(-629.225 -416.676)" fill="#fff"/>
      <path id="Контур_540" data-name="Контур 540" d="M679.074,421.431a2.739,2.739,0,0,1,2.594-2.955c1.522,0,2.322,1.1,2.322,2.67a3.317,3.317,0,0,1-.057.642h-3.572a1.6,1.6,0,0,0,1.66,1.567,2.4,2.4,0,0,0,1.306-.407l.449.819a3.5,3.5,0,0,1-1.93.609A2.715,2.715,0,0,1,679.074,421.431Zm3.775-.541c0-.866-.384-1.393-1.153-1.393a1.412,1.412,0,0,0-1.348,1.393Z" transform="translate(-626.692 -416.011)" fill="#fff"/>
      <path id="Контур_541" data-name="Контур 541" d="M683.049,418.613h1.082l.1.76h.036a2.629,2.629,0,0,1,1.847-.9c1.206,0,1.733.814,1.733,2.235v3.528h-1.32V420.88c0-.925-.266-1.273-.875-1.273a1.77,1.77,0,0,0-1.284.7v3.931h-1.32Z" transform="translate(-624.489 -416.011)" fill="#fff"/>
      <path id="Контур_542" data-name="Контур 542" d="M686.938,421.431a2.738,2.738,0,0,1,2.593-2.955c1.522,0,2.324,1.1,2.324,2.67a3.282,3.282,0,0,1-.059.642h-3.57a1.6,1.6,0,0,0,1.658,1.567,2.4,2.4,0,0,0,1.306-.407l.449.819a3.49,3.49,0,0,1-1.929.609A2.715,2.715,0,0,1,686.938,421.431Zm3.774-.541c0-.866-.384-1.393-1.153-1.393a1.412,1.412,0,0,0-1.348,1.393Z" transform="translate(-622.333 -416.011)" fill="#fff"/>
      <path id="Контур_543" data-name="Контур 543" d="M690.692,422.261c0-1.833,1.152-2.955,2.384-2.955a2.069,2.069,0,0,1,1.475.619l-.05-.908v-2.039h1.318v8.092h-1.08l-.1-.609H694.6a2.361,2.361,0,0,1-1.6.746C691.6,425.206,690.692,424.117,690.692,422.261Zm3.81,1.223v-2.621a1.669,1.669,0,0,0-1.147-.468c-.715,0-1.306.678-1.306,1.851,0,1.223.466,1.87,1.279,1.87A1.49,1.49,0,0,0,694.5,423.484Z" transform="translate(-620.252 -416.841)" fill="#fff"/>
      <path id="Контур_544" data-name="Контур 544" d="M695.069,423.621v-6.643h1.321v6.713c0,.325.146.44.284.44a.757.757,0,0,0,.205-.023l.166.985a1.868,1.868,0,0,1-.7.113C695.414,425.206,695.069,424.6,695.069,423.621Z" transform="translate(-617.826 -416.841)" fill="#fff"/>
      <path id="Контур_545" data-name="Контур 545" d="M696.872,422.727c0-1.2,1-1.833,3.309-2.08-.019-.6-.261-1.108-1.021-1.108a3.116,3.116,0,0,0-1.582.553l-.485-.88a4.394,4.394,0,0,1,2.31-.737c1.405,0,2.1.866,2.1,2.432v3.331h-1.082l-.1-.623h-.037a2.716,2.716,0,0,1-1.745.76A1.577,1.577,0,0,1,696.872,422.727Zm3.309,0v-1.265c-1.526.193-2.036.592-2.036,1.16,0,.5.34.715.813.715A1.774,1.774,0,0,0,700.181,422.732Z" transform="translate(-616.827 -416.011)" fill="#fff"/>
      <path id="Контур_546" data-name="Контур 546" d="M700.631,421.431a2.738,2.738,0,0,1,2.594-2.955c1.52,0,2.322,1.1,2.322,2.67a3.45,3.45,0,0,1-.057.642h-3.572a1.6,1.6,0,0,0,1.659,1.567,2.393,2.393,0,0,0,1.306-.407l.449.819a3.486,3.486,0,0,1-1.929.609A2.715,2.715,0,0,1,700.631,421.431Zm3.775-.541c0-.866-.384-1.393-1.155-1.393a1.413,1.413,0,0,0-1.348,1.393Z" transform="translate(-614.743 -416.011)" fill="#fff"/>
      <path id="Контур_547" data-name="Контур 547" d="M704.944,422.84v-2.68h-.8v-.99l.87-.059.156-1.536h1.1v1.536H707.7v1.049h-1.435v2.678c0,.662.257.988.8.988a1.755,1.755,0,0,0,.586-.129l.225.971a3.637,3.637,0,0,1-1.149.205C705.426,424.875,704.944,424.056,704.944,422.84Z" transform="translate(-612.796 -416.51)" fill="#fff"/>
      <path id="Контур_548" data-name="Контур 548" d="M707.193,416.978h1.321v2.094l-.054,1.086a2.6,2.6,0,0,1,1.8-.852c1.2,0,1.732.814,1.732,2.235v3.528h-1.318v-3.359c0-.925-.266-1.273-.877-1.273a1.769,1.769,0,0,0-1.282.7v3.931h-1.321Z" transform="translate(-611.106 -416.841)" fill="#fff"/>
      <path id="Контур_549" data-name="Контур 549" d="M711.067,421.431a2.689,2.689,0,1,1,2.677,2.945A2.726,2.726,0,0,1,711.067,421.431Zm4,0c0-1.127-.5-1.879-1.32-1.879s-1.321.752-1.321,1.879.5,1.87,1.321,1.87S715.063,422.558,715.063,421.431Z" transform="translate(-608.958 -416.011)" fill="#fff"/>
      <path id="Контур_550" data-name="Контур 550" d="M715.308,423.621v-6.643h1.32v6.713c0,.325.146.44.285.44a.773.773,0,0,0,.207-.023l.165.985a1.861,1.861,0,0,1-.7.113C715.651,425.206,715.308,424.6,715.308,423.621Z" transform="translate(-606.608 -416.841)" fill="#fff"/>
      <path id="Контур_551" data-name="Контур 551" d="M718.584,422.727c0-1.2,1-1.833,3.309-2.08-.019-.6-.261-1.108-1.021-1.108a3.111,3.111,0,0,0-1.582.553l-.485-.88a4.394,4.394,0,0,1,2.31-.737c1.405,0,2.1.866,2.1,2.432v3.331h-1.082l-.1-.623h-.037a2.716,2.716,0,0,1-1.745.76A1.577,1.577,0,0,1,718.584,422.727Zm3.309,0v-1.265c-1.528.193-2.036.592-2.036,1.16,0,.5.34.715.813.715A1.774,1.774,0,0,0,721.893,422.732Z" transform="translate(-604.792 -416.011)" fill="#fff"/>
      <path id="Контур_552" data-name="Контур 552" d="M722.581,418.613h1.082l.1,1h.036a1.924,1.924,0,0,1,1.6-1.139,1.442,1.442,0,0,1,.637.114l-.23,1.145a1.926,1.926,0,0,0-.578-.092c-.449,0-.99.308-1.327,1.164v3.432h-1.321Z" transform="translate(-602.576 -416.011)" fill="#fff"/>
      <path id="Контур_553" data-name="Контур 553" d="M726.558,425.26a1.434,1.434,0,0,1,.81-1.2v-.045a1.071,1.071,0,0,1-.508-.94,1.36,1.36,0,0,1,.623-1.049v-.047a1.867,1.867,0,0,1-.741-1.484,2.046,2.046,0,0,1,2.221-2.019,2.529,2.529,0,0,1,.835.137h2.011v.981h-1.027a1.47,1.47,0,0,1,.32.943,1.917,1.917,0,0,1-2.139,1.92,2.122,2.122,0,0,1-.76-.149.651.651,0,0,0-.277.539c0,.315.23.508.912.508h1c1.344,0,2.059.417,2.059,1.388,0,1.11-1.164,1.985-3,1.985C727.556,426.728,726.558,426.246,726.558,425.26Zm4.068-.3c0-.435-.348-.564-.992-.564h-.773a3.007,3.007,0,0,1-.76-.078.934.934,0,0,0-.435.743c0,.513.55.81,1.433.81C730.007,425.87,730.625,425.444,730.625,424.959Zm-.687-4.464a.983.983,0,1,0-1.951,0,.986.986,0,1,0,1.951,0Z" transform="translate(-600.372 -416.011)" fill="#fff"/>
      <path id="Контур_554" data-name="Контур 554" d="M730.6,426.385l.242-1.021a1.593,1.593,0,0,0,.4.078,1.189,1.189,0,0,0,1.121-.967l.107-.353-2.213-5.558H731.6l.971,2.759c.169.5.329,1.054.494,1.59h.047c.143-.524.283-1.077.43-1.59l.838-2.759h1.275l-2.035,5.883c-.468,1.267-1.058,2.053-2.286,2.053A2.159,2.159,0,0,1,730.6,426.385Z" transform="translate(-598.32 -415.962)" fill="#fff"/>
      <path id="Контур_555" data-name="Контур 555" d="M734.017,419.551l.825-.059h2.35v1.049h-3.175Zm.755-.642c0-1.166.538-2.019,1.865-2.019a2.85,2.85,0,0,1,1.031.2l-.252.985a1.575,1.575,0,0,0-.608-.134c-.468,0-.715.3-.715.95v6.231h-1.321Z" transform="translate(-596.237 -416.89)" fill="#fff"/>
      <path id="Контур_556" data-name="Контур 556" d="M736.383,421.431a2.738,2.738,0,0,1,2.594-2.955c1.52,0,2.322,1.1,2.322,2.67a3.425,3.425,0,0,1-.058.642H737.67a1.6,1.6,0,0,0,1.659,1.567,2.392,2.392,0,0,0,1.305-.407l.449.819a3.486,3.486,0,0,1-1.929.609A2.715,2.715,0,0,1,736.383,421.431Zm3.775-.541c0-.866-.385-1.393-1.155-1.393a1.412,1.412,0,0,0-1.348,1.393Z" transform="translate(-594.926 -416.011)" fill="#fff"/>
      <path id="Контур_557" data-name="Контур 557" d="M740.357,418.613h1.083l.1,1h.037a1.92,1.92,0,0,1,1.6-1.139,1.439,1.439,0,0,1,.637.114l-.229,1.145a1.935,1.935,0,0,0-.578-.092c-.451,0-.99.308-1.329,1.164v3.432h-1.321Z" transform="translate(-592.723 -416.011)" fill="#fff"/>
      <path id="Контур_558" data-name="Контур 558" d="M647.815,425.208h1.557l2.443,7.492h-1.407l-1.141-3.987c-.238-.791-.459-1.646-.679-2.468h-.045c-.207.828-.426,1.677-.665,2.468l-1.15,3.987h-1.355Zm-1,4.42h3.527v1.041h-3.527Z" transform="translate(-645.373 -412.279)" fill="#fff"/>
      <path id="Контур_559" data-name="Контур 559" d="M650.039,426.457h1.082l.1,1h.036a1.923,1.923,0,0,1,1.6-1.141,1.419,1.419,0,0,1,.637.115l-.23,1.144a1.928,1.928,0,0,0-.578-.092c-.449,0-.99.308-1.327,1.164v3.432h-1.321Z" transform="translate(-642.786 -411.663)" fill="#fff"/>
      <path id="Контур_560" data-name="Контур 560" d="M652.515,426.408h1.324l.682,2.919c.11.546.193,1.072.294,1.623h.045c.11-.55.221-1.091.358-1.623l.738-2.919h1.2l.751,2.919c.138.546.249,1.072.373,1.623h.045c.109-.55.193-1.077.3-1.623l.674-2.919h1.233l-1.425,5.627h-1.567l-.661-2.625c-.12-.527-.219-1.044-.337-1.634h-.048c-.109.589-.205,1.116-.334,1.643l-.637,2.616H654Z" transform="translate(-641.414 -411.614)" fill="#fff"/>
      <path id="Контур_561" data-name="Контур 561" d="M658.106,429.275a2.739,2.739,0,0,1,2.594-2.955c1.522,0,2.324,1.1,2.324,2.672a3.268,3.268,0,0,1-.059.64h-3.57a1.6,1.6,0,0,0,1.658,1.567,2.4,2.4,0,0,0,1.306-.407l.449.821a3.49,3.49,0,0,1-1.929.609A2.718,2.718,0,0,1,658.106,429.275Zm3.775-.539c0-.867-.384-1.394-1.153-1.394a1.412,1.412,0,0,0-1.348,1.394Z" transform="translate(-638.315 -411.663)" fill="#fff"/>
      <path id="Контур_562" data-name="Контур 562" d="M661.984,425.561a.818.818,0,1,1,.816.746A.754.754,0,0,1,661.984,425.561Zm.151,1.731h1.321v5.627h-1.321Z" transform="translate(-636.165 -412.498)" fill="#fff"/>
      <path id="Контур_563" data-name="Контур 563" d="M664.013,426.457h1.082l.1.76h.037a2.628,2.628,0,0,1,1.846-.9c1.206,0,1.733.816,1.733,2.235v3.528h-1.32v-3.359c0-.925-.266-1.273-.875-1.273a1.769,1.769,0,0,0-1.284.7v3.931h-1.32Z" transform="translate(-635.041 -411.663)" fill="#fff"/>
      <path id="Контур_564" data-name="Контур 564" d="M668.028,434.229l.242-1.021a1.541,1.541,0,0,0,.4.078,1.188,1.188,0,0,0,1.122-.967l.106-.353-2.213-5.558h1.338l.971,2.759c.169.5.33,1.054.494,1.59h.045c.143-.522.284-1.077.432-1.59l.838-2.759h1.275l-2.035,5.883c-.468,1.267-1.058,2.053-2.286,2.053A2.176,2.176,0,0,1,668.028,434.229Z" transform="translate(-633.003 -411.614)" fill="#fff"/>
      <path id="Контур_565" data-name="Контур 565" d="M671.522,430.105c0-1.833,1.152-2.955,2.384-2.955a2.069,2.069,0,0,1,1.475.619l-.05-.908v-2.039h1.318v8.092h-1.08l-.1-.609h-.037a2.359,2.359,0,0,1-1.6.748C672.43,433.052,671.522,431.961,671.522,430.105Zm3.81,1.223v-2.621a1.67,1.67,0,0,0-1.147-.468c-.715,0-1.3.679-1.3,1.851,0,1.225.465,1.87,1.278,1.87A1.486,1.486,0,0,0,675.332,431.328Z" transform="translate(-630.878 -412.493)" fill="#fff"/>
      <path id="Контур_566" data-name="Контур 566" d="M675.68,430.105c0-1.833,1.15-2.955,2.383-2.955a2.069,2.069,0,0,1,1.475.619l-.05-.908v-2.039h1.32v8.092h-1.082l-.1-.609h-.037a2.356,2.356,0,0,1-1.6.748C676.588,433.052,675.68,431.961,675.68,430.105Zm3.808,1.223v-2.621a1.666,1.666,0,0,0-1.145-.468c-.715,0-1.306.679-1.306,1.851,0,1.225.466,1.87,1.278,1.87A1.484,1.484,0,0,0,679.488,431.328Z" transform="translate(-628.574 -412.493)" fill="#fff"/>
      <path id="Контур_567" data-name="Контур 567" d="M679.96,425.561a.818.818,0,1,1,.815.746A.754.754,0,0,1,679.96,425.561Zm.151,1.731h1.32v5.627h-1.32Z" transform="translate(-626.201 -412.498)" fill="#fff"/>
      <path id="Контур_568" data-name="Контур 568" d="M681.793,430.573c0-1.206,1-1.834,3.309-2.081-.019-.6-.261-1.108-1.021-1.108a3.11,3.11,0,0,0-1.582.553l-.485-.88a4.394,4.394,0,0,1,2.31-.737c1.405,0,2.1.866,2.1,2.432v3.331H685.34l-.1-.623H685.2a2.718,2.718,0,0,1-1.746.762A1.576,1.576,0,0,1,681.793,430.573Zm3.309,0v-1.265c-1.528.193-2.036.591-2.036,1.159,0,.5.34.715.813.715A1.78,1.78,0,0,0,685.1,430.577Z" transform="translate(-625.185 -411.663)" fill="#fff"/>
      <path id="Контур_569" data-name="Контур 569" d="M685.553,429.275a2.738,2.738,0,0,1,2.594-2.955c1.52,0,2.322,1.1,2.322,2.672a3.43,3.43,0,0,1-.057.64H686.84A1.6,1.6,0,0,0,688.5,431.2a2.4,2.4,0,0,0,1.306-.407l.449.821a3.49,3.49,0,0,1-1.929.609A2.717,2.717,0,0,1,685.553,429.275Zm3.774-.539c0-.867-.384-1.394-1.153-1.394a1.412,1.412,0,0,0-1.348,1.394Z" transform="translate(-623.101 -411.663)" fill="#fff"/>
      <path id="Контур_570" data-name="Контур 570" d="M689.866,430.686V428h-.8v-.99l.872-.059.155-1.536h1.1v1.536h1.435V428h-1.435v2.678c0,.662.256.989.8.989a1.762,1.762,0,0,0,.586-.129l.225.971a3.631,3.631,0,0,1-1.149.207C690.348,432.721,689.866,431.9,689.866,430.686Z" transform="translate(-621.155 -412.162)" fill="#fff"/>
      <path id="Контур_571" data-name="Контур 571" d="M692.114,424.822h1.321v2.094L693.381,428a2.593,2.593,0,0,1,1.8-.852c1.2,0,1.732.816,1.732,2.235v3.528h-1.318v-3.359c0-.925-.266-1.273-.877-1.273a1.77,1.77,0,0,0-1.282.7v3.931h-1.321Z" transform="translate(-619.464 -412.493)" fill="#fff"/>
      <path id="Контур_572" data-name="Контур 572" d="M699.589,425.208h1.557l2.442,7.492h-1.4l-1.143-3.987c-.238-.791-.458-1.646-.678-2.468h-.045c-.207.828-.428,1.677-.665,2.468L698.5,432.7h-1.357Zm-1,4.42h3.528v1.041H698.59Z" transform="translate(-616.675 -412.279)" fill="#fff"/>
      <path id="Контур_573" data-name="Контур 573" d="M701.592,430.105c0-1.833,1.15-2.955,2.383-2.955a2.069,2.069,0,0,1,1.475.619l-.05-.908v-2.039h1.32v8.092h-1.082l-.1-.609H705.5a2.356,2.356,0,0,1-1.6.748C702.5,433.052,701.592,431.961,701.592,430.105Zm3.808,1.223v-2.621a1.666,1.666,0,0,0-1.146-.468c-.715,0-1.306.679-1.306,1.851,0,1.225.466,1.87,1.278,1.87A1.484,1.484,0,0,0,705.4,431.328Z" transform="translate(-614.211 -412.493)" fill="#fff"/>
      <path id="Контур_574" data-name="Контур 574" d="M705.749,430.105c0-1.833,1.15-2.955,2.383-2.955a2.07,2.07,0,0,1,1.475.619l-.05-.908v-2.039h1.32v8.092H709.8l-.1-.609h-.036a2.362,2.362,0,0,1-1.6.748C706.657,433.052,705.749,431.961,705.749,430.105Zm3.808,1.223v-2.621a1.666,1.666,0,0,0-1.146-.468c-.715,0-1.306.679-1.306,1.851,0,1.225.466,1.87,1.278,1.87A1.482,1.482,0,0,0,709.557,431.328Z" transform="translate(-611.906 -412.493)" fill="#fff"/>
      <path id="Контур_575" data-name="Контур 575" d="M710.015,434.229l.243-1.021a1.528,1.528,0,0,0,.4.078,1.188,1.188,0,0,0,1.121-.967l.107-.353-2.213-5.558h1.337l.971,2.759c.171.5.329,1.054.494,1.59h.047c.143-.522.283-1.077.431-1.59l.838-2.759h1.276l-2.036,5.883c-.468,1.267-1.058,2.053-2.286,2.053A2.16,2.16,0,0,1,710.015,434.229Z" transform="translate(-609.73 -411.614)" fill="#fff"/>
      <path id="Контур_576" data-name="Контур 576" d="M713.415,431.438l.615-.839a2.474,2.474,0,0,0,1.553.628c.614,0,.9-.288.9-.675,0-.471-.611-.682-1.211-.911-.737-.277-1.581-.7-1.581-1.64,0-.976.79-1.682,2.049-1.682a3.023,3.023,0,0,1,1.868.673l-.6.811a2.1,2.1,0,0,0-1.233-.491c-.567,0-.836.27-.836.623,0,.445.57.614,1.178.839.762.284,1.613.65,1.613,1.7,0,.967-.765,1.746-2.185,1.746A3.528,3.528,0,0,1,713.415,431.438Z" transform="translate(-607.657 -411.663)" fill="#fff"/>
      <path id="Контур_577" data-name="Контур 577" d="M716.7,433.106a1.433,1.433,0,0,1,.811-1.2v-.047a1.069,1.069,0,0,1-.51-.94,1.364,1.364,0,0,1,.625-1.049v-.045a1.873,1.873,0,0,1-.743-1.484,2.048,2.048,0,0,1,2.223-2.021,2.521,2.521,0,0,1,.833.137h2.011v.981h-1.026a1.478,1.478,0,0,1,.32.943,1.917,1.917,0,0,1-2.139,1.92,2.154,2.154,0,0,1-.76-.148.642.642,0,0,0-.277.538c0,.316.228.508.912.508h1c1.346,0,2.061.418,2.061,1.389,0,1.108-1.164,1.983-3,1.983C717.7,434.572,716.7,434.09,716.7,433.106Zm4.068-.3c0-.435-.347-.564-.99-.564h-.773a3.1,3.1,0,0,1-.762-.076.933.933,0,0,0-.435.741c0,.513.55.811,1.435.811C720.155,433.715,720.772,433.289,720.772,432.8Zm-.685-4.462a.984.984,0,1,0-1.952,0,.987.987,0,1,0,1.952,0Z" transform="translate(-605.834 -411.663)" fill="#fff"/>
      <path id="Контур_578" data-name="Контур 578" d="M720.427,429.275a2.688,2.688,0,1,1,2.675,2.947A2.725,2.725,0,0,1,720.427,429.275Zm3.995,0c0-1.127-.494-1.878-1.32-1.878s-1.32.751-1.32,1.878.494,1.87,1.32,1.87S724.422,430.4,724.422,429.275Z" transform="translate(-603.77 -411.663)" fill="#fff"/>
      <path id="Контур_579" data-name="Контур 579" d="M724.667,431.467v-6.645h1.321v6.713c0,.325.145.44.283.44a.762.762,0,0,0,.207-.023l.165.985a1.856,1.856,0,0,1-.7.115C725.012,433.052,724.667,432.447,724.667,431.467Z" transform="translate(-601.42 -412.493)" fill="#fff"/>
      <path id="Контур_580" data-name="Контур 580" d="M727.959,429.029c0-2.451,1.536-3.909,3.432-3.909a2.984,2.984,0,0,1,2.159.948l-.71.856a1.956,1.956,0,0,0-1.421-.65c-1.22,0-2.094,1.031-2.094,2.712,0,1.71.805,2.745,2.061,2.745a2.106,2.106,0,0,0,1.6-.771l.71.835a2.986,2.986,0,0,1-2.359,1.091C729.453,432.887,727.959,431.507,727.959,429.029Z" transform="translate(-599.595 -412.328)" fill="#fff"/>
      <path id="Контур_581" data-name="Контур 581" d="M732.154,434.229l.243-1.021a1.538,1.538,0,0,0,.4.078,1.188,1.188,0,0,0,1.122-.967l.106-.353-2.213-5.558h1.338l.971,2.759c.169.5.329,1.054.494,1.59h.045c.143-.522.284-1.077.432-1.59l.838-2.759h1.274l-2.034,5.883c-.468,1.267-1.059,2.053-2.286,2.053A2.175,2.175,0,0,1,732.154,434.229Z" transform="translate(-597.458 -411.614)" fill="#fff"/>
      <path id="Контур_582" data-name="Контур 582" d="M735.914,426.457H737l.1.768h.036a2.423,2.423,0,0,1,1.728-.9,1.52,1.52,0,0,1,1.554,1.007,2.545,2.545,0,0,1,1.809-1.007c1.186,0,1.736.816,1.736,2.235v3.528h-1.32v-3.359c0-.925-.275-1.273-.866-1.273a1.729,1.729,0,0,0-1.177.7v3.931h-1.321v-3.359c0-.925-.275-1.273-.866-1.273a1.75,1.75,0,0,0-1.177.7v3.931h-1.321Z" transform="translate(-595.186 -411.663)" fill="#fff"/>
      <path id="Контур_583" data-name="Контур 583" d="M742.127,426.457h1.082l.1,1h.036a1.923,1.923,0,0,1,1.6-1.141,1.422,1.422,0,0,1,.639.115l-.23,1.144a1.936,1.936,0,0,0-.578-.092c-.449,0-.99.308-1.327,1.164v3.432h-1.321Z" transform="translate(-591.742 -411.663)" fill="#fff"/>
      <path id="Контур_584" data-name="Контур 584" d="M744.835,429.936v-3.528h1.321v3.359c0,.926.264,1.275.874,1.275.494,0,.819-.23,1.246-.78v-3.853h1.32v5.627h-1.082l-.1-.828h-.037a2.294,2.294,0,0,1-1.811.967C745.362,432.173,744.835,431.357,744.835,429.936Z" transform="translate(-590.241 -411.614)" fill="#fff"/>
    </g>
  </g>
</svg>
