<?xml version="1.0" encoding="utf-8"?><svg xmlns="http://www.w3.org/2000/svg" xmlns:xlink="http://www.w3.org/1999/xlink"><symbol viewBox="0 0 14.043 8.486" id="icon-arrow-down" xmlns="http://www.w3.org/2000/svg"><path data-name="Path 36" d="M5.894 8.186L.483 2.802a1.64 1.64 0 010-2.325 1.639 1.639 0 012.313 0l4.324 4.3 4.324-4.3a1.639 1.639 0 012.313 0c.644.641 0 2.325 0 2.325L8.346 8.186s-1.774.674-2.452 0z"/></symbol><symbol viewBox="0 0 15.851 26.045" id="icon-arrow-left" xmlns="http://www.w3.org/2000/svg"><path data-name="Контур 587" d="M14.437 24.631L2.829 13.023 14.437 1.415"/></symbol><symbol viewBox="0 0 27.697 18.805" id="icon-arrow-long-left" xmlns="http://www.w3.org/2000/svg"><g data-name="Сгруппировать 2051"><path data-name="Линия 1" d="M27.697 9.403H1.414"/><path data-name="Контур 589" d="M10.11 18.098l-8.7-8.7 8.7-8.7" fill-rule="evenodd"/></g></symbol><symbol viewBox="0 0 27.697 18.805" id="icon-arrow-long-right" xmlns="http://www.w3.org/2000/svg"><g data-name="Сгруппировать 690"><path data-name="Линия 1" d="M0 9.402h26.283"/><path data-name="Контур 589" d="M17.587.707l8.7 8.7-8.7 8.7" fill-rule="evenodd"/></g></symbol><symbol viewBox="0 0 15.851 26.045" id="icon-arrow-right" xmlns="http://www.w3.org/2000/svg"><path data-name="Контур 586" d="M1.414 1.414l11.608 11.608L1.414 24.63"/></symbol><symbol viewBox="0 0 10.817 18.805" id="icon-arrow-right2" xmlns="http://www.w3.org/2000/svg"><g data-name="Сгруппировать 773"><path data-name="Линия 1" d="M7.512 9.402h1.891"/><path data-name="Контур 589" d="M.707.707l8.7 8.7-8.7 8.7" fill-rule="evenodd"/></g></symbol><symbol viewBox="0 0 46.452 62.992" id="icon-doc" xmlns="http://www.w3.org/2000/svg"><g data-name="Сгруппировать 2028"><g data-name="Сгруппировать 2027"><g data-name="Сгруппировать 2027"><path data-name="Контур 670" d="M30.278.6H4.349a3.749 3.749 0 00-3.75 3.749v54.293a3.75 3.75 0 003.75 3.75h37.753a3.75 3.75 0 003.749-3.75V16.173z"/><path data-name="Контур 671" d="M45.851 16.173H34.026a3.75 3.75 0 01-3.75-3.75V.6"/></g><path data-name="Линия 32" d="M6.529 29.103h33.393"/><path data-name="Линия 33" d="M6.529 24.318h16.696"/><path data-name="Линия 34" d="M6.529 48.245h16.696"/><path data-name="Линия 35" d="M6.529 33.889h33.393"/><path data-name="Линия 36" d="M6.529 38.674h33.393"/><path data-name="Линия 37" d="M6.529 43.459h33.393"/></g></g></symbol><symbol viewBox="0 0 10.176 19" id="icon-facebook-f" xmlns="http://www.w3.org/2000/svg"><path data-name="Icon awesome-facebook-f" d="M9.51 10.687l.528-3.439h-3.3v-2.23A1.719 1.719 0 018.677 3.16h1.5V.232A18.292 18.292 0 007.514 0C4.797 0 3.021 1.647 3.021 4.628v2.621H0v3.439h3.021V19h3.717v-8.313z"/></symbol><symbol viewBox="0 0 21.163 21.158" id="icon-instagram" xmlns="http://www.w3.org/2000/svg"><path data-name="Icon awesome-instagram" d="M10.583 5.154a5.425 5.425 0 105.422 5.425 5.416 5.416 0 00-5.422-5.425zm0 8.951a3.527 3.527 0 113.527-3.527 3.533 3.533 0 01-3.527 3.527zm6.912-9.173a1.265 1.265 0 11-1.265-1.27 1.262 1.262 0 011.265 1.27zm3.593 1.284a6.262 6.262 0 00-1.709-4.433A6.3 6.3 0 0014.946.074c-1.747-.1-6.983-.1-8.729 0a6.294 6.294 0 00-4.433 1.7 6.282 6.282 0 00-1.71 4.438c-.1 1.747-.1 6.983 0 8.73a6.262 6.262 0 001.709 4.433 6.311 6.311 0 004.433 1.709c1.747.1 6.983.1 8.729 0a6.261 6.261 0 004.433-1.709 6.3 6.3 0 001.709-4.433c.1-1.747.1-6.978 0-8.725zm-2.257 10.6a3.571 3.571 0 01-2.011 2.011c-1.393.552-4.7.425-6.237.425s-4.849.123-6.237-.425a3.571 3.571 0 01-2.011-2.011c-.552-1.393-.425-4.7-.425-6.237s-.123-4.849.425-6.237a3.571 3.571 0 012.012-2.011c1.393-.552 4.7-.425 6.237-.425s4.849-.123 6.237.425a3.571 3.571 0 012.01 2.011c.552 1.393.425 4.7.425 6.237s.128 4.849-.425 6.237z"/></symbol><symbol viewBox="0 0 18.815 18.815" id="icon-linkedin-in" xmlns="http://www.w3.org/2000/svg"><path data-name="Icon awesome-linkedin-in" d="M4.212 18.815H.311V6.254h3.9zM2.259 4.54a2.27 2.27 0 112.259-2.28 2.278 2.278 0 01-2.259 2.28zm16.552 14.275h-3.892V12.7c0-1.457-.029-3.326-2.028-3.326-2.028 0-2.339 1.583-2.339 3.221v6.22h-3.9V6.254H10.4v1.713h.055a4.1 4.1 0 013.691-2.029c3.948 0 4.674 2.6 4.674 5.976v6.9z"/></symbol><symbol viewBox="0 0 13.697 13.7" id="icon-search" xmlns="http://www.w3.org/2000/svg"><path data-name="Icon awesome-search" d="M13.511 11.844l-2.667-2.667a.642.642 0 00-.455-.187h-.436a5.562 5.562 0 10-.963.963v.436a.642.642 0 00.187.455l2.667 2.667a.639.639 0 00.907 0l.757-.757a.645.645 0 00.003-.91zM5.565 8.989a3.425 3.425 0 113.424-3.424 3.423 3.423 0 01-3.424 3.424z"/></symbol><symbol viewBox="0 0 19.847 16.12" id="icon-twitter" xmlns="http://www.w3.org/2000/svg"><path data-name="Icon awesome-twitter" d="M17.807 4.019c.013.176.013.353.013.529A11.494 11.494 0 016.246 16.119 11.5 11.5 0 010 14.293a8.415 8.415 0 00.982.05 8.146 8.146 0 005.05-1.738 4.075 4.075 0 01-3.8-2.821A5.13 5.13 0 003 9.848a4.3 4.3 0 001.07-.139 4.068 4.068 0 01-3.264-3.99v-.05a4.1 4.1 0 001.839.516A4.074 4.074 0 011.386.745a11.562 11.562 0 008.386 4.254 4.592 4.592 0 01-.1-.932 4.072 4.072 0 017.04-2.783 8.008 8.008 0 002.582-.982A4.057 4.057 0 0117.5 2.544a8.154 8.154 0 002.342-.63 8.744 8.744 0 01-2.035 2.105z"/></symbol><symbol viewBox="0 0 62.774 66.889" id="icon-user" xmlns="http://www.w3.org/2000/svg"><g data-name="Сгруппировать 2075" transform="translate(1.06 1)"><ellipse data-name="Эллипс 67" cx="15.252" cy="17.638" rx="15.252" ry="17.638" transform="translate(15.075)"/><path data-name="Контур 683" d="M42.787 34.169a17.635 17.635 0 01-24.922 0A19.944 19.944 0 000 50.856a39.786 39.786 0 0060.653 0 19.941 19.941 0 00-17.866-16.687z"/></g></symbol></svg>